<svg width="25" height="24" viewBox="0 0 25 24" fill="none" xmlns="http://www.w3.org/2000/svg">
<g filter="url(#filter0_i_657_108)">
<path d="M20 3.75H5C4.60218 3.75 4.22064 3.90804 3.93934 4.18934C3.65804 4.47064 3.5 4.85218 3.5 5.25V9.75C3.5 10.1478 3.65804 10.5294 3.93934 10.8107C4.22064 11.092 4.60218 11.25 5 11.25H20C20.3978 11.25 20.7794 11.092 21.0607 10.8107C21.342 10.5294 21.5 10.1478 21.5 9.75V5.25C21.5 4.85218 21.342 4.47064 21.0607 4.18934C20.7794 3.90804 20.3978 3.75 20 3.75ZM17.375 8.625C17.1525 8.625 16.935 8.55902 16.75 8.4354C16.565 8.31179 16.4208 8.13609 16.3356 7.93052C16.2505 7.72495 16.2282 7.49875 16.2716 7.28052C16.315 7.06229 16.4222 6.86184 16.5795 6.7045C16.7368 6.54717 16.9373 6.44002 17.1555 6.39662C17.3738 6.35321 17.6 6.37549 17.8055 6.46064C18.0111 6.54578 18.1868 6.68998 18.3104 6.87498C18.434 7.05999 18.5 7.2775 18.5 7.5C18.5 7.79837 18.3815 8.08452 18.1705 8.2955C17.9595 8.50647 17.6734 8.625 17.375 8.625Z" fill="#1914FE"/>
<path d="M20 12.75H5C4.60218 12.75 4.22064 12.908 3.93934 13.1893C3.65804 13.4706 3.5 13.8522 3.5 14.25V18.75C3.5 19.1478 3.65804 19.5294 3.93934 19.8107C4.22064 20.092 4.60218 20.25 5 20.25H20C20.3978 20.25 20.7794 20.092 21.0607 19.8107C21.342 19.5294 21.5 19.1478 21.5 18.75V14.25C21.5 13.8522 21.342 13.4706 21.0607 13.1893C20.7794 12.908 20.3978 12.75 20 12.75ZM17.375 17.625C17.1525 17.625 16.935 17.559 16.75 17.4354C16.565 17.3118 16.4208 17.1361 16.3356 16.9305C16.2505 16.725 16.2282 16.4988 16.2716 16.2805C16.315 16.0623 16.4222 15.8618 16.5795 15.7045C16.7368 15.5472 16.9373 15.44 17.1555 15.3966C17.3738 15.3532 17.6 15.3755 17.8055 15.4606C18.0111 15.5458 18.1868 15.69 18.3104 15.875C18.434 16.06 18.5 16.2775 18.5 16.5C18.5 16.7984 18.3815 17.0845 18.1705 17.2955C17.9595 17.5065 17.6734 17.625 17.375 17.625Z" fill="#1914FE"/>
</g>
<defs>
<filter id="filter0_i_657_108" x="0.5" y="0" width="24" height="24" filterUnits="userSpaceOnUse" color-interpolation-filters="sRGB">
<feFlood flood-opacity="0" result="BackgroundImageFix"/>
<feBlend mode="normal" in="SourceGraphic" in2="BackgroundImageFix" result="shape"/>
<feColorMatrix in="SourceAlpha" type="matrix" values="0 0 0 0 0 0 0 0 0 0 0 0 0 0 0 0 0 0 127 0" result="hardAlpha"/>
<feMorphology radius="4" operator="erode" in="SourceAlpha" result="effect1_innerShadow_657_108"/>
<feOffset/>
<feGaussianBlur stdDeviation="2"/>
<feComposite in2="hardAlpha" operator="arithmetic" k2="-1" k3="1"/>
<feColorMatrix type="matrix" values="0 0 0 0 1 0 0 0 0 1 0 0 0 0 1 0 0 0 0.9 0"/>
<feBlend mode="normal" in2="shape" result="effect1_innerShadow_657_108"/>
</filter>
</defs>
</svg>
