<svg width="56" height="56" viewBox="0 0 56 56" fill="none" xmlns="http://www.w3.org/2000/svg">
<rect width="56" height="56" rx="9" fill="#B9D9FF"/>
<path d="M36 19.3333V14H34.6667V19.3333H36Z" fill="white"/>
<path d="M21.3333 19.3333V14H20V19.3333H21.3333Z" fill="white"/>
<path d="M15 18.6667C15 18.4826 15.1492 18.3333 15.3333 18.3333H18.6667V16.3333H15.3333C14.0447 16.3333 13 17.378 13 18.6667V37.3333C13 38.622 14.0447 39.6667 15.3333 39.6667H40.6667C41.9553 39.6667 43 38.622 43 37.3333V18.6667C43 17.378 41.9553 16.3333 40.6667 16.3333H37.3333V18.3333H40.6667C40.8508 18.3333 41 18.4826 41 18.6667V37.3333C41 37.5174 40.8508 37.6667 40.6667 37.6667H15.3333C15.1492 37.6667 15 37.5174 15 37.3333V18.6667Z" fill="white"/>
<path d="M33.3333 16.3333H22.6667V18.3333H33.3333V16.3333Z" fill="white"/>
<path d="M21.3333 28.3333C21.3333 28.8856 20.8856 29.3333 20.3333 29.3333C19.781 29.3333 19.3333 28.8856 19.3333 28.3333C19.3333 27.781 19.781 27.3333 20.3333 27.3333C20.8856 27.3333 21.3333 27.781 21.3333 28.3333Z" fill="white"/>
<path d="M20.3333 24.6667C20.8856 24.6667 21.3333 24.219 21.3333 23.6667C21.3333 23.1144 20.8856 22.6667 20.3333 22.6667C19.781 22.6667 19.3333 23.1144 19.3333 23.6667C19.3333 24.219 19.781 24.6667 20.3333 24.6667Z" fill="white"/>
<path d="M26.6667 28.3333C26.6667 28.8856 26.219 29.3333 25.6667 29.3333C25.1144 29.3333 24.6667 28.8856 24.6667 28.3333C24.6667 27.781 25.1144 27.3333 25.6667 27.3333C26.219 27.3333 26.6667 27.781 26.6667 28.3333Z" fill="white"/>
<path d="M25.6667 24.6667C26.219 24.6667 26.6667 24.219 26.6667 23.6667C26.6667 23.1144 26.219 22.6667 25.6667 22.6667C25.1144 22.6667 24.6667 23.1144 24.6667 23.6667C24.6667 24.219 25.1144 24.6667 25.6667 24.6667Z" fill="white"/>
<path d="M32 28.3333C32 28.8856 31.5523 29.3333 31 29.3333C30.4477 29.3333 30 28.8856 30 28.3333C30 27.781 30.4477 27.3333 31 27.3333C31.5523 27.3333 32 27.781 32 28.3333Z" fill="white"/>
<path d="M31 24.6667C31.5523 24.6667 32 24.219 32 23.6667C32 23.1144 31.5523 22.6667 31 22.6667C30.4477 22.6667 30 23.1144 30 23.6667C30 24.219 30.4477 24.6667 31 24.6667Z" fill="white"/>
<path d="M37.3333 28.3333C37.3333 28.8856 36.8856 29.3333 36.3333 29.3333C35.781 29.3333 35.3333 28.8856 35.3333 28.3333C35.3333 27.781 35.781 27.3333 36.3333 27.3333C36.8856 27.3333 37.3333 27.781 37.3333 28.3333Z" fill="white"/>
<path d="M36.3333 24.6667C36.8856 24.6667 37.3333 24.219 37.3333 23.6667C37.3333 23.1144 36.8856 22.6667 36.3333 22.6667C35.781 22.6667 35.3333 23.1144 35.3333 23.6667C35.3333 24.219 35.781 24.6667 36.3333 24.6667Z" fill="white"/>
<path d="M37.3333 33C37.3333 33.5523 36.8856 34 36.3333 34C35.781 34 35.3333 33.5523 35.3333 33C35.3333 32.4477 35.781 32 36.3333 32C36.8856 32 37.3333 32.4477 37.3333 33Z" fill="white"/>
<path d="M31 34C31.5523 34 32 33.5523 32 33C32 32.4477 31.5523 32 31 32C30.4477 32 30 32.4477 30 33C30 33.5523 30.4477 34 31 34Z" fill="white"/>
<path d="M26.6667 33C26.6667 33.5523 26.219 34 25.6667 34C25.1144 34 24.6667 33.5523 24.6667 33C24.6667 32.4477 25.1144 32 25.6667 32C26.219 32 26.6667 32.4477 26.6667 33Z" fill="white"/>
<path d="M20.3333 34C20.8856 34 21.3333 33.5523 21.3333 33C21.3333 32.4477 20.8856 32 20.3333 32C19.781 32 19.3333 32.4477 19.3333 33C19.3333 33.5523 19.781 34 20.3333 34Z" fill="white"/>
</svg>
