<svg width="56" height="56" viewBox="0 0 56 56" fill="none" xmlns="http://www.w3.org/2000/svg">
<rect width="56" height="56" rx="9" fill="#BCE7FF"/>
<path d="M15.5907 20.5262L27.5907 29.8595C27.8314 30.0468 28.1686 30.0468 28.4093 29.8595L40.4093 20.5262L39.5907 19.4737L28 28.4887L16.4093 19.4737L15.5907 20.5262Z" fill="white"/>
<path fill-rule="evenodd" clip-rule="evenodd" d="M15.3333 16.3333C14.0447 16.3333 13 17.378 13 18.6666V37.3333C13 38.622 14.0447 39.6666 15.3333 39.6666H40.6667C41.9553 39.6666 43 38.622 43 37.3333V18.6666C43 17.378 41.9553 16.3333 40.6667 16.3333H15.3333ZM15 18.6666C15 18.4826 15.1492 18.3333 15.3333 18.3333H40.6667C40.8508 18.3333 41 18.4826 41 18.6666V37.3333C41 37.5174 40.8508 37.6666 40.6667 37.6666H15.3333C15.1492 37.6666 15 37.5174 15 37.3333V18.6666Z" fill="white"/>
</svg>
