<svg width="56" height="56" viewBox="0 0 56 56" fill="none" xmlns="http://www.w3.org/2000/svg">
<rect width="56" height="56" rx="8" fill="#1F78E0" fill-opacity="0.5"/>
<path d="M19.4688 20.125H14.2188V21.4375H19.4688V20.125Z" fill="white"/>
<path d="M19.4688 34.5625H14.2188V35.875H19.4688V34.5625Z" fill="white"/>
<path d="M18.8125 40.7969C18.6313 40.7969 18.4844 40.65 18.4844 40.4688V37.1875H16.5156V40.4688C16.5156 41.7373 17.544 42.7656 18.8125 42.7656H37.1875C38.456 42.7656 39.4844 41.7373 39.4844 40.4688V15.5312C39.4844 14.2627 38.456 13.2344 37.1875 13.2344H18.8125C17.544 13.2344 16.5156 14.2627 16.5156 15.5312V18.8125H18.4844V15.5312C18.4844 15.35 18.6313 15.2031 18.8125 15.2031H37.1875C37.3687 15.2031 37.5156 15.35 37.5156 15.5312V40.4688C37.5156 40.65 37.3687 40.7969 37.1875 40.7969H18.8125Z" fill="white"/>
<path d="M16.5156 22.75V33.25H18.4844V22.75H16.5156Z" fill="white"/>
<path fill-rule="evenodd" clip-rule="evenodd" d="M32.5918 29.3488C33.7865 30.3796 34.5625 31.9165 34.5625 33.9062V35.2188L22.0938 35.2187V33.9062C22.0938 31.9165 22.8698 30.3795 24.0645 29.3488C25.2457 28.3297 26.799 27.8359 28.3281 27.8359C29.8573 27.8359 31.4105 28.3297 32.5918 29.3488ZM24.9218 30.3426C24.0248 31.1165 23.4062 32.2866 23.4062 33.9062L33.25 33.9062C33.25 32.2866 32.6315 31.1165 31.7344 30.3426C30.8238 29.557 29.588 29.1484 28.3281 29.1484C27.0682 29.1484 25.8324 29.557 24.9218 30.3426Z" fill="white"/>
<path fill-rule="evenodd" clip-rule="evenodd" d="M31.2812 23.7344C31.2812 25.3653 29.9591 26.6875 28.3281 26.6875C26.6972 26.6875 25.375 25.3653 25.375 23.7344C25.375 22.1034 26.6972 20.7812 28.3281 20.7812C29.9591 20.7812 31.2812 22.1034 31.2812 23.7344ZM29.9688 23.7344C29.9688 24.6405 29.2342 25.375 28.3281 25.375C27.422 25.375 26.6875 24.6405 26.6875 23.7344C26.6875 22.8283 27.422 22.0938 28.3281 22.0938C29.2342 22.0938 29.9688 22.8283 29.9688 23.7344Z" fill="white"/>
</svg>
