<svg width="56" height="56" viewBox="0 0 56 56" fill="none" xmlns="http://www.w3.org/2000/svg">
<rect width="56" height="56" rx="8" fill="#A8C1FE"/>
<path d="M19.3333 20H14V21.3333H19.3333V20Z" fill="white"/>
<path d="M19.3333 34.6667H14V36H19.3333V34.6667Z" fill="white"/>
<path d="M18.6667 41C18.4826 41 18.3333 40.8508 18.3333 40.6667V37.3333H16.3333V40.6667C16.3333 41.9553 17.378 43 18.6667 43H37.3333C38.622 43 39.6667 41.9553 39.6667 40.6667V15.3333C39.6667 14.0447 38.622 13 37.3333 13H18.6667C17.378 13 16.3333 14.0447 16.3333 15.3333V18.6667H18.3333V15.3333C18.3333 15.1492 18.4826 15 18.6667 15H37.3333C37.5174 15 37.6667 15.1492 37.6667 15.3333V40.6667C37.6667 40.8508 37.5174 41 37.3333 41H18.6667Z" fill="white"/>
<path d="M16.3333 22.6667V33.3333H18.3333V22.6667H16.3333Z" fill="white"/>
<path fill-rule="evenodd" clip-rule="evenodd" d="M32.6647 29.3702C33.8783 30.4173 34.6667 31.9787 34.6667 34V35.3333L22 35.3333V34C22 31.9787 22.7883 30.4173 24.002 29.3702C25.202 28.3349 26.7799 27.8333 28.3333 27.8333C29.8868 27.8333 31.4647 28.335 32.6647 29.3702ZM24.873 30.3798C23.9617 31.166 23.3333 32.3546 23.3333 34L33.3333 34C33.3333 32.3546 32.705 31.166 31.7937 30.3798C30.8687 29.5817 29.6132 29.1667 28.3333 29.1667C27.0534 29.1667 25.798 29.5817 24.873 30.3798Z" fill="white"/>
<path fill-rule="evenodd" clip-rule="evenodd" d="M31.3333 23.6667C31.3333 25.3235 29.9902 26.6667 28.3333 26.6667C26.6765 26.6667 25.3333 25.3235 25.3333 23.6667C25.3333 22.0098 26.6765 20.6667 28.3333 20.6667C29.9902 20.6667 31.3333 22.0098 31.3333 23.6667ZM30 23.6667C30 24.5871 29.2538 25.3333 28.3333 25.3333C27.4129 25.3333 26.6667 24.5871 26.6667 23.6667C26.6667 22.7462 27.4129 22 28.3333 22C29.2538 22 30 22.7462 30 23.6667Z" fill="white"/>
</svg>
