<svg width="78" height="78" fill="none" xmlns="http://www.w3.org/2000/svg"><path d="M39.402 15.224a12.283 12.283 0 100 24.566 12.283 12.283 0 000-24.566zm0 20.278a7.996 7.996 0 117.995-7.995 7.996 7.996 0 01-7.995 7.974v.021z" fill="#fff"/><path d="M39.402 5.106a25.272 25.272 0 00-25.25 25.144c0 10.01 5.615 18.392 9.73 24.5l.751 1.115a213.501 213.501 0 0013.162 17.149l.868 1.017a1 1 0 001.521 0l.869-1.017a213.981 213.981 0 0013.161-17.148l.75-1.137c4.094-6.109 9.71-14.468 9.71-24.479A25.272 25.272 0 0039.402 5.106zm11.983 47.158l-.772 1.136c-3.617 5.426-8.389 11.49-11.058 14.613a.196.196 0 01-.302-.003c-2.573-3.124-7.446-9.186-11.062-14.61l-.75-1.136c-3.794-5.659-9.003-13.397-9.003-22.1a20.965 20.965 0 0141.928 0c0 8.789-5.187 16.527-8.981 22.1z" fill="#fff"/></svg>