<svg width="18" height="18" fill="none" xmlns="http://www.w3.org/2000/svg"><path d="M15.46 4h-2.185a.5.5 0 000 1H15.5v10h-13V5h2.19a.5.5 0 100-1H2.54A1 1 0 001.5 5v10a1 1 0 001.04 1h12.92a1 1 0 001.04-1V5a1 1 0 00-1.04-1z" fill="url(#paint0_linear_151_9540)"/><path d="M5.15 9.435l3.5 3.445a.5.5 0 00.7 0l3.5-3.445a.5.5 0 10-.7-.715L9.5 11.325V2a.5.5 0 10-1 0v9.325L5.85 8.72a.5.5 0 00-.7.715z" fill="url(#paint1_linear_151_9540)"/><defs><linearGradient id="paint0_linear_151_9540" x1="1.5" y1="10" x2="16.5" y2="10" gradientUnits="userSpaceOnUse"><stop stop-color="#EA5C2F"/><stop offset="1" stop-color="#F3B921"/></linearGradient><linearGradient id="paint1_linear_151_9540" x1="5" y1="7.261" x2="13.001" y2="7.261" gradientUnits="userSpaceOnUse"><stop stop-color="#EA5C2F"/><stop offset="1" stop-color="#F3B921"/></linearGradient></defs></svg>