<svg width="78" height="78" fill="none" xmlns="http://www.w3.org/2000/svg"><path d="M63.517 70.752h-.41C15.721 68.027 8.993 28.045 8.053 15.842a7.234 7.234 0 016.656-7.788h13.287a4.823 4.823 0 014.485 3.038l3.666 9.02a4.823 4.823 0 01-1.061 5.208l-5.137 5.185a22.596 22.596 0 0018.28 18.327l5.232-5.185a4.822 4.822 0 015.233-.989l9.091 3.642a4.823 4.823 0 012.966 4.485v12.733a7.235 7.235 0 01-7.234 7.234zm-48.23-57.875a2.411 2.411 0 00-2.411 2.411v.193c1.11 14.276 8.223 48.037 50.496 50.448a2.412 2.412 0 002.556-2.267V50.785l-9.09-3.641-6.922 6.873-1.157-.145c-20.98-2.629-23.826-23.608-23.826-23.826l-.144-1.157 6.848-6.921-3.617-9.091H15.287z" fill="#fff"/></svg>