<svg width="78" height="78" viewBox="0 0 78 78" fill="none" xmlns="http://www.w3.org/2000/svg">
<path d="M39.4021 15.2241C36.9729 15.2241 34.5982 15.9445 32.5783 17.2941C30.5585 18.6437 28.9842 20.562 28.0546 22.8063C27.125 25.0506 26.8817 27.5202 27.3556 29.9028C27.8296 32.2854 28.9994 34.4739 30.7171 36.1916C32.4348 37.9094 34.6234 39.0792 37.0059 39.5531C39.3885 40.027 41.8581 39.7838 44.1024 38.8542C46.3468 37.9245 48.265 36.3502 49.6146 34.3304C50.9643 32.3106 51.6846 29.9359 51.6846 27.5066C51.6846 24.2491 50.3906 21.125 48.0871 18.8216C45.7837 16.5182 42.6596 15.2241 39.4021 15.2241ZM39.4021 35.502C37.8208 35.502 36.2749 35.0331 34.9601 34.1546C33.6453 33.276 32.6205 32.0273 32.0153 30.5663C31.4102 29.1054 31.2518 27.4977 31.5603 25.9468C31.8688 24.3958 32.6303 22.9712 33.7485 21.853C34.8667 20.7348 36.2913 19.9733 37.8423 19.6648C39.3932 19.3563 41.0009 19.5147 42.4618 20.1198C43.9228 20.725 45.1715 21.7498 46.0501 23.0646C46.9286 24.3794 47.3975 25.9253 47.3975 27.5066C47.3918 29.6234 46.547 31.6516 45.0482 33.1464C43.5493 34.6412 41.5189 35.4806 39.4021 35.4806V35.502Z" fill="white"/>
<path d="M39.4022 5.10645C32.7254 5.11202 26.3222 7.75948 21.5911 12.4706C16.8599 17.1817 14.1852 23.5736 14.1512 30.2502C14.1512 40.2605 19.7673 48.6418 23.8829 54.7509L24.6332 55.8655C28.7279 61.8002 33.1207 67.5236 37.7945 73.0138L38.6631 74.031C39.0623 74.4985 39.7848 74.4985 40.184 74.031L41.0527 73.0138C45.7259 67.5231 50.1186 61.7997 54.214 55.8655L54.9643 54.7294C59.0584 48.6203 64.6745 40.2605 64.6745 30.2502C64.6405 23.5698 61.9629 17.1747 57.2271 12.463C52.4913 7.75131 46.0826 5.10636 39.4022 5.10645ZM51.3845 52.2643L50.6129 53.4004C46.9961 58.8256 42.2241 64.8903 39.555 68.0126C39.4744 68.1069 39.3317 68.1055 39.2529 68.0098C36.6803 64.8865 31.8071 58.8239 28.1914 53.4004L27.4412 52.2643C23.6471 46.6054 18.4383 38.8672 18.4383 30.1644C18.4383 27.4114 18.9806 24.6854 20.0341 22.1419C21.0876 19.5985 22.6318 17.2874 24.5785 15.3408C26.5252 13.3941 28.8362 11.8499 31.3796 10.7964C33.9231 9.74285 36.6491 9.20061 39.4022 9.20061C42.1552 9.20061 44.8812 9.74285 47.4247 10.7964C49.9681 11.8499 52.2791 13.3941 54.2258 15.3408C56.1725 17.2874 57.7167 19.5985 58.7702 22.1419C59.8237 24.6854 60.366 27.4114 60.366 30.1644C60.366 38.953 55.1786 46.6911 51.3845 52.2643Z" fill="white"/>
</svg>
