<svg width="96" height="96" fill="none" xmlns="http://www.w3.org/2000/svg"><path fill-rule="evenodd" clip-rule="evenodd" d="M48 14.667a13.333 13.333 0 100 26.666 13.333 13.333 0 000-26.666zm-14.142-.81a20 20 0 1128.284 28.284 20 20 0 01-28.284-28.283zm5.96 44.841c-5.642 0-11.052 2.293-15.042 6.375s-6.23 9.619-6.23 15.392v4.186c0 1.85-1.466 3.349-3.273 3.349C13.465 88 12 86.5 12 84.651v-4.186c0-7.55 2.93-14.79 8.148-20.128C25.365 55 32.44 52 39.818 52h16.364c7.378 0 14.453 2.999 19.67 8.337C81.07 65.675 84 72.916 84 80.465v4.186C84 86.501 82.535 88 80.727 88c-1.807 0-3.272-1.5-3.272-3.349v-4.186c0-5.773-2.242-11.31-6.231-15.392-3.99-4.082-9.4-6.375-15.042-6.375H39.818z" fill="#fff"/></svg>