<svg width="96" height="96" fill="none" xmlns="http://www.w3.org/2000/svg"><path d="M16 26.667a2.667 2.667 0 115.333 0 2.667 2.667 0 01-5.333 0zm10.667 0A2.667 2.667 0 0129.334 24h32a2.667 2.667 0 010 5.333h-32a2.667 2.667 0 01-2.667-2.666zM16 48a2.667 2.667 0 115.333 0A2.667 2.667 0 0116 48zm10.667 0a2.667 2.667 0 012.667-2.667h32a2.667 2.667 0 010 5.334h-32A2.667 2.667 0 0126.667 48z" fill="#fff"/><path d="M85.333 13.333H10.666a5.333 5.333 0 00-5.333 5.334v58.666a5.333 5.333 0 005.333 5.334h74.667a5.333 5.333 0 005.333-5.334V18.667a5.333 5.333 0 00-5.333-5.334zm-74.667 5.334h74.667v16H10.666v-16zm0 21.333h74.667v16H10.666V40zm0 37.333v-16h74.667v16H10.666z" fill="#fff"/><path d="M16 69.333a2.667 2.667 0 115.333 0 2.667 2.667 0 01-5.333 0zm10.667 0a2.667 2.667 0 012.667-2.666h32a2.667 2.667 0 010 5.333h-32a2.667 2.667 0 01-2.667-2.667z" fill="#fff"/></svg>