<svg width="64" height="64" viewBox="0 0 64 64" fill="none" xmlns="http://www.w3.org/2000/svg">
<rect width="64" height="64" rx="9" fill="#1F78E0" fill-opacity="0.8"/>
<path d="M41 22.25V16.25H39.5V22.25H41Z" fill="white"/>
<path d="M24.5 22.25V16.25H23V22.25H24.5Z" fill="white"/>
<path d="M17.375 21.5C17.375 21.2929 17.5429 21.125 17.75 21.125H21.5V18.875H17.75C16.3003 18.875 15.125 20.0503 15.125 21.5V42.5C15.125 43.9497 16.3003 45.125 17.75 45.125H46.25C47.6997 45.125 48.875 43.9497 48.875 42.5V21.5C48.875 20.0503 47.6997 18.875 46.25 18.875H42.5V21.125H46.25C46.4571 21.125 46.625 21.2929 46.625 21.5V42.5C46.625 42.7071 46.4571 42.875 46.25 42.875H17.75C17.5429 42.875 17.375 42.7071 17.375 42.5V21.5Z" fill="white"/>
<path d="M38 18.875H26V21.125H38V18.875Z" fill="white"/>
<path d="M24.5 32.375C24.5 32.9963 23.9963 33.5 23.375 33.5C22.7537 33.5 22.25 32.9963 22.25 32.375C22.25 31.7537 22.7537 31.25 23.375 31.25C23.9963 31.25 24.5 31.7537 24.5 32.375Z" fill="white"/>
<path d="M23.375 28.25C23.9963 28.25 24.5 27.7463 24.5 27.125C24.5 26.5037 23.9963 26 23.375 26C22.7537 26 22.25 26.5037 22.25 27.125C22.25 27.7463 22.7537 28.25 23.375 28.25Z" fill="white"/>
<path d="M30.5 32.375C30.5 32.9963 29.9963 33.5 29.375 33.5C28.7537 33.5 28.25 32.9963 28.25 32.375C28.25 31.7537 28.7537 31.25 29.375 31.25C29.9963 31.25 30.5 31.7537 30.5 32.375Z" fill="white"/>
<path d="M29.375 28.25C29.9963 28.25 30.5 27.7463 30.5 27.125C30.5 26.5037 29.9963 26 29.375 26C28.7537 26 28.25 26.5037 28.25 27.125C28.25 27.7463 28.7537 28.25 29.375 28.25Z" fill="white"/>
<path d="M36.5 32.375C36.5 32.9963 35.9963 33.5 35.375 33.5C34.7537 33.5 34.25 32.9963 34.25 32.375C34.25 31.7537 34.7537 31.25 35.375 31.25C35.9963 31.25 36.5 31.7537 36.5 32.375Z" fill="white"/>
<path d="M35.375 28.25C35.9963 28.25 36.5 27.7463 36.5 27.125C36.5 26.5037 35.9963 26 35.375 26C34.7537 26 34.25 26.5037 34.25 27.125C34.25 27.7463 34.7537 28.25 35.375 28.25Z" fill="white"/>
<path d="M42.5 32.375C42.5 32.9963 41.9963 33.5 41.375 33.5C40.7537 33.5 40.25 32.9963 40.25 32.375C40.25 31.7537 40.7537 31.25 41.375 31.25C41.9963 31.25 42.5 31.7537 42.5 32.375Z" fill="white"/>
<path d="M41.375 28.25C41.9963 28.25 42.5 27.7463 42.5 27.125C42.5 26.5037 41.9963 26 41.375 26C40.7537 26 40.25 26.5037 40.25 27.125C40.25 27.7463 40.7537 28.25 41.375 28.25Z" fill="white"/>
<path d="M42.5 37.625C42.5 38.2463 41.9963 38.75 41.375 38.75C40.7537 38.75 40.25 38.2463 40.25 37.625C40.25 37.0037 40.7537 36.5 41.375 36.5C41.9963 36.5 42.5 37.0037 42.5 37.625Z" fill="white"/>
<path d="M35.375 38.75C35.9963 38.75 36.5 38.2463 36.5 37.625C36.5 37.0037 35.9963 36.5 35.375 36.5C34.7537 36.5 34.25 37.0037 34.25 37.625C34.25 38.2463 34.7537 38.75 35.375 38.75Z" fill="white"/>
<path d="M30.5 37.625C30.5 38.2463 29.9963 38.75 29.375 38.75C28.7537 38.75 28.25 38.2463 28.25 37.625C28.25 37.0037 28.7537 36.5 29.375 36.5C29.9963 36.5 30.5 37.0037 30.5 37.625Z" fill="white"/>
<path d="M23.375 38.75C23.9963 38.75 24.5 38.2463 24.5 37.625C24.5 37.0037 23.9963 36.5 23.375 36.5C22.7537 36.5 22.25 37.0037 22.25 37.625C22.25 38.2463 22.7537 38.75 23.375 38.75Z" fill="white"/>
</svg>
