<svg width="64" height="64" viewBox="0 0 64 64" fill="none" xmlns="http://www.w3.org/2000/svg">
<rect width="64" height="64" rx="9" fill="#1F78E0" fill-opacity="0.8"/>
<path d="M19.7268 22.4211C19.407 22.1577 18.9344 22.2035 18.6711 22.5232C18.4077 22.843 18.4535 23.3156 18.7732 23.5789L31.5232 34.0789C31.8002 34.307 32.1998 34.307 32.4768 34.0789L45.2268 23.5789C45.5465 23.3156 45.5923 22.843 45.3289 22.5232C45.0656 22.2035 44.593 22.1577 44.2732 22.4211L32 32.5284L19.7268 22.4211Z" fill="white"/>
<path fill-rule="evenodd" clip-rule="evenodd" d="M17.75 18.875C16.3003 18.875 15.125 20.0503 15.125 21.5V42.5C15.125 43.9497 16.3003 45.125 17.75 45.125H46.25C47.6997 45.125 48.875 43.9497 48.875 42.5V21.5C48.875 20.0503 47.6997 18.875 46.25 18.875H17.75ZM17.375 21.5C17.375 21.2929 17.5429 21.125 17.75 21.125H46.25C46.4571 21.125 46.625 21.2929 46.625 21.5V42.5C46.625 42.7071 46.4571 42.875 46.25 42.875H17.75C17.5429 42.875 17.375 42.7071 17.375 42.5V21.5Z" fill="white"/>
</svg>
