<svg width="64" height="64" viewBox="0 0 64 64" fill="none" xmlns="http://www.w3.org/2000/svg">
<rect width="64" height="64" rx="8" fill="#1F78E0" fill-opacity="0.8"/>
<path d="M22.25 23H16.25V24.5H22.25V23Z" fill="white"/>
<path d="M22.25 39.5H16.25V41H22.25V39.5Z" fill="white"/>
<path d="M21.5 46.625C21.2929 46.625 21.125 46.4571 21.125 46.25V42.5H18.875V46.25C18.875 47.6997 20.0503 48.875 21.5 48.875H42.5C43.9497 48.875 45.125 47.6997 45.125 46.25V17.75C45.125 16.3003 43.9497 15.125 42.5 15.125H21.5C20.0503 15.125 18.875 16.3003 18.875 17.75V21.5H21.125V17.75C21.125 17.5429 21.2929 17.375 21.5 17.375H42.5C42.7071 17.375 42.875 17.5429 42.875 17.75V46.25C42.875 46.4571 42.7071 46.625 42.5 46.625H21.5Z" fill="white"/>
<path d="M18.875 26V38H21.125V26H18.875Z" fill="white"/>
<path fill-rule="evenodd" clip-rule="evenodd" d="M37.2477 33.5415C38.6131 34.7195 39.5 36.476 39.5 38.75V40.25L25.25 40.25V38.75C25.25 36.476 26.1369 34.7195 27.5023 33.5415C28.8522 32.3768 30.6274 31.8125 32.375 31.8125C34.1226 31.8125 35.8978 32.3768 37.2477 33.5415ZM28.4821 34.6772C27.4569 35.5617 26.75 36.8989 26.75 38.75L38 38.75C38 36.899 37.2931 35.5618 36.2679 34.6772C35.2272 33.7794 33.8149 33.3125 32.375 33.3125C30.9351 33.3125 29.5228 33.7794 28.4821 34.6772Z" fill="white"/>
<path fill-rule="evenodd" clip-rule="evenodd" d="M35.75 27.125C35.75 28.989 34.239 30.5 32.375 30.5C30.511 30.5 29 28.989 29 27.125C29 25.261 30.511 23.75 32.375 23.75C34.239 23.75 35.75 25.261 35.75 27.125ZM34.25 27.125C34.25 28.1605 33.4105 29 32.375 29C31.3395 29 30.5 28.1605 30.5 27.125C30.5 26.0895 31.3395 25.25 32.375 25.25C33.4105 25.25 34.25 26.0895 34.25 27.125Z" fill="white"/>
</svg>
