<svg width="96" height="96" viewBox="0 0 96 96" fill="none" xmlns="http://www.w3.org/2000/svg">
<path d="M28.2 33.6736C29.7268 31.9928 32.226 30.4 35.9 30.4C40.9688 30.4 44.2336 33.8848 45.382 37.7084C46.4952 41.4352 45.822 46.0464 42.654 49.2276C41.5552 50.284 40.3898 51.2687 39.1648 52.1756L38.9888 52.312C37.7568 53.2624 36.6568 54.1248 35.6888 55.084C34.5668 56.2104 33.6472 57.438 33.1148 59H42.5C43.3752 59 44.2146 59.3477 44.8334 59.9666C45.4523 60.5854 45.8 61.4248 45.8 62.3C45.8 63.1752 45.4523 64.0146 44.8334 64.6335C44.2146 65.2523 43.3752 65.6 42.5 65.6H29.3C28.4248 65.6 27.5854 65.2523 26.9665 64.6335C26.3477 64.0146 26 63.1752 26 62.3C26 56.8132 28.3056 53.1348 31.0336 50.4156C32.336 49.1132 33.7528 48.0176 34.9496 47.0892L34.9628 47.0804C36.2212 46.108 37.198 45.3512 37.9768 44.5724C39.1736 43.3668 39.5916 41.3824 39.0592 39.6004C38.5532 37.924 37.4312 37 35.9 37C34.3468 37 33.546 37.6028 33.084 38.1132C32.8137 38.4115 32.5937 38.7518 32.4328 39.1208V39.134C32.1632 39.9672 31.5737 40.6592 30.7939 41.0578C30.0142 41.4563 29.108 41.5288 28.2748 41.2592C27.4416 40.9897 26.7496 40.4001 26.351 39.6204C25.9525 38.8406 25.88 37.9344 26.1496 37.1012L26.3036 36.6788C26.7557 35.5752 27.3958 34.5584 28.1956 33.6736H28.2Z" fill="white"/>
<path d="M53.5002 30.4C54.3754 30.4 55.2148 30.7477 55.8336 31.3666C56.4525 31.9854 56.8002 32.8248 56.8002 33.7V45.8H63.4002V33.7C63.4002 32.8248 63.7479 31.9854 64.3667 31.3666C64.9856 30.7477 65.825 30.4 66.7002 30.4C67.5754 30.4 68.4148 30.7477 69.0337 31.3666C69.6525 31.9854 70.0002 32.8248 70.0002 33.7V62.168C70.0002 63.0432 69.6525 63.8826 69.0337 64.5015C68.4148 65.1203 67.5754 65.468 66.7002 65.468C65.825 65.468 64.9856 65.1203 64.3667 64.5015C63.7479 63.8826 63.4002 63.0432 63.4002 62.168V52.4H53.5002C52.625 52.4 51.7856 52.0523 51.1667 51.4335C50.5479 50.8146 50.2002 49.9752 50.2002 49.1V33.7C50.2002 32.8248 50.5479 31.9854 51.1667 31.3666C51.7856 30.7477 52.625 30.4 53.5002 30.4Z" fill="white"/>
<path d="M92 48C92 23.6988 72.3012 4 48 4C23.6988 4 4 23.6988 4 48C4 72.3012 23.6988 92 48 92C72.3012 92 92 72.3012 92 48ZM10.6 48C10.6 38.0809 14.5403 28.5681 21.5542 21.5542C28.5681 14.5403 38.0809 10.6 48 10.6C57.9191 10.6 67.4319 14.5403 74.4458 21.5542C81.4597 28.5681 85.4 38.0809 85.4 48C85.4 57.9191 81.4597 67.4319 74.4458 74.4458C67.4319 81.4597 57.9191 85.4 48 85.4C38.0809 85.4 28.5681 81.4597 21.5542 74.4458C14.5403 67.4319 10.6 57.9191 10.6 48V48Z" fill="white"/>
</svg>
