<svg width="72" height="84" viewBox="0 0 72 84" fill="none" xmlns="http://www.w3.org/2000/svg">
<path fill-rule="evenodd" clip-rule="evenodd" d="M34.6437 0.32285C35.4993 -0.107592 36.5001 -0.107618 37.3557 0.32278L67.4962 15.484C68.3672 15.9217 69.1286 16.5598 69.7215 17.3488C70.3143 18.1378 70.7227 19.0567 70.915 20.0341L70.9153 20.0353C73.0259 30.7831 72.0427 41.931 68.0861 52.1124C64.1295 62.2938 57.3715 71.0663 48.6406 77.3546L48.6395 77.3554L42.1955 81.9922C40.3799 83.2991 38.2176 84 36.0017 84C33.7858 84 31.6235 83.2991 29.8078 81.9922L23.3639 77.3554L23.363 77.3547C14.6313 71.067 7.87251 62.2947 3.9152 52.1133C-0.0421081 41.9318 -1.02597 30.7837 1.08421 20.0355L1.08488 20.0321C1.27802 19.0538 1.68757 18.1346 2.28178 17.3455C2.87535 16.5572 3.63726 15.9201 4.50852 15.4833C4.50944 15.4829 4.51036 15.4824 4.51128 15.482L34.6437 0.32285ZM35.9998 6.71147L7.21821 21.191L7.21293 21.1937C7.19322 21.2036 7.17597 21.218 7.16254 21.2358C7.14911 21.2536 7.13985 21.2744 7.13549 21.2965L4.11019 20.6643L7.13616 21.2931C5.26386 30.8297 6.13681 40.7211 9.648 49.7547C13.1592 58.7884 19.1561 66.5718 26.9034 72.1507L33.3468 76.7871L33.3472 76.7874C34.1253 77.3475 35.052 77.6479 36.0017 77.6479C36.9514 77.6479 37.8781 77.3475 38.6562 76.7874L38.6566 76.7871L45.0997 72.1508C52.8465 66.5714 58.8426 58.7879 62.3531 49.7542C65.8637 40.7206 66.7361 30.8295 64.8634 21.2933C64.8589 21.2716 64.8498 21.2513 64.8367 21.2338C64.8233 21.216 64.806 21.2015 64.7864 21.1916L64.7853 21.1911L35.9998 6.71147Z" fill="white"/>
</svg>
