<svg width="96" height="96" viewBox="0 0 96 96" fill="none" xmlns="http://www.w3.org/2000/svg">
<path d="M16 26.6667C16 25.1939 17.1939 24 18.6667 24C20.1394 24 21.3333 25.1939 21.3333 26.6667C21.3333 28.1394 20.1394 29.3333 18.6667 29.3333C17.1939 29.3333 16 28.1394 16 26.6667Z" fill="white"/>
<path d="M26.667 26.6667C26.667 25.1939 27.8609 24 29.3337 24H61.3337C62.8064 24 64.0003 25.1939 64.0003 26.6667C64.0003 28.1394 62.8064 29.3333 61.3337 29.3333H29.3337C27.8609 29.3333 26.667 28.1394 26.667 26.6667Z" fill="white"/>
<path d="M16 48C16 46.5273 17.1939 45.3334 18.6667 45.3334C20.1394 45.3334 21.3333 46.5273 21.3333 48C21.3333 49.4728 20.1394 50.6667 18.6667 50.6667C17.1939 50.6667 16 49.4728 16 48Z" fill="white"/>
<path d="M26.667 48C26.667 46.5273 27.8609 45.3334 29.3337 45.3334H61.3337C62.8064 45.3334 64.0003 46.5273 64.0003 48C64.0003 49.4728 62.8064 50.6667 61.3337 50.6667H29.3337C27.8609 50.6667 26.667 49.4728 26.667 48Z" fill="white"/>
<path d="M85.333 13.3334H10.6663C9.25185 13.3334 7.8953 13.8953 6.8951 14.8955C5.89491 15.8957 5.33301 17.2522 5.33301 18.6667V77.3334C5.33301 78.7479 5.89491 80.1044 6.8951 81.1046C7.8953 82.1048 9.25185 82.6667 10.6663 82.6667H85.333C86.7475 82.6667 88.104 82.1048 89.1042 81.1046C90.1044 80.1044 90.6663 78.7479 90.6663 77.3334V18.6667C90.6663 17.2522 90.1044 15.8957 89.1042 14.8955C88.104 13.8953 86.7475 13.3334 85.333 13.3334ZM10.6663 18.6667H85.333V34.6667H10.6663V18.6667ZM10.6663 40H85.333V56H10.6663V40ZM10.6663 77.3334V61.3334H85.333V77.3334H10.6663Z" fill="white"/>
<path d="M16 69.3333C16 67.8605 17.1939 66.6666 18.6667 66.6666C20.1394 66.6666 21.3333 67.8605 21.3333 69.3333C21.3333 70.8061 20.1394 72 18.6667 72C17.1939 72 16 70.8061 16 69.3333Z" fill="white"/>
<path d="M26.667 69.3333C26.667 67.8605 27.8609 66.6666 29.3337 66.6666H61.3337C62.8064 66.6666 64.0003 67.8605 64.0003 69.3333C64.0003 70.8061 62.8064 72 61.3337 72H29.3337C27.8609 72 26.667 70.8061 26.667 69.3333Z" fill="white"/>
</svg>
