<svg width="52" height="52" viewBox="0 0 52 52" fill="none" xmlns="http://www.w3.org/2000/svg">
<path d="M46.5833 8.66699H41.8889V11.5559H46.2222V43.3337H5.77775V11.5559H10.1111V8.66699H5.41664C5.07898 8.67264 4.74574 8.74474 4.43596 8.87919C4.12617 9.01364 3.84591 9.20781 3.61117 9.45059C3.37644 9.69337 3.19183 9.98002 3.06789 10.2942C2.94396 10.6083 2.88312 10.9438 2.88886 11.2814V43.6081C2.88312 43.9458 2.94396 44.2812 3.06789 44.5954C3.19183 44.9095 3.37644 45.1962 3.61117 45.4389C3.84591 45.6817 4.12617 45.8759 4.43596 46.0103C4.74574 46.1448 5.07898 46.2169 5.41664 46.2225H46.5833C46.921 46.2169 47.2542 46.1448 47.564 46.0103C47.8738 45.8759 48.154 45.6817 48.3888 45.4389C48.6235 45.1962 48.8081 44.9095 48.932 44.5954C49.056 44.2812 49.1168 43.9458 49.1111 43.6081V11.2814C49.1168 10.9438 49.056 10.6083 48.932 10.2942C48.8081 9.98002 48.6235 9.69337 48.3888 9.45059C48.154 9.20781 47.8738 9.01364 47.564 8.87919C47.2542 8.74474 46.921 8.67264 46.5833 8.66699Z" fill="url(#paint0_linear_89_314)"/>
<path d="M11.5555 21.6671C11.5555 20.8694 12.2022 20.2227 13 20.2227C13.7977 20.2227 14.4444 20.8694 14.4444 21.6671C14.4444 22.4648 13.7977 23.1115 13 23.1115C12.2022 23.1115 11.5555 22.4648 11.5555 21.6671Z" fill="url(#paint1_linear_89_314)"/>
<path d="M20.2222 21.6671C20.2222 20.8694 20.8689 20.2227 21.6667 20.2227C22.4644 20.2227 23.1111 20.8694 23.1111 21.6671C23.1111 22.4648 22.4644 23.1115 21.6667 23.1115C20.8689 23.1115 20.2222 22.4648 20.2222 21.6671Z" fill="url(#paint2_linear_89_314)"/>
<path d="M28.8889 21.6671C28.8889 20.8694 29.5356 20.2227 30.3333 20.2227C31.131 20.2227 31.7777 20.8694 31.7777 21.6671C31.7777 22.4648 31.131 23.1115 30.3333 23.1115C29.5356 23.1115 28.8889 22.4648 28.8889 21.6671Z" fill="url(#paint3_linear_89_314)"/>
<path d="M37.5555 21.6671C37.5555 20.8694 38.2022 20.2227 39 20.2227C39.7977 20.2227 40.4444 20.8694 40.4444 21.6671C40.4444 22.4648 39.7977 23.1115 39 23.1115C38.2022 23.1115 37.5555 22.4648 37.5555 21.6671Z" fill="url(#paint4_linear_89_314)"/>
<path d="M11.5555 28.8888C11.5555 28.091 12.2022 27.4443 13 27.4443C13.7977 27.4443 14.4444 28.091 14.4444 28.8888C14.4444 29.6865 13.7977 30.3332 13 30.3332C12.2022 30.3332 11.5555 29.6865 11.5555 28.8888Z" fill="url(#paint5_linear_89_314)"/>
<path d="M20.2222 28.8888C20.2222 28.091 20.8689 27.4443 21.6667 27.4443C22.4644 27.4443 23.1111 28.091 23.1111 28.8888C23.1111 29.6865 22.4644 30.3332 21.6667 30.3332C20.8689 30.3332 20.2222 29.6865 20.2222 28.8888Z" fill="url(#paint6_linear_89_314)"/>
<path d="M28.8889 28.8888C28.8889 28.091 29.5356 27.4443 30.3333 27.4443C31.131 27.4443 31.7777 28.091 31.7777 28.8888C31.7777 29.6865 31.131 30.3332 30.3333 30.3332C29.5356 30.3332 28.8889 29.6865 28.8889 28.8888Z" fill="url(#paint7_linear_89_314)"/>
<path d="M37.5555 28.8888C37.5555 28.091 38.2022 27.4443 39 27.4443C39.7977 27.4443 40.4444 28.091 40.4444 28.8888C40.4444 29.6865 39.7977 30.3332 39 30.3332C38.2022 30.3332 37.5555 29.6865 37.5555 28.8888Z" fill="url(#paint8_linear_89_314)"/>
<path d="M11.5555 36.1114C11.5555 35.3137 12.2022 34.667 13 34.667C13.7977 34.667 14.4444 35.3137 14.4444 36.1114C14.4444 36.9092 13.7977 37.5559 13 37.5559C12.2022 37.5559 11.5555 36.9092 11.5555 36.1114Z" fill="url(#paint9_linear_89_314)"/>
<path d="M20.2222 36.1114C20.2222 35.3137 20.8689 34.667 21.6667 34.667C22.4644 34.667 23.1111 35.3137 23.1111 36.1114C23.1111 36.9092 22.4644 37.5559 21.6667 37.5559C20.8689 37.5559 20.2222 36.9092 20.2222 36.1114Z" fill="url(#paint10_linear_89_314)"/>
<path d="M28.8889 36.1114C28.8889 35.3137 29.5356 34.667 30.3333 34.667C31.131 34.667 31.7777 35.3137 31.7777 36.1114C31.7777 36.9092 31.131 37.5559 30.3333 37.5559C29.5356 37.5559 28.8889 36.9092 28.8889 36.1114Z" fill="url(#paint11_linear_89_314)"/>
<path d="M37.5555 36.1114C37.5555 35.3137 38.2022 34.667 39 34.667C39.7977 34.667 40.4444 35.3137 40.4444 36.1114C40.4444 36.9092 39.7977 37.5559 39 37.5559C38.2022 37.5559 37.5555 36.9092 37.5555 36.1114Z" fill="url(#paint12_linear_89_314)"/>
<path d="M14.4444 14.4442C14.8275 14.4442 15.1949 14.292 15.4658 14.0212C15.7367 13.7503 15.8889 13.3829 15.8889 12.9998V4.33312C15.8889 3.95003 15.7367 3.58263 15.4658 3.31174C15.1949 3.04085 14.8275 2.88867 14.4444 2.88867C14.0614 2.88867 13.694 3.04085 13.4231 3.31174C13.1522 3.58263 13 3.95003 13 4.33312V12.9998C13 13.3829 13.1522 13.7503 13.4231 14.0212C13.694 14.292 14.0614 14.4442 14.4444 14.4442Z" fill="url(#paint13_linear_89_314)"/>
<path d="M37.5555 14.4442C37.9386 14.4442 38.306 14.292 38.5769 14.0212C38.8478 13.7503 39 13.3829 39 12.9998V4.33312C39 3.95003 38.8478 3.58263 38.5769 3.31174C38.306 3.04085 37.9386 2.88867 37.5555 2.88867C37.1724 2.88867 36.805 3.04085 36.5342 3.31174C36.2633 3.58263 36.1111 3.95003 36.1111 4.33312V12.9998C36.1111 13.3829 36.2633 13.7503 36.5342 14.0212C36.805 14.292 37.1724 14.4442 37.5555 14.4442Z" fill="url(#paint14_linear_89_314)"/>
<path d="M18.7778 8.66699H33.2222V11.5559H18.7778V8.66699Z" fill="url(#paint15_linear_89_314)"/>
<defs>
<linearGradient id="paint0_linear_89_314" x1="2.88849" y1="14.2801" x2="49.1115" y2="14.2801" gradientUnits="userSpaceOnUse">
<stop stop-color="#1F78E0"/>
<stop offset="1" stop-color="#00C2FF"/>
</linearGradient>
<linearGradient id="paint1_linear_89_314" x1="11.5555" y1="20.6544" x2="14.4444" y2="20.6544" gradientUnits="userSpaceOnUse">
<stop stop-color="#1F78E0"/>
<stop offset="1" stop-color="#00C2FF"/>
</linearGradient>
<linearGradient id="paint2_linear_89_314" x1="20.2222" y1="20.6544" x2="23.1111" y2="20.6544" gradientUnits="userSpaceOnUse">
<stop stop-color="#1F78E0"/>
<stop offset="1" stop-color="#00C2FF"/>
</linearGradient>
<linearGradient id="paint3_linear_89_314" x1="28.8889" y1="20.6544" x2="31.7777" y2="20.6544" gradientUnits="userSpaceOnUse">
<stop stop-color="#1F78E0"/>
<stop offset="1" stop-color="#00C2FF"/>
</linearGradient>
<linearGradient id="paint4_linear_89_314" x1="37.5555" y1="20.6544" x2="40.4444" y2="20.6544" gradientUnits="userSpaceOnUse">
<stop stop-color="#1F78E0"/>
<stop offset="1" stop-color="#00C2FF"/>
</linearGradient>
<linearGradient id="paint5_linear_89_314" x1="11.5555" y1="27.8761" x2="14.4444" y2="27.8761" gradientUnits="userSpaceOnUse">
<stop stop-color="#1F78E0"/>
<stop offset="1" stop-color="#00C2FF"/>
</linearGradient>
<linearGradient id="paint6_linear_89_314" x1="20.2222" y1="27.8761" x2="23.1111" y2="27.8761" gradientUnits="userSpaceOnUse">
<stop stop-color="#1F78E0"/>
<stop offset="1" stop-color="#00C2FF"/>
</linearGradient>
<linearGradient id="paint7_linear_89_314" x1="28.8889" y1="27.8761" x2="31.7777" y2="27.8761" gradientUnits="userSpaceOnUse">
<stop stop-color="#1F78E0"/>
<stop offset="1" stop-color="#00C2FF"/>
</linearGradient>
<linearGradient id="paint8_linear_89_314" x1="37.5555" y1="27.8761" x2="40.4444" y2="27.8761" gradientUnits="userSpaceOnUse">
<stop stop-color="#1F78E0"/>
<stop offset="1" stop-color="#00C2FF"/>
</linearGradient>
<linearGradient id="paint9_linear_89_314" x1="11.5555" y1="35.0988" x2="14.4444" y2="35.0988" gradientUnits="userSpaceOnUse">
<stop stop-color="#1F78E0"/>
<stop offset="1" stop-color="#00C2FF"/>
</linearGradient>
<linearGradient id="paint10_linear_89_314" x1="20.2222" y1="35.0988" x2="23.1111" y2="35.0988" gradientUnits="userSpaceOnUse">
<stop stop-color="#1F78E0"/>
<stop offset="1" stop-color="#00C2FF"/>
</linearGradient>
<linearGradient id="paint11_linear_89_314" x1="28.8889" y1="35.0988" x2="31.7777" y2="35.0988" gradientUnits="userSpaceOnUse">
<stop stop-color="#1F78E0"/>
<stop offset="1" stop-color="#00C2FF"/>
</linearGradient>
<linearGradient id="paint12_linear_89_314" x1="37.5555" y1="35.0988" x2="40.4444" y2="35.0988" gradientUnits="userSpaceOnUse">
<stop stop-color="#1F78E0"/>
<stop offset="1" stop-color="#00C2FF"/>
</linearGradient>
<linearGradient id="paint13_linear_89_314" x1="13" y1="4.61577" x2="15.8889" y2="4.61577" gradientUnits="userSpaceOnUse">
<stop stop-color="#1F78E0"/>
<stop offset="1" stop-color="#00C2FF"/>
</linearGradient>
<linearGradient id="paint14_linear_89_314" x1="36.1111" y1="4.61577" x2="39" y2="4.61577" gradientUnits="userSpaceOnUse">
<stop stop-color="#1F78E0"/>
<stop offset="1" stop-color="#00C2FF"/>
</linearGradient>
<linearGradient id="paint15_linear_89_314" x1="18.7778" y1="9.09877" x2="33.2222" y2="9.09877" gradientUnits="userSpaceOnUse">
<stop stop-color="#1F78E0"/>
<stop offset="1" stop-color="#00C2FF"/>
</linearGradient>
</defs>
</svg>
