<svg width="52" height="52" viewBox="0 0 52 52" fill="none" xmlns="http://www.w3.org/2000/svg">
<path fill-rule="evenodd" clip-rule="evenodd" d="M33.6676 38.0374V39.1207H17.5676L17.3116 38.4C17.0075 37.5442 16.5167 36.7668 15.8746 36.1244C15.2325 35.482 14.4554 34.9907 13.5997 34.6861L12.8796 34.4299V17.5708L13.5997 17.3145C14.4554 17.01 15.2325 16.5187 15.8746 15.8763C16.5167 15.2339 17.0075 14.4565 17.3116 13.6006L17.5676 12.88H34.4295L34.6858 13.6001C34.9903 14.4558 35.4817 15.2329 36.1241 15.8749C36.7665 16.517 37.5438 17.0079 38.3997 17.3119L39.1204 17.5679V34.4299L38.4003 34.6861C37.5446 34.9907 36.7675 35.482 36.1254 36.1244C35.4834 36.7668 34.9925 37.5442 34.6884 38.4L33.6676 38.0374ZM45.4484 36.9191C46.1806 37.9499 46.5761 39.1819 46.5809 40.4462C46.5802 43.8288 43.8255 46.5832 40.4428 46.5837C39.1789 46.5793 37.9473 46.1839 36.917 45.4519C35.8859 44.7193 35.107 43.6856 34.6871 42.4925L34.4324 41.7688H17.565L17.3104 42.4928C16.8908 43.6859 16.112 44.7198 15.0809 45.4523C14.0506 46.1843 12.819 46.5795 11.5552 46.5837C8.17244 46.5835 5.41768 43.8292 5.41667 40.4466C5.42141 39.1822 5.81696 37.95 6.54918 36.9191C7.28175 35.8876 8.31545 35.108 9.50854 34.6871L10.2315 34.4321V17.5689L9.51202 17.3123C7.12591 16.4615 5.41667 14.2088 5.41667 11.5559C5.41667 8.17285 8.17118 5.41783 11.554 5.41699C12.8183 5.42089 14.0503 5.81608 15.0809 6.54833C16.112 7.28086 16.8908 8.31475 17.3104 9.50789L17.565 10.2318H34.435L34.6896 9.50789C35.1092 8.31475 35.888 7.28086 36.9191 6.54833C37.9497 5.81608 39.1818 5.42089 40.446 5.41699C43.8284 5.41783 46.5827 8.17219 46.5833 11.5547C46.5786 12.8192 46.1829 14.0514 45.4504 15.0822C44.7175 16.1137 43.6832 16.8931 42.4897 17.3133L41.7661 17.568V34.4321L42.4891 34.6871C43.6822 35.108 44.7159 35.8876 45.4484 36.9191ZM11.604 36.9551L11.5556 36.9529L11.5071 36.9551C10.6086 36.9953 9.76025 37.3805 9.13863 38.0306C8.51702 38.6806 8.1701 39.5454 8.1701 40.4448C8.1701 41.3442 8.51702 42.2089 9.13863 42.859C9.76025 43.509 10.6086 43.8942 11.5071 43.9344L11.5556 42.8522L11.604 43.9344C12.5025 43.8942 13.3509 43.509 13.9725 42.859C14.5941 42.2089 14.941 41.3442 14.941 40.4448C14.941 39.5454 14.5941 38.6806 13.9725 38.0306C13.3509 37.3805 12.5025 36.9953 11.604 36.9551ZM40.4929 36.9551L40.4445 36.9529L40.396 36.9551C39.4975 36.9953 38.6491 37.3805 38.0275 38.0306C37.4059 38.6806 37.059 39.5454 37.059 40.4448C37.059 41.3442 37.4059 42.2089 38.0275 42.859C38.6491 43.509 39.4975 43.8942 40.396 43.9344L40.4445 42.8522L40.4929 43.9344C41.3914 43.8942 42.2398 43.509 42.8614 42.859C43.483 42.2089 43.8299 41.3442 43.8299 40.4448C43.8299 39.5454 43.483 38.6806 42.8614 38.0306C42.2398 37.3805 41.3914 36.9953 40.4929 36.9551ZM42.3854 8.65239C41.8105 8.26892 41.1349 8.06455 40.4439 8.06514C38.5166 8.06545 36.9543 9.6314 36.9537 11.5548C36.953 12.246 37.1574 12.9218 37.541 13.4968C37.9245 14.0718 38.47 14.52 39.1085 14.7849C39.7469 15.0497 40.4496 15.1192 41.1275 14.9845C41.8054 14.8498 42.4282 14.5171 42.9169 14.0283C43.4056 13.5396 43.7384 12.9168 43.8731 12.2389C44.0077 11.561 43.9383 10.8583 43.6734 10.2199C43.4086 9.58147 42.9604 9.03595 42.3854 8.65239ZM13.4965 8.65239C12.9216 8.26892 12.246 8.06455 11.555 8.06514C9.62735 8.06545 8.06482 9.63091 8.06482 11.5548C8.06413 12.246 8.2685 12.9218 8.65207 13.4968C9.03563 14.0718 9.58115 14.52 10.2196 14.7849C10.858 15.0497 11.5607 15.1192 12.2386 14.9845C12.9165 14.8498 13.5393 14.5171 14.028 14.0283C14.5167 13.5396 14.8495 12.9168 14.9842 12.2389C15.1188 11.561 15.0494 10.8583 14.7845 10.2199C14.5197 9.58148 14.0715 9.03595 13.4965 8.65239Z" fill="url(#paint0_linear_89_340)"/>
<defs>
<linearGradient id="paint0_linear_89_340" x1="5.41667" y1="11.5698" x2="46.5833" y2="11.5698" gradientUnits="userSpaceOnUse">
<stop stop-color="#1F78E0"/>
<stop offset="1" stop-color="#00C2FF"/>
</linearGradient>
</defs>
</svg>
