<svg width="499" height="315" fill="none" xmlns="http://www.w3.org/2000/svg"><g clip-path="url(#clip0_173_12167)"><path d="M201.49 26.54l-10.47-7.42L157.91 0 24.63 11.33.11 25.58 0 63.26l3.49 2.02v.04l3.49 1.99v.04l3.49 1.98v.04l3.55 1.98 13.28 7.67-.1 35.8 32.04 18.5 10.47 4.03 29.65-16.72 8.68 5.01 10.47 4.25 23.64-13.33.05-20.09 59.19-33.37.1-36.56zm120.521 156.48l-24.52 14.25-.11 37.68 3.49 2.02v.04l3.49 1.99v.05l3.49 1.97v.04l3.55 1.99 13.28 7.66-.1 35.8 32.05 18.5 10.47 4.03 29.65-16.72 8.67 5.01 10.47 4.25 23.64-13.33.06-20.09 59.18-33.37.11-36.56-10.47-7.42-33.12-19.12-133.28 11.33zm-18.841 6.4l.51-.3 3.1-1.86 1.19-.75c.76-.47 1.51-.94 2.24-1.41l1.29-.84c.67-.43 1.32-.87 2-1.3l1.27-.87c.62-.42 1.23-.85 1.83-1.27l1.19-.85 1.75-1.29 1.08-.81 1.78-1.4.85-.68c.85-.69 1.67-1.37 2.45-2.06l1-.83c.37-.33.71-.66 1.06-1l.49-.46c.68-.64 1.32-1.28 1.93-1.92.14-.14.27-.29.4-.43.47-.51.93-1 1.36-1.52.17-.19.34-.39.5-.59l.42-.49c.35-.43.68-.85 1-1.28l.14-.19c.49-.66.95-1.32 1.37-2 .24-.38.48-.76.7-1.14.1-.17.18-.35.28-.52.1-.17.31-.57.45-.86.14-.29.38-.77.56-1.15.18-.38.25-.56.36-.84.11-.28.12-.27.17-.4.18-.45.33-.89.48-1.34.193-.62.353-1.24.48-1.86 0-.07.05-.15.07-.23.02-.08 0-.23.05-.35.06-.29.1-.58.14-.86.04-.28.06-.43.08-.65.02-.22.05-.58.07-.87.02-.29 0-.27 0-.41v-.47l.1-36.56v1.18a18.73 18.73 0 00-3.26-11.74c-3.4-5.24-9.86-10.53-19.38-15.87-1.48-.82-3-1.59-4.45-2.34-1.16-.64-2.32-1.26-3.49-1.85-1.17-.59-2.32-1.27-3.49-1.87a97.854 97.854 0 00-26.64-10.38 90.998 90.998 0 00-29-1.66 121.511 121.511 0 00-30.26 7.15 215.11 215.11 0 00-32.51 15.72c-11.293 6.56-20.243 12.823-26.85 18.79-6.607 5.967-10.773 11.78-12.5 17.44a19.202 19.202 0 00-.84 6v-.41l-.11 37.69a20.126 20.126 0 003.56 11.16c3.533 5.413 9.947 10.787 19.24 16.12 1.18.68 2.36 1.34 3.54 2l1.16.59c.79.41 1.59.82 2.39 1.21.46.23.93.43 1.4.65.71.34 1.43.68 2.14 1 .51.23 1 .43 1.52.64.68.28 1.35.58 2 .84l.14.06c.24.1.48.17.72.27 1 .39 2 .77 3.06 1.12l1.36.45 2.59.81.72.22 1.19.32.95.25c1.05.27 2.11.53 3.16.76l.88.18c.75.16 1.49.3 2.24.43l.47.09c.953.167 1.903.317 2.85.45h.17l.47.08a59.85 59.85 0 002.85.45h.17l.47.09 2.85.45a.965.965 0 01.17 0l.47.08c1 .17 1.92.32 2.89.45h.34l.79.1c.82.1 1.64.19 2.47.27l.94.09.67.06c.76.07 1.53.11 2.29.16h.23c.88.05 1.76.08 2.64.1h5.46c.66 0 1.32-.06 2-.1h.88c1.08-.07 2.16-.15 3.24-.26h.25c1.273-.127 2.553-.277 3.84-.45l1.29-.2c.86-.13 1.72-.25 2.58-.4l.32-.05 1.42-.27 2-.39 1.78-.4c.67-.15 1.35-.29 2-.46l1.8-.45 2-.53 1.83-.52 2-.61.56-.16 1.8-.59 1.16-.37c1.2-.41 2.41-.82 3.61-1.27a219.81 219.81 0 0032.69-15.24c1.333-.76 2.64-1.513 3.92-2.26v.04zm36.09-73.21c0 .21-.05.43-.08.64-.03.21-.09.58-.14.87v.09c.109-.532.189-1.07.24-1.61l-.02.01zm-.32 2.09zm-190.26 24.77c-.11-.22-.19-.44-.28-.66.16.38.33.76.53 1.13-.09-.16-.18-.31-.25-.47z" fill="#D6D8E5"/><path d="M126.611 19.43l-.11 37.68-78.19 6.66.11-37.68 78.19-6.66z" fill="#653AB8"/><path d="M58.26 59.15l-.11 37.68L0 63.26l.11-37.68 58.15 33.57z" fill="#4B2B89"/><path d="M191.02 19.12l-.1 37.68-77.09 44.8.11-37.69 77.08-44.79z" fill="#6C3EC5"/><path d="M108.139 87.95l-.1 37.69-17.85-10.31.11-37.68 17.84 10.3z" fill="#4B2B89"/><path d="M131.779 74.22l-.1 37.68-23.64 13.74.1-37.69 23.64-13.73z" fill="#6C3EC5"/><path d="M59.35 95.64l-.11 37.68-32.04-18.5.1-37.68 32.05 18.5z" fill="#4B2B89"/><path d="M90.3 77.65l-.11 37.68-30.95 17.99.11-37.68L90.3 77.65z" fill="#6C3EC5"/><path d="M113.939 63.92l17.84 10.3-23.63 13.74-17.85-10.32-30.95 18-32-18.5 31-18L.11 25.58l24.52-14.25L157.88 0 191 19.12l-77.06 44.8zm-32-18.5l44.71-26-78.19 6.66 33.42 19.34" fill="#7945DC"/><path d="M281.931 96.64c-.47-.27-.95-.52-1.43-.76l-.44-.2c-.36-.17-.72-.33-1.09-.48l-.27-.12-.16-.05c-.65-.25-1.32-.48-2-.68l-.15-.05-.28-.07c-.43-.12-.87-.23-1.32-.32l-.28-.07h-.14a34.61 34.61 0 00-1.56-.27c-.52-.08-1-.13-1.59-.18h-.5l-1.17-.07h-2.47c-.7 0-1.41.05-2.13.15h-.14l-.58.07-.88.1-.79.12-.9.14-.25.05h-.28c-.86.16-1.72.34-2.61.56-.63.15-1.29.32-2 .51l-.65.2-1.42.42-.3.1-.33.11c-1 .32-2 .66-3.05 1.05l-.2.08c-1 .38-2.09.8-3.18 1.24l-.5.2c-1.1.46-2.24 1-3.4 1.46l-.69.31c-1.18.53-2.38 1.09-3.62 1.68l-.51.25c-1.22.586-2.47 1.206-3.75 1.86l-.39.19c-1.32.68-2.69 1.4-4.08 2.14l-.8.43a185.09 185.09 0 00-4.21 2.3l-.76.43c-1.52.85-3.05 1.72-4.63 2.64l-2.8 1.65-.87.52-1.53.92-.22.13c-1.05.64-2.08 1.27-3.07 1.89l-.57.36-2.33 1.48-.9.59-1.88 1.26-.83.56c-.74.49-1.44 1-2.13 1.47l-.33.23c-.78.55-1.52 1.09-2.24 1.62l-.6.46-1.48 1.13-.65.52-1.33 1.09-.5.42c-.56.48-1.1 1-1.61 1.42-.38.36-.74.7-1.09 1.05l-.27.27-.75.78-.33.37-.58.66-.3.37-.2.24a17.681 17.681 0 00-1.01 1.4l-.17.28-.28.47c-.14.26-.28.52-.4.78l-.1.22c-.08.19-.16.37-.23.55v.08a9.19 9.19 0 00-.36 1.26 6.886 6.886 0 00-.13 1.09v.1c-.005.06-.005.12 0 .18l-.1 37.68v-.28c.019-.366.063-.73.13-1.09.087-.433.211-.858.37-1.27a.94.94 0 010-.13l.23-.54c0-.07.06-.15.1-.23.12-.26.26-.52.41-.78.15-.26.2-.35.31-.52.11-.17.09-.16.15-.24.16-.25.34-.51.52-.77s.44-.58.68-.87c.1-.13.2-.25.31-.37.11-.12.37-.44.57-.66l.33-.37.76-.78.26-.27c.36-.36.74-.72 1.14-1.08.5-.47 1-.94 1.61-1.43l.5-.42c.42-.36.86-.72 1.33-1.09l.64-.51c.48-.38 1-.76 1.48-1.14l.6-.45c.72-.54 1.46-1.08 2.24-1.63l.33-.1c.68-.48 1.38-1 2.11-1.46l.83-.56 1.88-1.25.9-.58 2.34-1.49.56-.36c1-.62 2-1.25 3.08-1.89l1.71-1 .91-.55 2.8-1.64a358.19 358.19 0 014.62-2.63l.76-.44c1.44-.8 2.84-1.57 4.22-2.3l.8-.43c1.39-.74 2.75-1.46 4.08-2.14l.4-.28a101.47 101.47 0 013.75-1.86l.51-.25c1.24-.587 2.45-1.147 3.63-1.68l.68-.31c1.17-.51 2.3-1 3.4-1.46l.5-.2c1.09-.44 2.16-.86 3.18-1.24l.21-.08c1.05-.38 2.06-.73 3.05-1l.62-.2c.48-.16.95-.3 1.42-.43l.66-.2c.67-.18 1.33-.36 2-.51.88-.22 1.75-.39 2.6-.55l.54-.1.89-.15.79-.12.88-.1.72-.08c.73-.07 1.44-.12 2.14-.15h2.41c.4 0 .79.02 1.17.06h.5c.54 0 1.07.1 1.6.18.52.08 1 .17 1.55.27l.43.1c.44.1.88.2 1.31.32l.44.12c.68.2 1.34.43 2 .68l.43.17c.36.146.72.307 1.08.48.15.07.3.13.44.21.493.226.973.476 1.44.75 4 2.313 6 4.947 6 7.9l.1-37.68c0-2.96-2-5.594-6-7.9" fill="#512E94"/><path d="M328.881 110.69c0 .3-.02.6-.06.9 0 .22-.05.44-.08.66-.03.22-.09.6-.14.9l-.12.59a19.494 19.494 0 01-.49 1.92c-.18.59-.41 1.19-.64 1.79a45.594 45.594 0 01-.92 2.05l-.46.89a35.386 35.386 0 01-2.34 3.75l-.14.2c-.44.6-.92 1.21-1.41 1.82l-.5.61c-.44.52-.89 1-1.36 1.56l-.4.45c-.62.66-1.26 1.32-1.93 2l-.49.47c-.65.63-1.31 1.25-2 1.88-.69.63-1.61 1.41-2.45 2.12l-.85.69c-.59.48-1.18 1-1.79 1.45l-1.07.83-1.75 1.33-1.2.88-1.83 1.32-1.26.89-2 1.34-1.28.86-2.25 1.46c-.39.26-.78.51-1.19.76-1 .64-2.05 1.29-3.1 1.93l-.5.31c-1.294.78-2.627 1.567-4 2.36a218.827 218.827 0 01-32.56 15.73c-1.21.45-2.41.88-3.61 1.3l-1.16.39-2.36.77-2.05.62-1.82.54-2 .55c-.61.15-1.21.32-1.81.46-.6.14-1.35.33-2 .48-.65.15-1.19.28-1.78.4-.59.12-1.35.27-2 .41l-1.85.33-2.6.42-1.28.19c-1.28.18-2.56.34-3.84.47-1.28.13-2.32.21-3.48.29h-.89c-.84.05-1.68.09-2.52.11h-4.4c-1.06 0-2.12 0-3.18-.11h-.23c-1-.06-2-.14-3-.22l-.95-.1c-.82-.08-1.64-.17-2.46-.28l-.79-.1a90.63 90.63 0 01-3.24-.5l-.45-.09c-1.05-.19-2.09-.39-3.13-.61-1.04-.22-2.11-.49-3.17-.76l-.94-.25-1.91-.55c-.86-.25-1.73-.52-2.59-.8l-1.36-.45c-1-.36-2.05-.73-3.07-1.13-.28-.11-.57-.2-.86-.32-.67-.26-1.34-.56-2-.84l-1.52-.64c-.71-.31-1.42-.65-2.13-1l-1.42-.66c-.79-.39-1.58-.8-2.38-1.21l-1.16-.6a67.32 67.32 0 01-3.55-2c-9.287-5.373-15.7-10.763-19.24-16.17a23.066 23.066 0 01-1.56-2.75 18.991 18.991 0 01-2-8.42l-.11 37.69a20.126 20.126 0 003.56 11.16c3.606 5.487 10.056 10.897 19.35 16.23 1.18.68 2.36 1.34 3.54 2l1.16.59c.79.41 1.59.82 2.39 1.21.46.23.93.43 1.4.65.71.34 1.43.68 2.14 1l1.52.64c.68.28 1.35.58 2 .84l.14.06c.24.1.48.17.72.26 1 .4 2 .78 3.06 1.13l1.36.45c.87.28 1.73.55 2.59.8l.72.23 1.19.32.95.25c1.05.27 2.11.53 3.16.76l.88.18c.75.16 1.49.3 2.24.43l.47.09c1 .17 1.92.32 2.89.46h.34l.79.1c.82.11 1.64.2 2.47.29l.94.09.67.06c.76.07 1.53.11 2.29.16h.23c.88.05 1.76.09 2.64.11h5.46c.66 0 1.32-.06 2-.1h.88c1.08-.07 2.16-.16 3.24-.26h.25c1.27-.13 2.55-.29 3.83-.46l1.3-.21c.86-.13 1.71-.26 2.58-.41l.32-.05 1.42-.28c.68-.14 1.35-.26 2-.41.65-.15 1.18-.26 1.78-.4l2-.47 1.8-.47 2-.55c.61-.17 1.22-.36 1.82-.54.6-.18 1.37-.4 2-.62l.56-.17 1.8-.6 1.16-.39c1.2-.42 2.4-.85 3.61-1.3a218.889 218.889 0 0032.57-15.73c1.333-.78 2.64-1.557 3.92-2.33h.05l.51-.31 3.1-1.92 1.19-.77 2.24-1.45 1.29-.87c.67-.45 1.32-.89 2-1.34l1.28-.89c.62-.44 1.23-.88 1.82-1.32.41-.29.81-.58 1.2-.88.6-.44 1.17-.88 1.75-1.33l1.08-.83c.61-.48 1.19-1 1.78-1.44l.85-.7c.85-.71 1.67-1.42 2.45-2.12l.95-.86c.37-.34.71-.68 1.06-1l.49-.47c.68-.66 1.32-1.32 1.93-2l.4-.45c.47-.52.93-1 1.36-1.56l.5-.61c.14-.17.29-.34.42-.51.35-.44.67-.87 1-1.31l.14-.2c.49-.68.95-1.36 1.37-2 .24-.39.48-.78.7-1.17.1-.19.18-.36.28-.54.1-.18.31-.59.45-.88.14-.29.38-.8.55-1.2.17-.4.26-.57.37-.86.11-.29.12-.27.17-.41.18-.46.33-.92.47-1.38.2-.64.36-1.28.49-1.91.024-.079.044-.159.06-.24 0-.12 0-.24.06-.36.06-.3.1-.6.14-.9.04-.3.06-.44.08-.66.02-.22.05-.6.07-.9v-.91l.1-37.68v.91" fill="#492A85"/><path d="M315.36 133.11c-6.667 5.96-15.494 12.136-26.48 18.53a218.926 218.926 0 01-32.56 15.73 120.137 120.137 0 01-30.14 7.33 90.782 90.782 0 01-28.62-1.56 97.526 97.526 0 01-28.08-11.15c-9.287-5.373-15.7-10.764-19.24-16.17-3.54-5.407-4.44-10.987-2.7-16.74 1.726-5.667 5.893-11.48 12.5-17.44 6.606-5.96 15.553-12.224 26.84-18.79a215.066 215.066 0 0132.51-15.76 121.52 121.52 0 0130.26-7.15 91.002 91.002 0 0129 1.66 98.015 98.015 0 0127.53 10.95c9.526 5.5 15.99 10.95 19.39 16.35a19.374 19.374 0 012.39 16.74c-1.74 5.667-5.94 11.483-12.6 17.45v.02zm-98 16.79c9.386-2.314 22.136-8.15 38.25-17.51 16.233-9.433 26.28-16.83 30.14-22.19 3.86-5.36 2.586-9.88-3.82-13.56-6.32-3.653-14.124-4.36-23.41-2.12-9.287 2.24-22.097 8.106-38.43 17.6-16 9.293-25.974 16.667-29.92 22.12-3.947 5.453-2.757 10.003 3.57 13.65 6.34 3.66 14.206 4.326 23.6 2" fill="#7945DC"/><path d="M423.989 191.12l-.11 37.68-78.18 6.67.11-37.68 78.18-6.67z" fill="#653AB8"/><path d="M355.641 230.84l-.11 37.69-58.14-33.57.11-37.68 58.14 33.56z" fill="#4B2B89"/><path d="M488.411 190.81l-.11 37.69-77.09 44.79.11-37.68 77.09-44.8z" fill="#6C3EC5"/><path d="M405.53 259.65l-.11 37.68-17.84-10.3.1-37.68 17.85 10.3z" fill="#4B2B89"/><path d="M429.17 245.91l-.11 37.68-23.64 13.74.11-37.68 23.64-13.74z" fill="#6C3EC5"/><path d="M356.73 267.33l-.1 37.68-32.05-18.5.11-37.68 32.04 18.5z" fill="#4B2B89"/><path d="M387.679 249.35l-.1 37.68-30.96 17.98.11-37.68 30.95-17.98z" fill="#6C3EC5"/><path d="M411.33 235.64l17.84 10.31-23.64 13.69-17.84-10.3-30.95 18-32.05-18.5 30.95-18-58.14-33.57 24.52-14.25 133.28-11.33 33.11 19.12-77.08 44.83zm-32.05-18.5l44.72-26-78.18 6.66 33.46 19.32" fill="#7945DC"/><path d="M367.16 227.51a53.427 53.427 0 007.66 10.43c.83 1 7.2-1.47 5.86-2.16-1.34-.69-5.5-6.5-7.59-10.37a131.733 131.733 0 01-4.46-14.17c-1.31-4.74-2.44-11.71-3.4-15-.96-3.29-2.92-4.51-4.88-5-2.29-.53-3.77.1-3.36 2.87.74 4.88 4.54 23.79 10.17 33.36" fill="#FFCEA9"/><path d="M363.51 301.64c2 1.61 4.88.14 5 .29a90.135 90.135 0 007.29 6.07c1.23 1 3.15 2.26 2.81 4.13-.63 3.32-6 2.3-8 1.28-2-1.02-3.65-2.7-5.55-3.89-1.36-.84-2.69-1.27-2.91-3-.12-1 .94-4.93 1.3-4.89" fill="#2B2A30"/><path d="M362.241 305.82c.26 1.64 1.58 2.09 2.93 2.93 1.93 1.2 3.63 2.93 5.64 3.95s6.49 1.88 7.8-.5c-.71 3.21-6 2.2-7.94 1.19-1.94-1.01-3.65-2.7-5.55-3.89-1.36-.84-2.69-1.28-2.9-3a2.747 2.747 0 010-.69" fill="#BF4B4B"/><path d="M383.54 290.08c2 1.61 5.44-.15 5.58 0a75.382 75.382 0 006.51 5.88c1.24 1 3.16 2.27 2.81 4.13-.62 3.33-5.95 2.3-8 1.28-2.05-1.02-3.66-2.7-5.56-3.88-1.36-.85-2.69-1.28-2.9-3-.13-1 1.17-4.45 1.52-4.41" fill="#2B2A30"/><path d="M382.08 294.04c.26 1.64 1.58 2.09 2.92 2.93 1.94 1.2 3.64 2.93 5.65 3.95 2.01 1.02 6.49 1.87 7.8-.5-.71 3.21-5.95 2.2-7.94 1.19-1.99-1.01-3.65-2.71-5.55-3.89-1.36-.84-2.7-1.28-2.91-3a2.844 2.844 0 010-.69" fill="#BF4B4B"/><path d="M337.09 238.3c-2.21 13.68 3.89 18.78 11.79 21.69 5.66 2.09 13.79 5.31 13.79 5.31s-.11 3-.17 9.74c-.06 5.93.72 27.59.72 27.59s3.28 1.7 6.05-.07c0 0 3.19-16.59 3.86-24.07.92-10.15 2.48-16.79 2-19-.46-1.92-11.55-7.38-15.07-10.3l23.24 7.79a41.387 41.387 0 00-.68 7.64c.22 8.06.66 25.49.66 25.49s3.19 2.3 5.91 0c0 0 5.85-34.51 5.14-39.08-.68-4.33-21.16-13.19-24.76-16.24a5.738 5.738 0 00-4.59-1.15l-27.89 4.66z" fill="#E26D6D"/><path d="M392.821 244l-15.62-9a.9.9 0 00-.9 0l-27.42 15.8 16.06 9.27 27.88-16.07z" fill="#F4F4F4"/><path d="M364.25 256.76l-1.19.68c-.1.06-.09.16 0 .22l1.14.66a.415.415 0 00.38 0l1.19-.68c.1-.06.08-.16 0-.22l-1.13-.66a.42.42 0 00-.38 0m1.67-.98l-1.19.69c-.1.06-.08.16 0 .22l1.14.66a.395.395 0 00.37 0l1.19-.69c.1 0 .09-.15 0-.21l-1.14-.66a.434.434 0 00-.38 0m1.72-.99l-1.19.69c-.1 0-.09.15 0 .22l1.14.65a.43.43 0 00.38 0l1.19-.69c.1-.06.08-.15 0-.22l-1.13-.65a.397.397 0 00-.38 0m1.651-.96l-1.19.69c-.1.05-.08.15 0 .21l1.14.66a.438.438 0 00.37 0l1.19-.69c.1-.06.09-.16 0-.22l-1.14-.66a.418.418 0 00-.38 0m1.699-.96l-1.19.68c-.1.06-.09.16 0 .22l1.14.66a.42.42 0 00.38 0l1.19-.68c.1-.06.08-.16 0-.22l-1.13-.66a.418.418 0 00-.38 0m1.67-.98l-1.19.69c-.1.06-.08.15 0 .22l1.14.65a.383.383 0 00.37 0l1.19-.69c.1-.05.09-.15 0-.22l-1.14-.65a.43.43 0 00-.38 0m1.701-.97l-1.19.69c-.1 0-.09.15 0 .22l1.14.65a.43.43 0 00.38 0l1.19-.69c.1-.06.08-.15 0-.22l-1.13-.65a.406.406 0 00-.38 0m1.669-.97l-1.16.69c-.09.06-.08.16 0 .22l1.14.66a.418.418 0 00.38 0l1.19-.68c.09-.06.08-.16 0-.22l-1.14-.66a.418.418 0 00-.38 0m1.66-.99l-1.19.69c-.1.06-.09.16 0 .22l1.14.66a.418.418 0 00.38 0l1.19-.69c.1-.05.08-.15 0-.21l-1.13-.66a.43.43 0 00-.38 0m1.67-.98l-1.19.69c-.09.05-.08.15 0 .22l1.14.65a.43.43 0 00.38 0l1.19-.69c.09-.05.08-.15 0-.22l-1.14-.65a.406.406 0 00-.38 0zm1.689-.97l-1.19.68c-.1.06-.09.16 0 .22l1.14.66a.464.464 0 00.38 0l1.19-.69c.1-.06.08-.16 0-.22l-1.13-.66a.418.418 0 00-.38 0m1.67-.97l-1.19.69c-.09.06-.08.16 0 .22l1.14.66a.42.42 0 00.38 0l1.19-.68c.09-.06.08-.16 0-.22l-1.14-.66a.457.457 0 00-.38 0m1.691-.98l-1.19.69c-.1.06-.09.15 0 .22l1.14.65a.403.403 0 00.38 0l1.19-.69c.1-.05.08-.15 0-.22l-1.13-.65a.43.43 0 00-.38 0m2.48-1.44l-2 1.16c-.1 0-.08.15 0 .22l1.14.65a.413.413 0 00.37 0l2-1.16c.09-.05.08-.15 0-.22l-1.14-.65a.397.397 0 00-.38 0m-21.841 10.73l-1.19.69c-.09.05-.08.15 0 .22l1.14.65a.43.43 0 00.38 0l1.19-.69c.09-.06.08-.15 0-.22l-1.14-.65a.397.397 0 00-.38 0zm1.692-.97l-1.19.68c-.1.06-.08.16 0 .22l1.13.66a.418.418 0 00.38 0l1.19-.68c.1-.06.09-.16 0-.22l-1.14-.66a.42.42 0 00-.38 0m1.699-.98l-1.19.69c-.1 0-.09.15 0 .22l1.13.65a.403.403 0 00.38 0l1.19-.69c.1-.05.09-.15 0-.22l-1.12-.63a.43.43 0 00-.38 0m1.679-.99l-1.19.68c-.1.06-.09.16 0 .22l1.14.66a.42.42 0 00.38 0l1.19-.68c.1-.06.08-.16 0-.22l-1.13-.66a.418.418 0 00-.38 0m1.692-.97l-1.19.69c-.1.05-.08.15 0 .22l1.13.65a.43.43 0 00.38 0l1.19-.69c.1-.06.09-.15 0-.22l-1.14-.65a.403.403 0 00-.38 0m1.67-.97l-1.19.68c-.1.06-.08.16 0 .22l1.13.66a.418.418 0 00.38 0l1.19-.68c.1-.06.09-.16 0-.22l-1.14-.66a.42.42 0 00-.38 0m1.699-.98l-1.19.69c-.1.05-.09.15 0 .22l1.14.65a.43.43 0 00.38 0l1.19-.69c.1 0 .08-.15 0-.22l-1.13-.65a.394.394 0 00-.38 0m1.64-.97l-1.19.68c-.1.06-.09.16 0 .22l1.14.66a.418.418 0 00.38 0l1.19-.68c.1-.06.08-.16 0-.22l-1.13-.66a.415.415 0 00-.38 0m1.71-.98l-1.19.69c-.09.06-.08.15 0 .22l1.14.65a.39.39 0 00.379 0l1.19-.69c.09-.05.08-.15 0-.22l-1.139-.59a.437.437 0 00-.38 0m1.691-1l-1.19.68c-.1.06-.08.16 0 .22l1.14.66a.399.399 0 00.37 0l1.19-.68c.1-.06.09-.16 0-.22l-1.14-.66a.418.418 0 00-.38 0m1.699-1l-1.19.69c-.1.06-.09.15 0 .22l1.13.66a.42.42 0 00.38 0l1.19-.69c.1-.05.09-.15 0-.22l-1.13-.65a.43.43 0 00-.38 0m1.69-1.01l-1.19.69c-.1.05-.09.15 0 .21l1.13.66a.457.457 0 00.379 0l1.19-.69c.1-.06.09-.16 0-.22l-1.129-.66a.42.42 0 00-.38 0m-20.241 11.72l-2 1.15c-.09.06-.08.16 0 .22l1.14.66a.418.418 0 00.38 0l2-1.15c.09-.06.08-.16 0-.22l-1.14-.66a.398.398 0 00-.37 0m23.44-11.77l-1.19.69a.436.436 0 01-.35 0l-1.2-.7a.1.1 0 01-.1-.1.1.1 0 01.03-.071.097.097 0 01.07-.029l.09-.06c.09-.05.09-.13 0-.19l-1.27-.73a.1.1 0 01-.1-.1.1.1 0 01.03-.071.097.097 0 01.07-.029l.76-.44a.392.392 0 01.35 0l1.19.69.24.14.18.1.18.1 1 .59c.1.06.1.15 0 .21m-29.138 9.4l-1.19.69c-.1.05-.08.15 0 .22l1.13.65a.43.43 0 00.38 0l1.19-.69c.1-.06.09-.15 0-.22l-1.14-.65a.403.403 0 00-.38 0m1.689-.97l-1.19.69c-.1.05-.08.15 0 .22l1.13.65a.43.43 0 00.38 0l1.19-.69c.1-.05.09-.15 0-.22l-1.14-.65a.397.397 0 00-.38 0m1.69-.97l-1.19.69c-.1.05-.08.15 0 .22l1.14.65a.41.41 0 00.37 0l1.19-.69c.1-.05.09-.15 0-.22l-1.14-.65a.406.406 0 00-.38 0m14.321-8.26l-1.19.69c-.1.05-.08.15 0 .21l1.13.66a.43.43 0 00.379 0l1.191-.69c.1-.06.09-.15 0-.22l-1.14-.65a.397.397 0 00-.38 0m1.689-.97l-1.19.69c-.1.05-.08.15 0 .21l1.13.66a.43.43 0 00.38 0l1.19-.69c.1-.06.09-.16 0-.22l-1.14-.66a.42.42 0 00-.38 0m1.69-.96l-1.19.69c-.1.05-.08.15 0 .22l1.13.65a.43.43 0 00.38 0l1.19-.69c.1-.06.09-.15 0-.22l-1.14-.65a.394.394 0 00-.38 0m1.69-.97l-1.19.69c-.1.05-.08.15 0 .21l1.13.66a.43.43 0 00.38 0l1.19-.69c.1-.06.09-.16 0-.22l-1.14-.65a.397.397 0 00-.38 0m-17.23 9.95l-1.62.94c-.1.05-.08.15 0 .22l1.13.65a.43.43 0 00.38 0l1.63-.94c.09-.06.08-.15 0-.22l-1.14-.65a.397.397 0 00-.38 0zm10.521-6.07l-1.62.94c-.1.05-.09.15 0 .22l1.14.65a.43.43 0 00.38 0l1.62-.94c.1-.06.09-.15 0-.22l-1.14-.65a.403.403 0 00-.38 0zm-2.112 1.22l-7.92 4.57c-.09.05-.08.15 0 .22l1.14.65a.43.43 0 00.38 0l7.91-4.57c.1-.06.08-.15 0-.22l-1.13-.65a.394.394 0 00-.38 0zm-7.658 8.19l-1.19.69c-.1.06-.09.15 0 .22l1.13.65a.406.406 0 00.38 0l1.19-.69c.1-.05.09-.15 0-.22l-1.13-.65a.43.43 0 00-.38 0zm1.678-.97l-1.19.69c-.09.05-.08.15 0 .22l1.14.65a.41.41 0 00.37 0l1.19-.69c.1-.05.09-.15 0-.22l-1.14-.65a.406.406 0 00-.38 0m1.691-.97l-1.18.69c-.1.05-.09.15 0 .22l1.14.65a.43.43 0 00.38 0l1.19-.69c.09-.06.08-.15 0-.22l-1.14-.65a.394.394 0 00-.38 0m1.68-.97l-1.19.68c-.1.06-.09.16 0 .22l1.13.66a.418.418 0 00.38 0l1.19-.68c.1-.06.09-.16 0-.22l-1.13-.66a.418.418 0 00-.38 0zm1.68-.97l-1.19.68c-.1.06-.08.16 0 .22l1.13.66a.418.418 0 00.38 0l1.19-.68c.1-.06.09-.16 0-.22l-1.14-.66a.42.42 0 00-.38 0m1.69-.98l-1.19.69c-.09.06-.08.16 0 .22l1.14.66a.412.412 0 00.379 0l1.19-.68c.09-.06.08-.16 0-.22l-1.139-.66a.464.464 0 00-.38 0m1.691-.98l-1.19.69c-.1.06-.09.15 0 .22l1.13.65a.403.403 0 00.38 0l1.19-.69c.1-.05.09-.15 0-.22l-1.13-.65a.437.437 0 00-.38 0zm1.68-.97l-1.19.69c-.1 0-.08.15 0 .22l1.13.65a.43.43 0 00.38 0l1.19-.69c.1-.06.09-.15 0-.22l-1.14-.65a.403.403 0 00-.38 0m1.689-.97l-1.19.69c-.09.05-.08.15 0 .21l1.14.66a.43.43 0 00.38 0l1.19-.69c.09-.06.08-.15 0-.22l-1.14-.66a.42.42 0 00-.38 0m1.689-.96l-1.19.68c-.1.06-.09.16 0 .22l1.14.66a.418.418 0 00.38 0l1.19-.68c.1-.06.08-.16 0-.22l-1.13-.66a.415.415 0 00-.38 0m1.67-.98l-1.19.69c-.1.06-.08.16 0 .22l1.13.66a.418.418 0 00.38 0l1.19-.68c.1-.06.09-.16 0-.22l-1.14-.66a.457.457 0 00-.38 0" fill="#3A2C6D"/><path d="M382.449 242.47l-1.19.69c-.09.06-.08.16 0 .22l1.14.66a.418.418 0 00.38 0l1.19-.69c.09-.05.08-.15 0-.21l-1.14-.66a.43.43 0 00-.38 0m-20.189 11.66l-2.47 1.42c-.09.05-.08.15 0 .22l1.14.65a.43.43 0 00.38 0l2.46-1.42c.09-.06.08-.16 0-.22l-1.13-.66a.42.42 0 00-.38 0m-.79-1.43l-1.19.69c-.1.06-.09.15 0 .22l1.13.65a.397.397 0 00.38 0l1.19-.69c.1-.05.09-.15 0-.22l-1.13-.65a.43.43 0 00-.38 0zm1.68-.97l-1.19.69c-.09.05-.08.15 0 .22l1.14.65a.43.43 0 00.38 0l1.18-.69c.1-.06.09-.15 0-.22l-1.14-.65a.403.403 0 00-.38 0m1.74-.97l-1.19.69c-.1.05-.09.15 0 .22l1.14.65a.437.437 0 00.38 0l1.19-.69c.1-.06.08-.15 0-.22l-1.13-.65a.397.397 0 00-.38 0m1.629-.97l-1.19.68c-.1.06-.09.16 0 .22l1.13.66a.42.42 0 00.38 0l1.19-.68c.1-.06.09-.16 0-.22l-1.13-.66a.418.418 0 00-.38 0zm1.68-.97l-1.19.68c-.1.06-.08.16 0 .22l1.13.66a.418.418 0 00.38 0l1.19-.68c.1-.06.09-.16 0-.22l-1.14-.66a.42.42 0 00-.38 0m1.692-.98l-1.19.69c-.09.06-.08.16 0 .22l1.14.66a.42.42 0 00.38 0l1.19-.68c.09-.06.08-.16 0-.22l-1.14-.66a.464.464 0 00-.38 0m1.689-.98l-1.19.69c-.1.06-.09.15 0 .22l1.14.65a.406.406 0 00.38 0l1.19-.69c.1-.05.08-.15 0-.22l-1.13-.65a.43.43 0 00-.38 0m1.67-.97l-1.19.69c-.1.05-.08.15 0 .22l1.13.65a.43.43 0 00.38 0l1.19-.69c.1-.06.09-.15 0-.22l-1.14-.65a.406.406 0 00-.38 0m1.69-.97l-1.19.69c-.09 0-.08.15 0 .22l1.14.65a.43.43 0 00.38 0l1.18-.69c.1-.06.09-.15 0-.22l-1.14-.65a.397.397 0 00-.38 0m1.701-.97l-1.19.68c-.1.06-.09.16 0 .22l1.14.66a.457.457 0 00.38 0l1.19-.69c.1-.06.08-.16 0-.22l-1.13-.66a.418.418 0 00-.38 0m1.669-.96l-1.19.68c-.1.06-.09.16 0 .22l1.13.66a.418.418 0 00.38 0l1.19-.68c.1-.06.09-.16 0-.22l-1.13-.66a.42.42 0 00-.38 0zm3.76-2.18l-3.27 1.89c-.1.06-.08.16 0 .22l1.13.66a.42.42 0 00.38 0l3.28-1.89c.09-.05.08-.15 0-.22l-1.14-.65a.43.43 0 00-.38 0m-22.27 12.82l-1.63.94c-.09.06-.08.16 0 .22l1.14.66a.412.412 0 00.379 0l1.621-.94c.1-.05.08-.15 0-.21l-1.13-.66a.464.464 0 00-.38 0m28.871-9.01l-23.9 13.8c-.1.05-.09.15 0 .22l.57.32a.43.43 0 00.38 0l23.9-13.8c.1-.06.08-.16 0-.22l-.57-.33a.399.399 0 00-.37 0" fill="#3A2C6D"/><path d="M360.689 245.23l.15.09 4.13 2.38 7.34-4.24.15-.08-4.28-2.48-7.49 4.33z" fill="#BFBFBF"/><path d="M360.84 245.32l4.13 2.38 7.34-4.24-4.13-2.38-7.34 4.24zm-11.959 5.48v.36a1.516 1.516 0 00.75 1.31l14.56 8.4c.227.135.486.204.75.2a1.48 1.48 0 00.76-.2l26.36-15.23a1.505 1.505 0 00.76-1.31v-.36l-27.85 16.07-16.09-9.24z" fill="#E5E5E5"/><path d="M365.4 260.3c.25.095.518.133.784.113.266-.021.524-.101.756-.233l26.22-15.14a1.812 1.812 0 00.87-1.25l2.85-17.15v-.29a1.775 1.775 0 00-.53-1.27l-27.21 15.76a1.346 1.346 0 00-.64.93l-3.1 18.53z" fill="#F4F4F4"/><path d="M364.971 260.07l.18.11.25.12 3.1-18.53a1.339 1.339 0 01.64-.93l27.25-15.73a1.683 1.683 0 00-.36-.28l-27.31 15.81a1.323 1.323 0 00-.424.388 1.32 1.32 0 00-.216.532l-3.11 18.51z" fill="#E5E5E5"/><path d="M345.18 186.81s.33 6.51.19 7.09c-.14.58-3 2.48-3.82 3.17-.82.69 4.5 5.94 7.1 7.13 2.6 1.19 10.8-1.94 11-6 .2-4.06-1.41-7.42-2.67-7.6-1.26-.18-11.75-3.81-11.75-3.81" fill="#FFCEA9"/><path d="M344.449 195.02s4.73 7.05 11.32 7.71c2.08-2 2.27-9.35-.61-11.68 0 0 2.65-2.13 4.46-1.72a9.356 9.356 0 014.07 5.2 42.519 42.519 0 012.33 15.11c-.11 6.91 0 24.38 0 24.38s-1 6.68-6.95 10a21.49 21.49 0 01-15.65 2.16c-3.34-.78-4.58-2.65-5.73-5.08.3-4.84 2.21-14.81 1.41-20.91s-2.1-10.63-2.43-15.56c-.33-4.93.65-4.83 3.12-6.58a39.779 39.779 0 014.66-3" fill="#F4F4F4"/><path d="M352.031 251.16a34.741 34.741 0 00-3.7-2.12 7.71 7.71 0 01-3.17-1.92c-1.16-1.13-3.06-5.43-4.41-9.61a43.157 43.157 0 01-1.6-14.55c.58-5.87 2.69-14.09 3.23-17.47.54-3.38-.56-4.72-2.13-6-1.84-1.46-4.39-.81-5.75 3.92a91.733 91.733 0 00-3 20.06 45.788 45.788 0 002.3 14.82 53.32 53.32 0 005.65 11.65c.65 1.09.86 2.06 1.85 4.29a15.096 15.096 0 004.33 5.76c1.65 1.19 2.44 1.35 2.83 1.12.39-.23.38-.81-.31-1.44a12.288 12.288 0 01-3-3.31s1.44 1.45 2.39 2.25a12.547 12.547 0 002.77 1.76c1 .42 2.31-.4 1.63-1.05-.68-.65-1.39-1-2.78-2.17a12.123 12.123 0 01-2-2.13 23.151 23.151 0 003.07 2 5.2 5.2 0 002.8.76c.52 0 1.14-.74.18-1.43a18.595 18.595 0 01-3.67-2.5c-1.06-1.06-1.66-2-1.36-2 .3 0 .88.65 2.12 1 1.24.35 2.57 0 2.73-.65.16-.65.11-.55-1.05-1.13m7.899-73.97c-.78-5.06-4.42-8.89-9.63-8.6a10.037 10.037 0 00-6.944 3.332 10.052 10.052 0 00-2.546 7.268 10 10 0 004.38 7.7c.185.767.453 1.511.8 2.22 1.85 2.15 7.43 3.49 9 3.26 2.06-.3 3.17-1.16 4.15-3.41 1.73-4 1.19-9.27.76-11.77" fill="#FFCEA9"/><path d="M345.18 186.8l.48-4.41s-3.61-9.33 4.91-7.54c5.62 1.19 7 1.7 8.74-2.07 1.74-3.77-4.32-7.17-11.49-6.23a9.91 9.91 0 00-8.86 10c.19 2.78.93 8.39 6.22 10.2" fill="#2B2A30"/><path d="M330.6 212.13s4.65 4.62 10.15 3.29c.78-.53 2.67-11.34 2.67-11.34s0-6-4.59-5.83c-4.59.17-8.23 13.88-8.23 13.88zm35.099-8.97s2.43-.12 3.43-1.53c-.18-2.42-3.28-11.61-9.51-12.3a11.556 11.556 0 013.89 4.7 60.126 60.126 0 012.19 9.13z" fill="#EDEDED"/><path d="M62.76 3.97c1.23-2 10.6-3.27 13.69 4.67 1.17 3 1 10.72 2 15.56s3.28 7.58 4.11 11.51c.83 3.93-.52 10.5-10 11.67s-16.74-2.16-19-5.18c-2.26-3.02-2.28-9.42 0-12.87 2.28-3.45 4.09-6.24 4-10.73l5.2-14.63z" fill="#2B2A30"/><path d="M68.95 2.64s-7.06-2-11.34 1.79a10.47 10.47 0 00-3 10.46c.57 2.23 1.71 5.27 3.48 5.44 1.77.17 10.86-17.69 10.86-17.69z" fill="#2B2A30"/><path d="M71.65 21.86s-.46 7.87-.32 8.44c.14.57 3.09 1.14 3.92 1.83.83.69-4.28 8.67-6.88 9.85-2.6 1.18-10.64-1.83-11.2-5.83-.51-3.69 2.31-6.55 3.39-7.55a16 16 0 012.22 0l.23-3.82c3.52-1.12 8.64-2.87 8.64-2.87" fill="#FFCEA9"/><path d="M48.5 63.86a41.562 41.562 0 01-7.85 8.16 40.785 40.785 0 00-2.68 3.09 11.87 11.87 0 01-5.26 3.5c-1.78.46-2.53.34-2.83 0-.3-.34-.16-.85.62-1.15a9.86 9.86 0 003.45-1.82s-1.66.76-2.7 1.13c-.939.325-1.918.517-2.91.57-1 0-2-1.14-1.23-1.47.77-.33 1.48-.36 3-.93a9.651 9.651 0 002.28-1.17 19.476 19.476 0 01-3.24.67 5 5 0 01-2.71-.31c-.46-.2-.86-1 .17-1.31a15.338 15.338 0 003.91-.9c1.2-.55 2-1.12 1.69-1.24-.31-.12-1 .26-2.16.17-1.16-.09-2.33-.85-2.32-1.5.01-.65.26-.29 1.44-.39 1.18-.1 2.12-.64 3.81-.64 1.266.05 2.532-.102 3.75-.45 1.28-.38 4.16-3.83 6.37-7a46 46 0 005.64-11.42c1.33-4.36 2.91-12.52 4-15.35 1.09-2.83 3.07-4.13 4.92-4.19 2.17-.07 3.1 2.79 2.52 5.26-1 4.33-5.84 21-11.72 28.72" fill="#FFCEA9"/><path d="M72.73 31.07c2.21.34 4.74 1.52 5.09 2.73.4 1.42 1.28 8.07-.64 13.14S73.1 61.14 72 63.33c0 0-8.76 1.56-16.48-3.22 0 0-.46-8.81-.49-11.71-7.12-6.22-1-13.87 5-19.83.722-.06 1.448-.06 2.17 0 0 0-5.38 6.36-1.64 10 8-2.43 9.61-6 12.17-7.46" fill="#F4F4F4"/><path d="M56.95 12.1c.79-5 4.44-8.87 9.66-8.57a10 10 0 015 18.33 10.16 10.16 0 01-.8 2.21c-1.86 2.15-6.76 3.51-8.38 3.53-1.4 0-2.61-1.29-3.92-3.46-2.73-4.53-2-9.54-1.6-12" fill="#FFCEA9"/><path d="M68.22 3.64c3.66.72 6.67 1.75 7.66 5.34.68 2.48 1.57 7.19.72 9.18l-.52 1.43-4.43 2.29s-2.07-1.73-1.42-6.78a3.67 3.67 0 00-.63-1.91 5.75 5.75 0 01-.61-1.52 5.7 5.7 0 00-2.87-3.11c-3.3-1.85-8.13-.25-8.8.41a9.63 9.63 0 0110.9-5.33zm-20.14 121c-1.85 1.51-4.73.47-4.87.61-1.88 1.88-4.69 3.53-6.78 5.17-1.15.91-2.95 2.13-2.62 3.87.58 3.12 5.57 2.16 7.46 1.21 1.89-.95 3.42-2.54 5.2-3.65 1.27-.79 2.52-1.19 2.72-2.8.12-1-.78-4.44-1.11-4.41z" fill="#2B2A30"/><path d="M49.17 128.42c-.25 1.54-1.48 2-2.74 2.75-1.82 1.12-3.41 2.75-5.29 3.7-1.88.95-6.09 1.77-7.26-.47.66 3 5.57 2.06 7.44 1.12s3.42-2.54 5.2-3.65c1.27-.79 2.52-1.19 2.72-2.8a3.005 3.005 0 000-.65" fill="#BF4B4B"/><path d="M39.06 119.64c-1.69 1.38-4.25.61-4.38.74-1.72 1.73-4.28 3.21-6.2 4.72-1.05.83-2.7 1.94-2.4 3.54.53 2.86 5.1 2 6.83 1.11 1.73-.89 3.13-2.33 4.77-3.34 1.16-.72 2.31-1.1 2.49-2.57.11-.89-.81-4.23-1.11-4.2z" fill="#2B2A30"/><path d="M40.15 123.21c-.23 1.4-1.36 1.79-2.51 2.51-1.66 1-3.12 2.52-4.85 3.39-1.73.87-5.57 1.61-6.69-.43.61 2.75 5.1 1.89 6.81 1 1.71-.89 3.13-2.32 4.77-3.33 1.16-.73 2.31-1.1 2.49-2.57a2.457 2.457 0 000-.59" fill="#BF4B4B"/><path d="M64.7 65.27a27.49 27.49 0 01-14.75-2.13c.08 1.56.16 3 .16 3-6 4.24-18 11.38-18.83 16.31.78 15.57 3.15 37.81 3.82 38.13 1.89.9 3.21.75 4.09-.14 0 0 3.79-13.19 2.69-32.55 0 0 21-9.3 22.37-14.38.79-2.93.63-3.3.57-6.33 0-.63-.06-1.25-.12-1.87" fill="#FFCEA9"/><path d="M71.67 63.25c-4.16 1.94-8 2.18-12.68 1.7.06 2.08.3 6 .3 6-6 4.24-18 11.38-18.84 16.31.79 15.57 2.24 38.12 2.93 38.4a5 5 0 005-.58s3.79-13 2.69-32.38c0-.36 18-9.22 20.28-11.57 2.45-2.51 2.73-5.82 2.67-9.14-.06-3.12-1-5.69-2.33-8.74" fill="#FFCEA9"/><path d="M76.08 66.55s6.66 11.79-4.44 17.85c-11.7 6.39-18.84 7.89-18.84 7.89l-1.75.41s.83 4.28 0 12.25c0 0-8.35 2.92-19-6.46l-3.53-11.36-.42-3a6.311 6.311 0 011.78-5.74c2.55-2.31 10.65-8.24 15.69-11.64 5.04-3.4 9.06-6.64 9.06-6.64l.88-.82s6 4.75 16.89 3.16a17.55 17.55 0 013.71 4.1" fill="#E26D6D"/><path d="M69.48 84.04c1-.69 1.68-1.68 3.22-2.54a12.72 12.72 0 003.24-2.31c1-1 2.53-5.3 3.32-9.48a41.35 41.35 0 00-.24-14.07 97.933 97.933 0 00-5.57-16.18c-1.48-3.13-.65-5 .7-6.42 1.59-1.63 3.25-1.59 5.13 2.78s4.89 12.63 5.85 19a42.056 42.056 0 01-.19 14.34 52.73 52.73 0 01-3.82 12c-.49 1.13-.57 2.08-1.24 4.34a14.58 14.58 0 01-3.45 6c-1.44 1.34-2.17 1.6-2.57 1.42-.4-.18-.47-.73.12-1.42a11.841 11.841 0 002.42-3.53s-1.21 1.57-2 2.45a11.509 11.509 0 01-2.43 2c-.88.53-2.27-.09-1.69-.8.58-.71 1.21-1.1 2.39-2.42a11.712 11.712 0 001.62-2.28 21.868 21.868 0 01-2.7 2.28A5 5 0 0169 90.27c-.49 0-1.17-.57-.34-1.35a18.407 18.407 0 003.22-2.69c.88-1.14 1.35-2.06 1.06-2.05-.29.01-.76.72-1.9 1.25s-2.46.35-2.69-.28c-.23-.63.12-.41 1.16-1.11" fill="#FFCEA9"/><path d="M82.19 41.7s-4 3.58-8.53 2.85l-1.78-7.5s-1.19-4 2.2-5.46 6.61 2.44 8.07 10.11M60.03 28.57s-4.37-1.33-9 8.35l1.73 1.05s4.57-6.91 7.28-9.4" fill="#EDEDED"/><path d="M29.88 70.32l15.57-9a.89.89 0 01.89 0l27.3 15.76-16 9.25-27.76-16.01z" fill="#F4F4F4"/><path d="M58.02 82.79l1.19.69c.1 0 .08.15 0 .22l-1.14.65a.41.41 0 01-.37 0l-1.22-.71c-.1-.06-.09-.15 0-.22l1.14-.65a.4.4 0 01.38 0m-1.67-.95l1.19.69c.1 0 .09.15 0 .21l-1.14.66a.46.46 0 01-.38 0l-1.19-.69c-.1-.06-.08-.16 0-.22l1.13-.66a.42.42 0 01.38 0m-1.69-.98l1.19.69c.09.06.08.15 0 .22l-1.14.66a.4.4 0 01-.37 0l-1.19-.69c-.1-.05-.09-.15 0-.21l1.14-.66a.43.43 0 01.38 0m-1.68-.97l1.19.69c.1.06.09.15 0 .22l-1.13.65a.4.4 0 01-.38 0l-1.19-.69c-.1-.05-.09-.15 0-.22l1.13-.65a.43.43 0 01.38 0zm-1.68-.97l1.19.69c.09.05.08.15 0 .22l-1.14.65a.43.43 0 01-.38 0l-1.19-.69c-.09-.06-.08-.15 0-.22l1.14-.65a.4.4 0 01.38 0zm-1.69-.97l1.19.68c.1.06.09.16 0 .22l-1.13.66a.42.42 0 01-.38 0l-1.19-.68c-.1-.06-.09-.16 0-.22l1.13-.66a.42.42 0 01.38 0zm-1.71-.98l1.19.69c.09.06.08.15 0 .22l-1.14.66a.42.42 0 01-.38 0l-1.19-.69c-.09 0-.08-.15 0-.21l1.14-.66a.43.43 0 01.38 0m-1.66-.98l1.19.69c.1.05.09.15 0 .22l-1.13.65a.43.43 0 01-.38 0l-1.19-.69c-.1-.06-.09-.15 0-.22l1.13-.65a.4.4 0 01.38 0zm-1.68-.97l1.19.68c.09.06.08.16 0 .22l-1.14.66a.459.459 0 01-.38 0l-1.19-.69c-.09-.06-.08-.16 0-.22l1.14-.66a.421.421 0 01.38 0m-1.66-.97l1.19.69c.1.06.09.16 0 .22l-1.19.7a.42.42 0 01-.38 0l-1.19-.68c-.1-.06-.09-.16 0-.22l1.13-.66a.46.46 0 01.38 0m-1.65-1.02l1.19.69c.09.06.08.15 0 .22l-1.14.65a.4.4 0 01-.38 0l-1.19-.69c-.09-.05-.08-.15 0-.22l1.14-.65a.43.43 0 01.38 0zm-1.69-.97l1.19.69c.1.05.09.15 0 .22l-1.13.65a.43.43 0 01-.38 0l-1.19-.69c-.1-.06-.09-.15 0-.22l1.13-.65a.4.4 0 01.38 0zm-1.68-.97l1.19.68c.09.06.08.16 0 .22l-1.14.66a.42.42 0 01-.38 0L36.28 72c-.09-.06-.08-.16 0-.22l1.14-.66a.421.421 0 01.38 0zm-2.5-1.48l2 1.15c.1.06.09.16 0 .22l-1.13.66a.421.421 0 01-.38 0l-2-1.15c-.1-.06-.09-.16 0-.22l1.14-.66a.42.42 0 01.38 0M57.15 80.4l1.19.69c.1.06.09.16 0 .22l-1.13.66a.42.42 0 01-.38 0l-1.19-.68c-.1-.06-.09-.16 0-.22l1.13-.66a.459.459 0 01.38 0m-1.69-.98l1.19.69c.1.05.09.15 0 .22l-1.14.65a.43.43 0 01-.38 0l-1.25-.67c-.1-.06-.08-.15 0-.22l1.13-.65a.4.4 0 01.38 0m-1.61-.99l1.18.68c.1.06.09.16 0 .22l-1.14.66a.42.42 0 01-.38 0l-1.19-.68c-.09-.06-.08-.16 0-.22l1.14-.66a.42.42 0 01.38 0m-1.68-.98l1.19.69c.09.05.08.15 0 .22l-1.14.65a.43.43 0 01-.38 0l-1.19-.69c-.09 0-.08-.15 0-.22l1.14-.65a.43.43 0 01.38 0zm-1.68-.97l1.19.69c.1.06.09.16 0 .22l-1.14.66a.42.42 0 01-.38 0l-1.2-.68c-.1 0-.08-.15 0-.21l1.13-.66a.461.461 0 01.38 0m-1.67-.99l1.19.69c.1 0 .09.15 0 .22l-1.14.65a.43.43 0 01-.38 0l-1.19-.69c-.09-.06-.08-.15 0-.22l1.14-.65a.38.38 0 01.37 0m-1.67-.97l1.19.68c.09.06.08.16 0 .22l-1.14.66a.42.42 0 01-.38 0l-1.19-.68c-.09-.06-.08-.16 0-.22l1.14-.66a.421.421 0 01.38 0zm-1.69-.93l1.19.69c.1.05.08.15 0 .22l-1.13.65a.43.43 0 01-.38 0l-1.19-.69c-.1-.06-.09-.15 0-.22l1.14-.65a.4.4 0 01.38 0m-1.7-1l1.19.68c.1.06.09.16 0 .22l-1.13.66a.421.421 0 01-.38 0l-1.19-.68c-.1-.06-.09-.16 0-.22l1.13-.66a.42.42 0 01.38 0zm-1.69-1l1.19.69c.1.06.09.15 0 .22l-1.14.65a.4.4 0 01-.38 0l-1.19-.69c-.1 0-.08-.15 0-.22l1.13-.65a.429.429 0 01.38 0m-1.68-1l1.19.68c.1.06.09.16 0 .22l-1.14.66a.421.421 0 01-.38 0l-1.19-.68c-.09-.06-.08-.16 0-.22l1.12-.66a.4.4 0 01.37 0m-1.65-.95l1.19.69c.09.06.08.15 0 .22l-1.14.65a.4.4 0 01-.38 0l-1.19-.69c-.09-.05-.08-.15 0-.22l1.14-.65a.429.429 0 01.38 0zm20.28 11.69l2 1.16c.1 0 .09.15 0 .21l-1.13.66a.46.46 0 01-.38 0l-2-1.16c-.1-.06-.09-.15 0-.22l1.14-.65a.4.4 0 01.38 0M35.38 69.64l1.19.69a.36.36 0 00.35 0l1.2-.69c.1-.06.1-.15 0-.21h-.1a.1.1 0 010-.19l1.27-.73c.1-.06.1-.15 0-.21l-.75-.44a.41.41 0 00-.36 0l-1.18.68-.25.14-.18.11-.17.1-1 .59c-.1.06-.1.15 0 .2m29.14 9.34l1.19.68c.1.06.09.16 0 .22l-1.14.66a.42.42 0 01-.38 0l-1.19-.68c-.1-.06-.08-.16 0-.22l1.13-.66a.42.42 0 01.38 0m-1.65-.97l1.19.68c.1.06.09.16 0 .22l-1.19.69a.42.42 0 01-.38 0l-1.19-.68c-.1-.06-.08-.16 0-.22l1.13-.66a.42.42 0 01.38 0m-1.64-1l1.19.68c.1.06.09.16 0 .22l-1.14.66a.42.42 0 01-.38 0l-1.19-.68c-.1-.06-.08-.16 0-.22l1.13-.66a.42.42 0 01.38 0m-14.29-8.27l1.19.69c.1.06.09.15 0 .22l-1.14.66a.42.42 0 01-.38 0l-1.19-.69c-.1-.05-.08-.15 0-.22l1.13-.65a.43.43 0 01.38 0m-1.68-.98l1.19.69c.1.06.09.15 0 .22l-1.14.66a.42.42 0 01-.38 0l-1.19-.69c-.1-.05-.08-.15 0-.21l1.13-.66a.43.43 0 01.38 0m-1.67-.98l1.19.69c.1.06.09.15 0 .22l-1.14.66a.42.42 0 01-.38 0l-1.19-.69c-.1-.05-.08-.15 0-.22l1.13-.65a.43.43 0 01.38 0m-1.62-.98l1.19.69c.1.06.09.15 0 .22l-1.14.66a.42.42 0 01-.38 0l-1.19-.69c-.1-.05-.08-.15 0-.22l1.13-.65a.43.43 0 01.38 0m17.2 9.94l1.62.94c.1.06.09.16 0 .22l-1.14.66a.42.42 0 01-.38 0l-1.62-.94c-.1 0-.09-.15 0-.21l1.14-.66a.461.461 0 01.38 0m-10.52-6.08l1.63.94c.09.06.08.15 0 .22l-1.14.66a.421.421 0 01-.38 0l-1.65-.96c-.1-.05-.08-.15 0-.22l1.13-.65a.429.429 0 01.38 0M50.67 71l7.91 4.57c.1.06.09.16 0 .22l-1.13.66a.421.421 0 01-.38 0l-7.91-4.57c-.1-.05-.09-.15 0-.22l1.14-.65a.43.43 0 01.38 0m7.65 8.19l1.19.68c.09.06.08.16 0 .22l-1.14.66a.461.461 0 01-.38 0l-1.19-.69c-.09-.06-.08-.16 0-.22l1.14-.66a.42.42 0 01.38 0m-1.69-.96l1.19.68c.1.06.09.16 0 .22l-1.14.66a.42.42 0 01-.38 0l-1.19-.68c-.1-.06-.08-.16 0-.22l1.13-.66a.42.42 0 01.38 0m-1.67-.98l1.19.69c.1.06.08.15 0 .22l-1.13.66a.421.421 0 01-.38 0l-1.19-.69c-.1-.05-.09-.15 0-.22l1.14-.65a.43.43 0 01.38 0m-1.69-.98l1.19.69c.09.06.08.15 0 .22l-1.14.65a.4.4 0 01-.38 0l-1.19-.69c-.09-.05-.08-.15 0-.22l1.14-.65a.43.43 0 01.38 0zm-1.69-.97l1.19.69c.1 0 .09.15 0 .22l-1.14.65a.43.43 0 01-.38 0l-1.19-.69c-.1-.06-.08-.15 0-.22l1.13-.65a.4.4 0 01.38 0m-1.7-.97l1.19.69c.1.05.08.15 0 .21l-1.13.66a.46.46 0 01-.38 0l-1.19-.69c-.1-.06-.09-.16 0-.22l1.14-.66a.42.42 0 01.38 0m-1.66-.96l1.19.68c.09.06.08.16 0 .22l-1.14.66a.42.42 0 01-.38 0l-1.19-.68c-.09-.06-.08-.16 0-.22l1.14-.66a.421.421 0 01.38 0zm-1.69-.98l1.19.69c.1.06.09.16 0 .22l-1.14.66a.42.42 0 01-.38 0l-1.19-.69c-.1 0-.08-.15 0-.21l1.13-.66a.461.461 0 01.38 0m-1.65-.98l1.19.69c.1.06.09.15 0 .22l-1.13.65a.4.4 0 01-.38 0l-1.19-.69c-.1 0-.09-.15 0-.22l1.13-.65a.43.43 0 01.38 0zm-1.7-.97l1.19.69c.09.05.08.15 0 .22l-1.14.65a.4.4 0 01-.38 0l-1.19-.69c-.09 0-.08-.15 0-.22l1.14-.65a.43.43 0 01.38 0zm-1.69-.97l1.19.69c.1.05.09.15 0 .22l-1.14.65a.43.43 0 01-.38 0l-1.19-.69c-.1-.06-.08-.15 0-.22l1.13-.65a.4.4 0 01.38 0" fill="#3A2C6D"/><path d="M39.81 68.51l1.19.68c.1.06.09.16 0 .22l-1.13.66a.421.421 0 01-.38 0l-1.19-.68c-.1-.06-.09-.16 0-.22l1.13-.66a.42.42 0 01.38 0zm20.199 11.66l2.46 1.47c.1.06.09.15 0 .22l-1.13.65a.4.4 0 01-.38 0l-2.46-1.42c-.1-.06-.09-.16 0-.22l1.14-.66a.42.42 0 01.38 0m.771-1.47l1.19.68c.1.06.09.16 0 .22l-1.14.66a.42.42 0 01-.38 0l-1.21-.66c-.09-.06-.08-.16 0-.22l1.14-.66a.4.4 0 01.37 0m-1.65-.99l1.19.68c.1.06.09.16 0 .22l-1.13.66a.42.42 0 01-.38 0l-1.22-.69c-.1-.06-.09-.16 0-.22l1.13-.66a.42.42 0 01.38 0m-1.65-.97l1.19.69c.1.06.08.15 0 .22l-1.13.66a.42.42 0 01-.38 0l-1.23-.72c-.1 0-.09-.15 0-.22l1.14-.65a.429.429 0 01.38 0m-1.65-.95l1.19.69c.09 0 .08.15 0 .22l-1.14.65a.399.399 0 01-.38 0l-1.19-.69c-.09 0-.08-.15 0-.22l1.14-.65a.43.43 0 01.38 0zm-1.69-.97l1.19.69c.1 0 .09.15 0 .22l-1.14.65a.43.43 0 01-.38 0l-1.19-.69c-.1-.06-.08-.15 0-.22l1.13-.65a.4.4 0 01.38 0m-1.67-.97l1.19.69c.1 0 .08.15 0 .21l-1.13.66a.461.461 0 01-.38 0l-1.18-.67c-.1-.06-.09-.16 0-.22l1.14-.66a.42.42 0 01.38 0m-1.7-.98l1.18.73c.09.06.08.16 0 .22l-1.14.66a.421.421 0 01-.38 0l-1.19-.68c-.09-.06-.08-.16 0-.22l1.14-.66a.42.42 0 01.38 0m-1.68-1.02l1.19.68c.1.06.09.16 0 .22l-1.14.66a.421.421 0 01-.38 0l-1.19-.68c-.09-.06-.08-.16 0-.22l1.14-.66a.4.4 0 01.37 0m-1.67-.98l1.19.69c.1.06.09.15 0 .22l-1.13.66a.42.42 0 01-.38 0l-1.19-.69c-.1-.05-.09-.15 0-.22l1.13-.65a.43.43 0 01.38 0m-1.68-.98l1.23.65c.1.06.08.15 0 .22l-1.13.65a.4.4 0 01-.38 0l-1.19-.69c-.1-.05-.09-.15 0-.22l1.14-.65a.43.43 0 01.38 0m-1.73-.93l1.19.69c.09.05.08.15 0 .22l-1.14.65a.43.43 0 01-.38 0l-1.19-.69c-.09-.06-.08-.15 0-.22l1.14-.65a.4.4 0 01.38 0zm-3.77-2.17l3.27 1.89c.1.05.09.15 0 .22l-1.14.65a.43.43 0 01-.38 0l-3.27-1.89c-.1-.06-.09-.16 0-.22l1.14-.66a.42.42 0 01.38 0m22.28 12.87l1.62.94c.1.05.09.15 0 .21l-1.13.66a.46.46 0 01-.38 0l-1.65-.88c-.1-.06-.09-.16 0-.22l1.14-.66a.421.421 0 01.38 0m-28.85-9.12l23.9 13.8c.1.06.09.15 0 .22l-.57.33a.4.4 0 01-.37 0l-23.91-13.8c-.09 0-.08-.15 0-.22l.57-.32a.43.43 0 01.38 0" fill="#3A2C6D"/><path d="M61.88 71.55l-.15.09-4.12 2.38-7.32-4.23-.15-.08 4.27-2.47 7.47 4.31z" fill="#BFBFBF"/><path d="M61.72 71.64l-4.11 2.38-7.32-4.23 4.12-2.37 7.31 4.22zm11.9 5.46v.37a1.5 1.5 0 01-.75 1.3l-14.5 8.37a1.53 1.53 0 01-1.51 0L30.62 71.99a1.49 1.49 0 01-.75-1.3v-.37l27.74 16 16.01-9.22z" fill="#E5E5E5"/><path d="M57.61 86.35v1a1.58 1.58 0 01-.75-.19L30.62 71.99a1.5 1.5 0 01-.76-1.3v-.37l27.75 16.03z" fill="#E5E5E5"/><path d="M57.19 86.57a1.79 1.79 0 01-1.53-.12L29.53 71.36a1.8 1.8 0 01-.87-1.24L25.8 53.06a1.464 1.464 0 010-.29 1.8 1.8 0 01.52-1.27l27.16 15.68a1.352 1.352 0 01.64.92l3.07 18.47z" fill="#F4F4F4"/><path d="M57.61 86.35l-.18.1-.24.12L54.1 68.1a1.352 1.352 0 00-.64-.92L26.3 51.5c.11-.104.23-.195.36-.27l27.22 15.71a1.308 1.308 0 01.64.92l3.09 18.49z" fill="#E5E5E5"/></g><defs><clipPath id="clip0_173_12167"><path fill="#fff" d="M0 0h498.88v314.38H0z"/></clipPath></defs></svg>