<svg width="26" height="26" viewBox="0 0 24 24" fill="none" xmlns="http://www.w3.org/2000/svg"><linearGradient id="a" x1="0%" y1="0%" x2="100%" y2="0%"><stop offset="0%" stop-color="#ea5c2f"/><stop offset="100%" stop-color="#f3b921"/></linearGradient><path fill-rule="evenodd" clip-rule="evenodd" d="M11.5 22.74c6.207 0 11.239-5.032 11.239-11.24C22.739 5.294 17.707.263 11.5.263 5.293.262.261 5.293.261 11.5S5.293 22.738 11.5 22.738z" fill="url(#a)"/><path fill-rule="evenodd" clip-rule="evenodd" d="M11.5 12.795l6.484-5.62H5.016l6.484 5.62zm-1.751-.622l1.75 1.438 1.725-1.438 4.76 4.08H5.016l4.733-4.08zm-5.165 3.648V7.608l4.755 4.106-4.755 4.107zm13.832 0V7.608l-4.755 4.106 4.755 4.107z" fill="#fff"/></svg>