<svg width="64" height="64" viewBox="0 0 64 64" fill="none" xmlns="http://www.w3.org/2000/svg">
<rect width="64" height="64" rx="9" fill="#717171"/>
<path d="M41.1426 22.0952V16H39.6188V22.0952H41.1426Z" fill="white"/>
<path d="M24.3807 22.0952V16H22.8569V22.0952H24.3807Z" fill="white"/>
<path d="M17.1426 21.3333C17.1426 21.1229 17.3132 20.9524 17.5236 20.9524H21.3331V18.6667H17.5236C16.0508 18.6667 14.8569 19.8606 14.8569 21.3333V42.6667C14.8569 44.1394 16.0508 45.3333 17.5236 45.3333H46.476C47.9487 45.3333 49.1426 44.1394 49.1426 42.6667V21.3333C49.1426 19.8606 47.9487 18.6667 46.476 18.6667H42.6665V20.9524H46.476C46.6864 20.9524 46.8569 21.1229 46.8569 21.3333V42.6667C46.8569 42.8771 46.6864 43.0476 46.476 43.0476H17.5236C17.3132 43.0476 17.1426 42.8771 17.1426 42.6667V21.3333Z" fill="white"/>
<path d="M38.095 18.6667H25.9046V20.9524H38.095V18.6667Z" fill="white"/>
<path d="M24.3807 32.381C24.3807 33.0121 23.8691 33.5238 23.2379 33.5238C22.6067 33.5238 22.095 33.0121 22.095 32.381C22.095 31.7498 22.6067 31.2381 23.2379 31.2381C23.8691 31.2381 24.3807 31.7498 24.3807 32.381Z" fill="white"/>
<path d="M23.2379 28.1905C23.8691 28.1905 24.3807 27.6788 24.3807 27.0476C24.3807 26.4164 23.8691 25.9048 23.2379 25.9048C22.6067 25.9048 22.095 26.4164 22.095 27.0476C22.095 27.6788 22.6067 28.1905 23.2379 28.1905Z" fill="white"/>
<path d="M30.476 32.381C30.476 33.0121 29.9643 33.5238 29.3331 33.5238C28.7019 33.5238 28.1903 33.0121 28.1903 32.381C28.1903 31.7498 28.7019 31.2381 29.3331 31.2381C29.9643 31.2381 30.476 31.7498 30.476 32.381Z" fill="white"/>
<path d="M29.3331 28.1905C29.9643 28.1905 30.476 27.6788 30.476 27.0476C30.476 26.4164 29.9643 25.9048 29.3331 25.9048C28.7019 25.9048 28.1903 26.4164 28.1903 27.0476C28.1903 27.6788 28.7019 28.1905 29.3331 28.1905Z" fill="white"/>
<path d="M36.5712 32.381C36.5712 33.0121 36.0595 33.5238 35.4284 33.5238C34.7972 33.5238 34.2855 33.0121 34.2855 32.381C34.2855 31.7498 34.7972 31.2381 35.4284 31.2381C36.0595 31.2381 36.5712 31.7498 36.5712 32.381Z" fill="white"/>
<path d="M35.4284 28.1905C36.0595 28.1905 36.5712 27.6788 36.5712 27.0476C36.5712 26.4164 36.0595 25.9048 35.4284 25.9048C34.7972 25.9048 34.2855 26.4164 34.2855 27.0476C34.2855 27.6788 34.7972 28.1905 35.4284 28.1905Z" fill="white"/>
<path d="M42.6665 32.381C42.6665 33.0121 42.1548 33.5238 41.5236 33.5238C40.8924 33.5238 40.3807 33.0121 40.3807 32.381C40.3807 31.7498 40.8924 31.2381 41.5236 31.2381C42.1548 31.2381 42.6665 31.7498 42.6665 32.381Z" fill="white"/>
<path d="M41.5236 28.1905C42.1548 28.1905 42.6665 27.6788 42.6665 27.0476C42.6665 26.4164 42.1548 25.9048 41.5236 25.9048C40.8924 25.9048 40.3807 26.4164 40.3807 27.0476C40.3807 27.6788 40.8924 28.1905 41.5236 28.1905Z" fill="white"/>
<path d="M42.6665 37.7143C42.6665 38.3455 42.1548 38.8571 41.5236 38.8571C40.8924 38.8571 40.3807 38.3455 40.3807 37.7143C40.3807 37.0831 40.8924 36.5714 41.5236 36.5714C42.1548 36.5714 42.6665 37.0831 42.6665 37.7143Z" fill="white"/>
<path d="M35.4284 38.8571C36.0595 38.8571 36.5712 38.3455 36.5712 37.7143C36.5712 37.0831 36.0595 36.5714 35.4284 36.5714C34.7972 36.5714 34.2855 37.0831 34.2855 37.7143C34.2855 38.3455 34.7972 38.8571 35.4284 38.8571Z" fill="white"/>
<path d="M30.476 37.7143C30.476 38.3455 29.9643 38.8571 29.3331 38.8571C28.7019 38.8571 28.1903 38.3455 28.1903 37.7143C28.1903 37.0831 28.7019 36.5714 29.3331 36.5714C29.9643 36.5714 30.476 37.0831 30.476 37.7143Z" fill="white"/>
<path d="M23.2379 38.8571C23.8691 38.8571 24.3807 38.3455 24.3807 37.7143C24.3807 37.0831 23.8691 36.5714 23.2379 36.5714C22.6067 36.5714 22.095 37.0831 22.095 37.7143C22.095 38.3455 22.6067 38.8571 23.2379 38.8571Z" fill="white"/>
</svg>
