<svg width="64" height="64" viewBox="0 0 64 64" fill="none" xmlns="http://www.w3.org/2000/svg">
<rect width="64" height="64" rx="9" fill="#717171"/>
<path fill-rule="evenodd" clip-rule="evenodd" d="M17.5 21.8096C17.5 21.5334 17.7239 21.3096 18 21.3096H46C46.2761 21.3096 46.5 21.5334 46.5 21.8096V42.1905C46.5 42.4667 46.2761 42.6905 46 42.6905H18C17.7239 42.6905 17.5 42.4667 17.5 42.1905V21.8096ZM18 18.3096C16.067 18.3096 14.5 19.8766 14.5 21.8096V42.1905C14.5 44.1235 16.067 45.6905 18 45.6905H46C47.933 45.6905 49.5 44.1235 49.5 42.1905V21.8096C49.5 19.8766 47.933 18.3096 46 18.3096H18ZM17.6718 23.6465L31.3861 34.3132C31.7472 34.5941 32.2528 34.5941 32.6139 34.3132L46.3282 23.6465L45.1003 22.0678L32 32.257L18.8997 22.0678L17.6718 23.6465Z" fill="white"/>
</svg>
