<svg width="64" height="64" viewBox="0 0 64 64" fill="none" xmlns="http://www.w3.org/2000/svg">
<rect width="64" height="64" rx="8" fill="#717171"/>
<path d="M22.0952 22.8572H16V24.381H22.0952V22.8572Z" fill="white"/>
<path d="M22.0952 39.6191H16V41.1429H22.0952V39.6191Z" fill="white"/>
<path d="M21.3333 46.8572C21.1229 46.8572 20.9524 46.6866 20.9524 46.4762V42.6667H18.6667V46.4762C18.6667 47.949 19.8606 49.1429 21.3333 49.1429H42.6667C44.1394 49.1429 45.3333 47.949 45.3333 46.4762V17.5238C45.3333 16.0511 44.1394 14.8572 42.6667 14.8572H21.3333C19.8606 14.8572 18.6667 16.0511 18.6667 17.5238V21.3334H20.9524V17.5238C20.9524 17.3135 21.1229 17.1429 21.3333 17.1429H42.6667C42.8771 17.1429 43.0476 17.3135 43.0476 17.5238V46.4762C43.0476 46.6866 42.8771 46.8572 42.6667 46.8572H21.3333Z" fill="white"/>
<path d="M18.6667 25.9048V38.0953H20.9524V25.9048H18.6667Z" fill="white"/>
<path fill-rule="evenodd" clip-rule="evenodd" d="M37.331 33.566C38.7181 34.7627 39.619 36.5471 39.619 38.8572V40.381L25.1429 40.381V38.8571C25.1429 36.5471 26.0438 34.7627 27.4309 33.566C28.8023 32.3828 30.6056 31.8096 32.381 31.8096C34.1563 31.8096 35.9596 32.3829 37.331 33.566ZM28.4263 34.7198C27.3848 35.6183 26.6667 36.9767 26.6667 38.8571L38.0952 38.8572C38.0952 36.9768 37.3771 35.6183 36.3356 34.7198C35.2785 33.8077 33.8437 33.3334 32.3809 33.3334C30.9182 33.3334 29.4834 33.8077 28.4263 34.7198Z" fill="white"/>
<path fill-rule="evenodd" clip-rule="evenodd" d="M35.8095 27.0477C35.8095 28.9412 34.2745 30.4762 32.381 30.4762C30.4874 30.4762 28.9524 28.9412 28.9524 27.0477C28.9524 25.1541 30.4874 23.6191 32.381 23.6191C34.2745 23.6191 35.8095 25.1541 35.8095 27.0477ZM34.2857 27.0477C34.2857 28.0996 33.4329 28.9524 32.381 28.9524C31.329 28.9524 30.4762 28.0996 30.4762 27.0477C30.4762 25.9957 31.329 25.1429 32.381 25.1429C33.4329 25.1429 34.2857 25.9957 34.2857 27.0477Z" fill="white"/>
</svg>
