<svg width="32" height="32" viewBox="0 0 32 32" fill="none" xmlns="http://www.w3.org/2000/svg">
<path d="M1.00244 22L4.66111 17.8373C5.85577 16.4436 6.56511 15.5787 6.78911 15.2427C7.27444 14.5209 7.51711 13.8551 7.51711 13.2453C7.51711 12.6853 7.33666 12.2311 6.97578 11.8827C6.62733 11.5342 6.19177 11.36 5.66911 11.36C5.07177 11.36 4.59889 11.5653 4.25044 11.976C3.902 12.3742 3.71533 12.8596 3.69044 13.432H1.18911C1.23889 12.1751 1.66822 11.1671 2.47711 10.408C3.286 9.6489 4.31266 9.26935 5.55711 9.26935C6.926 9.26935 7.99622 9.66135 8.76778 10.4453C9.55178 11.2293 9.94377 12.1565 9.94377 13.2267C9.94377 13.824 9.80689 14.4213 9.53311 15.0187C9.25933 15.616 8.998 16.0702 8.74911 16.3813C8.50022 16.68 8.14555 17.0782 7.68511 17.576L5.53844 19.9093H10.0371V22H1.00244Z" fill="white"/>
<path d="M19.3025 9.54935V11.64H15.1212V14.4213H19.0411V16.512H15.1212V22H12.6945V9.54935H19.3025Z" fill="white"/>
<path d="M28.479 22L27.3777 19.3867H22.3564L21.255 22H18.623L23.9804 9.54935H25.8844L31.0924 22H28.479ZM23.1217 17.408H26.6684L24.895 12.928L23.1217 17.408Z" fill="white"/>
</svg>
