<svg width="32" height="32" viewBox="0 0 32 32" fill="none" xmlns="http://www.w3.org/2000/svg">
<path d="M29.9998 5.33333C29.9998 7.17428 28.5074 8.66667 26.6664 8.66667C25.1739 8.66667 23.9104 7.6857 23.4857 6.33333H8.66597C6.89902 6.33333 5.66414 6.9163 4.87344 7.70707C4.07333 8.50726 3.66648 9.58064 3.6665 10.6666C3.66653 11.7526 4.07343 12.826 4.87358 13.6263C5.66431 14.417 6.89917 15 8.66597 15H23.3326C25.5656 15 27.3305 15.7504 28.5397 16.9596C29.7395 18.1594 30.3326 19.7526 30.3326 21.3333C30.3326 22.914 29.7395 24.5073 28.5397 25.7071C27.3305 26.9163 25.5656 27.6667 23.3326 27.6667H8.51382C8.08907 29.019 6.82564 30 5.33309 30C3.49214 30 1.99976 28.5076 1.99976 26.6667C1.99976 24.8257 3.49214 23.3333 5.33309 23.3333C6.82564 23.3333 8.08907 24.3143 8.51382 25.6667H23.3326C25.0997 25.6667 26.3347 25.0837 27.1255 24.2929C27.9257 23.4927 28.3326 22.4193 28.3326 21.3333C28.3326 20.2474 27.9257 19.174 27.1255 18.3738C26.3347 17.583 25.0997 17 23.3326 17H8.66597C6.43326 17 4.66842 16.2496 3.45931 15.0404C2.25961 13.8406 1.66654 12.2474 1.6665 10.6667C1.66647 9.08602 2.25946 7.49274 3.45916 6.29293C4.66827 5.0837 6.43315 4.33333 8.66597 4.33333H23.4857C23.9104 2.98096 25.1739 2 26.6664 2C28.5074 2 29.9998 3.49238 29.9998 5.33333Z" fill="white"/>
</svg>
