<svg width="32" height="32" viewBox="0 0 32 32" fill="none" xmlns="http://www.w3.org/2000/svg">
<path fill-rule="evenodd" clip-rule="evenodd" d="M15.3333 0.666687C22.6971 0.666687 28.6667 3.50222 28.6667 7.00002V13.7317C28.0189 13.5027 27.3274 13.3664 26.608 13.3386C26.6495 13.2099 26.6667 13.096 26.6667 13V10.338C24.3144 12.1361 20.1182 13.3334 15.3333 13.3334C10.5485 13.3334 6.35228 12.1361 4 10.338V13C4 13.5291 4.52277 14.6075 6.76336 15.6718C8.85318 16.6645 11.8808 17.3334 15.3333 17.3334C16.9994 17.3334 18.5666 17.1776 19.9772 16.9048C19.5731 17.5683 19.2792 18.2987 19.1245 19.0737C17.9228 19.2427 16.6504 19.3334 15.3333 19.3334C10.5485 19.3334 6.35228 18.1361 4 16.338V19C4 19.5291 4.52277 20.6075 6.76336 21.6718C8.85318 22.6645 11.8808 23.3334 15.3333 23.3334C15.9208 23.3334 16.496 23.314 17.0564 23.2769L15.0019 25.3314C10.3551 25.2776 6.29781 24.0945 4 22.338V25C4 25.5291 4.52277 26.6075 6.76336 27.6718C8.43872 28.4676 10.7168 29.0553 13.3333 29.2571V31.2626C6.91832 30.8042 2 28.1749 2 25V7.00002C2 3.50222 7.96954 0.666687 15.3333 0.666687ZM23.9033 9.67181C26.1439 8.60753 26.6667 7.52908 26.6667 7.00002C26.6667 6.47096 26.1439 5.39251 23.9033 4.32823C21.8135 3.33557 18.7858 2.66669 15.3333 2.66669C11.8808 2.66669 8.85318 3.33557 6.76336 4.32823C4.52277 5.39251 4 6.47096 4 7.00002C4 7.52908 4.52277 8.60753 6.76336 9.67181C8.85318 10.6645 11.8808 11.3334 15.3333 11.3334C18.7858 11.3334 21.8135 10.6645 23.9033 9.67181Z" fill="white"/>
<path d="M26.7619 21.0476C27.3931 21.0476 27.9048 20.536 27.9048 19.9048C27.9048 19.2736 27.3931 18.7619 26.7619 18.7619C26.1307 18.7619 25.619 19.2736 25.619 19.9048C25.619 20.536 26.1307 21.0476 26.7619 21.0476Z" fill="white"/>
<path fill-rule="evenodd" clip-rule="evenodd" d="M26.1905 25.6191C29.0308 25.6191 31.3333 23.3165 31.3333 20.4762C31.3333 17.6359 29.0308 15.3334 26.1905 15.3334C23.3502 15.3334 21.0476 17.6359 21.0476 20.4762C21.0476 20.9828 21.1209 21.4722 21.2573 21.9346L15.3333 27.8586V31.3334H18.8081L24.7321 25.4094C25.1945 25.5458 25.6839 25.6191 26.1905 25.6191ZM26.1905 24.4762C28.3996 24.4762 30.1905 22.6853 30.1905 20.4762C30.1905 18.2671 28.3996 16.4762 26.1905 16.4762C23.9813 16.4762 22.1905 18.2671 22.1905 20.4762C22.1905 22.6853 23.9813 24.4762 26.1905 24.4762ZM16.4762 28.332L21.7448 23.0634C22.193 23.8319 22.8348 24.4737 23.6033 24.9219L22.1905 26.3348L21.2381 25.3824L20.43 26.1905L21.3824 27.1429L20.2857 28.2395L19.3333 27.2871L18.5252 28.0953L19.4776 29.0476L18.3347 30.1905H16.4762V28.332Z" fill="white"/>
</svg>
