<svg width="32" height="32" viewBox="0 0 32 32" fill="none" xmlns="http://www.w3.org/2000/svg">
<path d="M25.5655 16C26.862 14.7295 27.6665 12.9587 27.6665 11C27.6665 7.13401 24.5325 4 20.6665 4C16.8005 4 13.6665 7.13401 13.6665 11C13.6665 12.0807 13.9114 13.1042 14.3487 14.018L14.057 14.3096L14.0807 14.3333L3.6665 24.7475V28H6.91896L8.91896 26L7.25229 24.3333L8.6665 22.9191L10.3332 24.5858L12.2523 22.6667L10.5856 21L11.9998 19.5858L13.6665 21.2525L16.9998 17.9191L18.4141 19.3333L7.74738 30H1.6665V23.9191L12.0335 13.5521C11.7947 12.743 11.6665 11.8865 11.6665 11C11.6665 6.02944 15.6959 2 20.6665 2C25.6371 2 29.6665 6.02944 29.6665 11C29.6665 12.8501 29.1082 14.5699 28.151 16H25.5655Z" fill="white"/>
<path d="M21.6665 12C22.7711 12 23.6665 11.1046 23.6665 10C23.6665 8.89543 22.7711 8 21.6665 8C20.5619 8 19.6665 8.89543 19.6665 10C19.6665 11.1046 20.5619 12 21.6665 12Z" fill="white"/>
<path fill-rule="evenodd" clip-rule="evenodd" d="M20.6665 17.6667C20.4013 17.6667 20.1469 17.772 19.9594 17.9596C19.7719 18.1471 19.6665 18.4015 19.6665 18.6667V23.7777C19.6665 24.8815 20.0742 26.4041 21.3355 27.5252C21.945 28.067 22.7164 28.477 23.2891 28.7413C23.5839 28.8773 23.8443 28.983 24.0321 29.0551C24.1263 29.0913 24.203 29.1193 24.2574 29.1386C24.2847 29.1484 24.3064 29.1559 24.3221 29.1613L24.3409 29.1678L24.3468 29.1698L24.3489 29.1704L24.3496 29.1707C24.3498 29.1707 24.3503 29.1709 24.6665 28.2222L24.3503 29.1709L24.6778 29.2801L25.0028 29.164L24.6665 28.2222C25.0028 29.164 25.0027 29.164 25.0028 29.164L25.0035 29.1637L25.0042 29.1635L25.0062 29.1628L25.0119 29.1607L25.0298 29.1541C25.039 29.1508 25.0503 29.1466 25.0637 29.1415C25.072 29.1384 25.0811 29.135 25.0909 29.1312C25.1423 29.1117 25.2146 29.0835 25.3034 29.0472C25.4807 28.9748 25.7267 28.8688 26.0068 28.7326C26.5536 28.4666 27.2866 28.0584 27.8864 27.5252C29.0786 26.4655 29.6666 25.2019 29.6665 23.7777V18.6667C29.6665 18.4015 29.5612 18.1471 29.3736 17.9596C29.1861 17.772 28.9317 17.6667 28.6665 17.6667H20.6665ZM21.6665 19.6667H27.6665L27.6665 23.7778C27.6665 24.5759 27.3655 25.3123 26.5577 26.0304C26.1575 26.3861 25.6128 26.7001 25.1318 26.9341C24.9508 27.0222 24.7868 27.0951 24.6544 27.1511C24.5096 27.0938 24.3277 27.0179 24.1272 26.9254C23.6166 26.6897 23.0547 26.3775 22.6642 26.0304C21.9254 25.3737 21.6665 24.4518 21.6665 23.7778L21.6665 19.6667Z" fill="white"/>
</svg>
