<svg width="32" height="32" viewBox="0 0 32 32" fill="none" xmlns="http://www.w3.org/2000/svg">
<path d="M3.3335 7.00002C3.33349 6.81593 3.48273 6.66669 3.66683 6.66669H27.667C27.8511 6.66669 28.0004 6.81593 28.0004 7.00002V15H30.0004V7.00002C30.0004 5.71136 28.9557 4.66669 27.667 4.66669H3.66683C2.37815 4.66669 1.33348 5.71137 1.3335 7.00005L1.33369 24.3334C1.3337 25.622 2.37837 26.6667 3.66702 26.6667H21.0248C20.5175 26.0746 20.1732 25.4102 19.9582 24.6667H3.66702C3.48293 24.6667 3.33369 24.5175 3.33369 24.3334L3.3335 7.00002Z" fill="white"/>
<path d="M5.42334 7.81736C5.13838 7.58421 4.71836 7.62621 4.48521 7.91118C4.25206 8.19614 4.29406 8.61616 4.57903 8.84931L15.579 17.8493C15.8306 18.0551 16.1939 18.0495 16.439 17.8361L26.7724 8.83606C27.05 8.59424 27.0791 8.17313 26.8372 7.89548C26.5954 7.61784 26.1743 7.58879 25.8967 7.83061L15.9877 16.461L5.42334 7.81736Z" fill="white"/>
<path d="M28.3128 19.9951C28.443 20.1253 28.443 20.3363 28.3128 20.4665L25.7487 23.0306C25.6185 23.1608 25.4075 23.1608 25.2773 23.0306L24.1491 21.9024C24.0189 21.7722 24.0189 21.5612 24.1491 21.431C24.2793 21.3008 24.4903 21.3008 24.6205 21.431L25.513 22.3235L27.8414 19.9951C27.9716 19.8649 28.1826 19.8649 28.3128 19.9951Z" fill="white"/>
<path fill-rule="evenodd" clip-rule="evenodd" d="M21.8621 17.1953C21.9871 17.0703 22.1567 17 22.3335 17H29.7181C29.8949 17 30.0645 17.0703 30.1895 17.1953C30.3145 17.3203 30.3848 17.4899 30.3848 17.6667V22.3846C30.3848 23.6189 29.8789 24.7178 28.8277 25.6521C28.2996 26.1216 27.6471 26.4863 27.1508 26.7277C26.8982 26.8506 26.6763 26.9462 26.5168 27.0114C26.4368 27.0441 26.3721 27.0693 26.3264 27.0867C26.3035 27.0953 26.2854 27.1021 26.2726 27.1068L26.2572 27.1124L26.2526 27.1141L26.251 27.1147L26.2502 27.115C26.2501 27.115 26.25 27.115 26.0258 26.4872C25.815 27.1197 25.8149 27.1196 25.8148 27.1196L25.814 27.1193L25.8124 27.1188L25.8075 27.1171L25.7913 27.1116C25.7777 27.1069 25.7585 27.1002 25.7342 27.0916C25.6857 27.0743 25.6169 27.0492 25.5321 27.0166C25.3628 26.9517 25.1278 26.8563 24.8618 26.7335C24.3411 26.4932 23.6559 26.1273 23.1214 25.6521C22.0241 24.6768 21.6668 23.3484 21.6668 22.3846V17.6674L22.3335 17.6667L21.6668 17.6667C21.6668 17.4899 21.7371 17.3203 21.8621 17.1953ZM23.0002 18.3334L23.0002 22.3847C23.0001 23.0619 23.2583 23.9899 24.0072 24.6556C24.3957 25.001 24.9412 25.3017 25.4206 25.5229C25.6546 25.6309 25.8619 25.7151 26.0099 25.7719L26.0178 25.7749C26.156 25.7184 26.3486 25.6352 26.5675 25.5287C27.0199 25.3086 27.5469 25.0067 27.9419 24.6556C28.7368 23.949 29.0515 23.2016 29.0514 22.3847L29.0514 18.3334H23.0002Z" fill="white"/>
<path d="M26.0258 26.4872L26.2502 27.115L26.0333 27.1924L25.8148 27.1196L26.0258 26.4872Z" fill="white"/>
</svg>
