<svg width="56" height="56" viewBox="0 0 56 56" fill="none" xmlns="http://www.w3.org/2000/svg">
<path d="M16.6268 12.25C16.6268 11.7667 17.0185 11.375 17.5018 11.375H37.3351C37.8184 11.375 38.2101 11.7667 38.2101 12.25C38.2101 12.7332 37.8184 13.125 37.3351 13.125H17.5018C17.0185 13.125 16.6268 12.7332 16.6268 12.25Z" fill="#3E77BB"/>
<path d="M17.5018 17.2083C17.0185 17.2083 16.6268 17.6 16.6268 18.0833C16.6268 18.5665 17.0185 18.9583 17.5018 18.9583H37.3354C37.8187 18.9583 38.2104 18.5665 38.2104 18.0833C38.2104 17.6 37.8187 17.2083 37.3354 17.2083H17.5018Z" fill="#3E77BB"/>
<path d="M16.6268 23.9166C16.6268 23.4334 17.0185 23.0416 17.5018 23.0416H37.3351C37.8184 23.0416 38.2101 23.4334 38.2101 23.9166C38.2101 24.3999 37.8184 24.7916 37.3351 24.7916H17.5018C17.0185 24.7916 16.6268 24.3999 16.6268 23.9166Z" fill="#3E77BB"/>
<path d="M17.5018 28.875C17.0185 28.875 16.6268 29.2667 16.6268 29.75C16.6268 30.2332 17.0185 30.625 17.5018 30.625H37.3369C37.8202 30.625 38.2119 30.2332 38.2119 29.75C38.2119 29.2667 37.8202 28.875 37.3369 28.875H17.5018Z" fill="#3E77BB"/>
<path d="M27.7101 35.5833C27.7101 35.1 28.1019 34.7083 28.5851 34.7083H37.3351C37.8184 34.7083 38.2101 35.1 38.2101 35.5833C38.2101 36.0665 37.8184 36.4583 37.3351 36.4583H28.5851C28.1019 36.4583 27.7101 36.0665 27.7101 35.5833Z" fill="#3E77BB"/>
<path fill-rule="evenodd" clip-rule="evenodd" d="M9.91846 1.16663C8.95196 1.16663 8.16846 1.95013 8.16846 2.91663V47.25C8.16846 48.2165 8.95196 49 9.91846 49H15.4601V53.6666C15.4601 54.047 15.7059 54.3838 16.0681 54.4999C16.4303 54.616 16.8261 54.4847 17.0471 54.1752L19.2518 51.0887L21.4564 54.1752C21.6775 54.4847 22.0733 54.616 22.4355 54.4999C22.7977 54.3838 23.0435 54.047 23.0435 53.6666V49H44.9185C45.885 49 46.6685 48.2165 46.6685 47.25V2.91663C46.6685 1.95013 45.885 1.16663 44.9185 1.16663H9.91846ZM23.0435 45.5H43.1685V4.66663H11.6685V45.5H15.4601V43.5164C14.2104 42.4465 13.4185 40.8574 13.4185 39.0833C13.4185 35.8616 16.0301 33.25 19.2518 33.25C22.4735 33.25 25.0851 35.8616 25.0851 39.0833C25.0851 40.8574 24.2931 42.4465 23.0435 43.5164V45.5ZM21.2935 44.5494C20.658 44.7868 19.9701 44.9166 19.2518 44.9166C18.5335 44.9166 17.8456 44.7868 17.2101 44.5494V50.9362L18.5398 49.0747C18.704 48.8448 18.9692 48.7083 19.2518 48.7083C19.5344 48.7083 19.7996 48.8448 19.9638 49.0747L21.2935 50.9362V44.5494ZM23.3351 39.0833C23.3351 41.3385 21.507 43.1666 19.2518 43.1666C16.9966 43.1666 15.1685 41.3385 15.1685 39.0833C15.1685 36.8281 16.9966 35 19.2518 35C21.507 35 23.3351 36.8281 23.3351 39.0833Z" fill="#3E77BB"/>
</svg>
