<svg width="80" height="80" viewBox="0 0 80 80" fill="none" xmlns="http://www.w3.org/2000/svg">
<g filter="url(#filter0_i_657_3897)">
<path d="M27.5 34.7844L42.5 49.7844V68.75C42.5 69.0815 42.3683 69.3995 42.1339 69.6339C41.8995 69.8683 41.5815 70 41.25 70H15C13.6739 70 12.4021 69.4732 11.4645 68.5355C10.5268 67.5979 10 66.3261 10 65V15C10 13.6739 10.5268 12.4021 11.4645 11.4645C12.4021 10.5268 13.6739 10 15 10H21.25C21.5815 10 21.8995 10.1317 22.1339 10.3661C22.3683 10.6005 22.5 10.9185 22.5 11.25V47.9313C20.832 48.521 19.4261 49.6814 18.5309 51.2075C17.6357 52.7335 17.3088 54.5268 17.608 56.2706C17.9072 58.0143 18.8132 59.5962 20.1659 60.7365C21.5185 61.8769 23.2308 62.5023 25 62.5023C26.7692 62.5023 28.4815 61.8769 29.8341 60.7365C31.1868 59.5962 32.0928 58.0143 32.392 56.2706C32.6912 54.5268 32.3643 52.7335 31.4691 51.2075C30.5739 49.6814 29.168 48.521 27.5 47.9313V34.7844ZM25 57.5C25.4945 57.5 25.9778 57.3534 26.3889 57.0787C26.8 56.804 27.1205 56.4135 27.3097 55.9567C27.4989 55.4999 27.5484 54.9972 27.452 54.5123C27.3555 54.0273 27.1174 53.5819 26.7678 53.2322C26.4181 52.8826 25.9727 52.6445 25.4877 52.548C25.0028 52.4516 24.5001 52.5011 24.0433 52.6903C23.5865 52.8795 23.196 53.2 22.9213 53.6111C22.6466 54.0222 22.5 54.5055 22.5 55C22.5 55.663 22.7634 56.2989 23.2322 56.7678C23.7011 57.2366 24.337 57.5 25 57.5ZM57.5 32.5C57.5 32.0055 57.3534 31.5222 57.0787 31.1111C56.804 30.7 56.4135 30.3795 55.9567 30.1903C55.4999 30.0011 54.9972 29.9516 54.5123 30.048C54.0273 30.1445 53.5819 30.3826 53.2322 30.7322C52.8826 31.0819 52.6445 31.5273 52.548 32.0123C52.4516 32.4972 52.5011 32.9999 52.6903 33.4567C52.8795 33.9135 53.2 34.304 53.6111 34.5787C54.0222 34.8534 54.5055 35 55 35C55.663 35 56.2989 34.7366 56.7678 34.2678C57.2366 33.7989 57.5 33.163 57.5 32.5ZM65 10H48.75C48.4185 10 48.1005 10.1317 47.8661 10.3661C47.6317 10.6005 47.5 10.9185 47.5 11.25V21.4656L51.7688 25.7344C53.3652 24.9717 55.1799 24.798 56.8921 25.2439C58.6043 25.6898 60.1037 26.7267 61.1252 28.1713C62.1468 29.6158 62.6248 31.3751 62.4747 33.138C62.3246 34.9009 61.5561 36.554 60.3051 37.8051C59.054 39.0561 57.4009 39.8246 55.638 39.9747C53.8751 40.1248 52.1158 39.6468 50.6713 38.6252C49.2267 37.6037 48.1898 36.1043 47.7439 34.3921C47.298 32.6799 47.4717 30.8652 48.2344 29.2688L43.2344 24.2688C43.0017 24.0367 42.8171 23.761 42.6911 23.4575C42.5651 23.154 42.5002 22.8286 42.5 22.5V11.25C42.5 10.9185 42.3683 10.6005 42.1339 10.3661C41.8995 10.1317 41.5815 10 41.25 10H28.75C28.4185 10 28.1005 10.1317 27.8661 10.3661C27.6317 10.6005 27.5 10.9185 27.5 11.25V27.7156L46.7688 46.9812C47.0008 47.2136 47.1849 47.4894 47.3103 47.7929C47.4358 48.0964 47.5003 48.4216 47.5 48.75V68.75C47.5 69.0815 47.6317 69.3995 47.8661 69.6339C48.1005 69.8683 48.4185 70 48.75 70H65C66.3261 70 67.5979 69.4732 68.5355 68.5355C69.4732 67.5979 70 66.3261 70 65V15C70 13.6739 69.4732 12.4021 68.5355 11.4645C67.5979 10.5268 66.3261 10 65 10Z" fill="#1914FE"/>
</g>
<defs>
<filter id="filter0_i_657_3897" x="0" y="0" width="80" height="80" filterUnits="userSpaceOnUse" color-interpolation-filters="sRGB">
<feFlood flood-opacity="0" result="BackgroundImageFix"/>
<feBlend mode="normal" in="SourceGraphic" in2="BackgroundImageFix" result="shape"/>
<feColorMatrix in="SourceAlpha" type="matrix" values="0 0 0 0 0 0 0 0 0 0 0 0 0 0 0 0 0 0 127 0" result="hardAlpha"/>
<feMorphology radius="4" operator="erode" in="SourceAlpha" result="effect1_innerShadow_657_3897"/>
<feOffset/>
<feGaussianBlur stdDeviation="4"/>
<feComposite in2="hardAlpha" operator="arithmetic" k2="-1" k3="1"/>
<feColorMatrix type="matrix" values="0 0 0 0 1 0 0 0 0 1 0 0 0 0 1 0 0 0 0.9 0"/>
<feBlend mode="normal" in2="shape" result="effect1_innerShadow_657_3897"/>
</filter>
</defs>
</svg>
