<svg width="80" height="80" viewBox="0 0 80 80" fill="none" xmlns="http://www.w3.org/2000/svg">
<g id="CloudArrowUp" filter="url(#filter0_i_236_7482)">
<path id="Vector" d="M77.4781 38.9125C76.9094 24.2312 64.7094 12.5 50.0187 12.5C44.9084 12.5008 39.8991 13.9239 35.5517 16.6101C31.2043 19.2963 27.6903 23.1394 25.4031 27.7094C23.5022 31.498 22.5083 35.6768 22.5 39.9156C22.5098 40.5597 22.2761 41.1837 21.8456 41.6629C21.4151 42.142 20.8196 42.441 20.1781 42.5C19.8352 42.5245 19.4908 42.478 19.1666 42.3634C18.8424 42.2487 18.5454 42.0685 18.294 41.8338C18.0427 41.5992 17.8424 41.3153 17.7058 40.9997C17.5692 40.6842 17.4991 40.3438 17.5 40C17.4974 36.5032 18.0609 33.0291 19.1688 29.7125C19.2417 29.4998 19.256 29.2714 19.2101 29.0513C19.1642 28.8312 19.0597 28.6276 18.9077 28.4619C18.7558 28.2962 18.5619 28.1745 18.3466 28.1097C18.1313 28.0449 17.9026 28.0394 17.6844 28.0938C13.3526 29.1734 9.50568 31.6694 6.75462 35.1854C4.00357 38.7014 2.50609 43.0357 2.5 47.5C2.5 58.4969 11.7969 67.5 22.8125 67.5H50C53.7017 67.496 57.3646 66.7455 60.7696 65.2933C64.1746 63.8411 67.2518 61.7171 69.817 59.0483C72.3822 56.3795 74.3828 53.2208 75.6992 49.761C77.0155 46.3012 77.6206 42.6115 77.4781 38.9125ZM59.2688 46.7688C59.0366 47.0012 58.7608 47.1856 58.4574 47.3114C58.1539 47.4372 57.8285 47.502 57.5 47.502C57.1715 47.502 56.8461 47.4372 56.5426 47.3114C56.2392 47.1856 55.9634 47.0012 55.7312 46.7688L50 41.0344V60C50 60.663 49.7366 61.2989 49.2678 61.7678C48.7989 62.2366 48.163 62.5 47.5 62.5C46.837 62.5 46.2011 62.2366 45.7322 61.7678C45.2634 61.2989 45 60.663 45 60V41.0344L39.2688 46.7688C39.0365 47.001 38.7607 47.1853 38.4572 47.311C38.1538 47.4367 37.8285 47.5014 37.5 47.5014C37.1715 47.5014 36.8462 47.4367 36.5428 47.311C36.2393 47.1853 35.9635 47.001 35.7312 46.7688C35.499 46.5365 35.3147 46.2607 35.189 45.9572C35.0633 45.6538 34.9986 45.3285 34.9986 45C34.9986 44.6715 35.0633 44.3462 35.189 44.0428C35.3147 43.7393 35.499 43.4635 35.7312 43.2312L45.7312 33.2312C45.9634 32.9988 46.2392 32.8144 46.5426 32.6886C46.8461 32.5628 47.1715 32.498 47.5 32.498C47.8285 32.498 48.1539 32.5628 48.4574 32.6886C48.7608 32.8144 49.0366 32.9988 49.2688 33.2312L59.2688 43.2312C59.5012 43.4634 59.6856 43.7392 59.8114 44.0426C59.9372 44.3461 60.002 44.6715 60.002 45C60.002 45.3285 59.9372 45.6539 59.8114 45.9574C59.6856 46.2608 59.5012 46.5366 59.2688 46.7688Z" fill="#1914FE"/>
</g>
<defs>
<filter id="filter0_i_236_7482" x="0" y="0" width="80" height="80" filterUnits="userSpaceOnUse" color-interpolation-filters="sRGB">
<feFlood flood-opacity="0" result="BackgroundImageFix"/>
<feBlend mode="normal" in="SourceGraphic" in2="BackgroundImageFix" result="shape"/>
<feColorMatrix in="SourceAlpha" type="matrix" values="0 0 0 0 0 0 0 0 0 0 0 0 0 0 0 0 0 0 127 0" result="hardAlpha"/>
<feMorphology radius="4" operator="erode" in="SourceAlpha" result="effect1_innerShadow_236_7482"/>
<feOffset/>
<feGaussianBlur stdDeviation="4"/>
<feComposite in2="hardAlpha" operator="arithmetic" k2="-1" k3="1"/>
<feColorMatrix type="matrix" values="0 0 0 0 1 0 0 0 0 1 0 0 0 0 1 0 0 0 0.9 0"/>
<feBlend mode="normal" in2="shape" result="effect1_innerShadow_236_7482"/>
</filter>
</defs>
</svg>
