<svg width="80" height="80" viewBox="0 0 80 80" fill="none" xmlns="http://www.w3.org/2000/svg">
<g id="Headset" filter="url(#filter0_i_236_7511)">
<path id="Vector" d="M72.5 39.9999V64.9999C72.5 68.3152 71.183 71.4946 68.8388 73.8388C66.4946 76.183 63.3152 77.4999 60 77.4999H42.5C41.837 77.4999 41.2011 77.2366 40.7322 76.7677C40.2634 76.2989 40 75.663 40 74.9999C40 74.3369 40.2634 73.701 40.7322 73.2322C41.2011 72.7633 41.837 72.4999 42.5 72.4999H60C61.9891 72.4999 63.8968 71.7098 65.3033 70.3032C66.7098 68.8967 67.5 66.9891 67.5 64.9999H60C58.0109 64.9999 56.1032 64.2098 54.6967 62.8032C53.2902 61.3967 52.5 59.4891 52.5 57.4999V44.9999C52.5 43.0108 53.2902 41.1032 54.6967 39.6966C56.1032 38.2901 58.0109 37.4999 60 37.4999H67.3906C66.9175 32.3029 64.9755 27.3477 61.7912 23.2132C58.607 19.0787 54.3121 15.9356 49.4082 14.151C44.5042 12.3664 39.1938 12.0139 34.097 13.1348C29.0003 14.2558 24.3277 16.8038 20.625 20.4812C16.0208 25.0247 13.181 31.0565 12.6125 37.4999H20C21.9891 37.4999 23.8968 38.2901 25.3033 39.6966C26.7098 41.1032 27.5 43.0108 27.5 44.9999V57.4999C27.5 59.4891 26.7098 61.3967 25.3033 62.8032C23.8968 64.2098 21.9891 64.9999 20 64.9999H15C13.0109 64.9999 11.1032 64.2098 9.6967 62.8032C8.29018 61.3967 7.5 59.4891 7.5 57.4999V39.9999C7.50701 33.5621 9.42382 27.2711 13.0078 21.9232C16.5918 16.5752 21.6819 12.4108 27.6337 9.95697C33.5856 7.50316 40.1316 6.8703 46.4433 8.13848C52.755 9.40666 58.5485 12.5189 63.0906 17.0812C66.0895 20.0947 68.4643 23.6702 70.0789 27.603C71.6935 31.5359 72.5163 35.7486 72.5 39.9999Z" fill="#1914FE"/>
</g>
<defs>
<filter id="filter0_i_236_7511" x="0" y="0" width="80" height="80" filterUnits="userSpaceOnUse" color-interpolation-filters="sRGB">
<feFlood flood-opacity="0" result="BackgroundImageFix"/>
<feBlend mode="normal" in="SourceGraphic" in2="BackgroundImageFix" result="shape"/>
<feColorMatrix in="SourceAlpha" type="matrix" values="0 0 0 0 0 0 0 0 0 0 0 0 0 0 0 0 0 0 127 0" result="hardAlpha"/>
<feMorphology radius="4" operator="erode" in="SourceAlpha" result="effect1_innerShadow_236_7511"/>
<feOffset/>
<feGaussianBlur stdDeviation="4"/>
<feComposite in2="hardAlpha" operator="arithmetic" k2="-1" k3="1"/>
<feColorMatrix type="matrix" values="0 0 0 0 1 0 0 0 0 1 0 0 0 0 1 0 0 0 0.9 0"/>
<feBlend mode="normal" in2="shape" result="effect1_innerShadow_236_7511"/>
</filter>
</defs>
</svg>
