<svg width="80" height="80" viewBox="0 0 80 80" fill="none" xmlns="http://www.w3.org/2000/svg">
<g id="LockLaminated" filter="url(#filter0_i_236_7504)">
<path id="Vector" d="M65 25H55V17.5C55 13.5218 53.4197 9.70644 50.6066 6.8934C47.7936 4.08035 43.9782 2.5 40 2.5C36.0218 2.5 32.2064 4.08035 29.3934 6.8934C26.5804 9.70644 25 13.5218 25 17.5V25H15C13.6739 25 12.4021 25.5268 11.4645 26.4645C10.5268 27.4021 10 28.6739 10 30V65C10 66.3261 10.5268 67.5979 11.4645 68.5355C12.4021 69.4732 13.6739 70 15 70H65C66.3261 70 67.5979 69.4732 68.5355 68.5355C69.4732 67.5979 70 66.3261 70 65V30C70 28.6739 69.4732 27.4021 68.5355 26.4645C67.5979 25.5268 66.3261 25 65 25ZM30 17.5C30 14.8478 31.0536 12.3043 32.9289 10.4289C34.8043 8.55357 37.3478 7.5 40 7.5C42.6522 7.5 45.1957 8.55357 47.0711 10.4289C48.9464 12.3043 50 14.8478 50 17.5V25H30V17.5ZM57.5 60H22.5C21.837 60 21.2011 59.7366 20.7322 59.2678C20.2634 58.7989 20 58.163 20 57.5C20 56.837 20.2634 56.2011 20.7322 55.7322C21.2011 55.2634 21.837 55 22.5 55H57.5C58.163 55 58.7989 55.2634 59.2678 55.7322C59.7366 56.2011 60 56.837 60 57.5C60 58.163 59.7366 58.7989 59.2678 59.2678C58.7989 59.7366 58.163 60 57.5 60ZM57.5 50H22.5C21.837 50 21.2011 49.7366 20.7322 49.2678C20.2634 48.7989 20 48.163 20 47.5C20 46.837 20.2634 46.2011 20.7322 45.7322C21.2011 45.2634 21.837 45 22.5 45H57.5C58.163 45 58.7989 45.2634 59.2678 45.7322C59.7366 46.2011 60 46.837 60 47.5C60 48.163 59.7366 48.7989 59.2678 49.2678C58.7989 49.7366 58.163 50 57.5 50ZM57.5 40H22.5C21.837 40 21.2011 39.7366 20.7322 39.2678C20.2634 38.7989 20 38.163 20 37.5C20 36.837 20.2634 36.2011 20.7322 35.7322C21.2011 35.2634 21.837 35 22.5 35H57.5C58.163 35 58.7989 35.2634 59.2678 35.7322C59.7366 36.2011 60 36.837 60 37.5C60 38.163 59.7366 38.7989 59.2678 39.2678C58.7989 39.7366 58.163 40 57.5 40Z" fill="#1914FE"/>
</g>
<defs>
<filter id="filter0_i_236_7504" x="0" y="0" width="80" height="80" filterUnits="userSpaceOnUse" color-interpolation-filters="sRGB">
<feFlood flood-opacity="0" result="BackgroundImageFix"/>
<feBlend mode="normal" in="SourceGraphic" in2="BackgroundImageFix" result="shape"/>
<feColorMatrix in="SourceAlpha" type="matrix" values="0 0 0 0 0 0 0 0 0 0 0 0 0 0 0 0 0 0 127 0" result="hardAlpha"/>
<feMorphology radius="4" operator="erode" in="SourceAlpha" result="effect1_innerShadow_236_7504"/>
<feOffset/>
<feGaussianBlur stdDeviation="4"/>
<feComposite in2="hardAlpha" operator="arithmetic" k2="-1" k3="1"/>
<feColorMatrix type="matrix" values="0 0 0 0 1 0 0 0 0 1 0 0 0 0 1 0 0 0 0.9 0"/>
<feBlend mode="normal" in2="shape" result="effect1_innerShadow_236_7504"/>
</filter>
</defs>
</svg>
