<svg width="56" height="56" viewBox="0 0 56 56" fill="none" xmlns="http://www.w3.org/2000/svg">
<rect width="56" height="56" rx="9" fill="#1F78E0" fill-opacity="0.5"/>
<path d="M35.875 19.4688V14.2188H34.5625V19.4688H35.875Z" fill="white"/>
<path d="M21.4375 19.4688V14.2188H20.125V19.4688H21.4375Z" fill="white"/>
<path d="M15.2031 18.8125C15.2031 18.6313 15.35 18.4844 15.5312 18.4844H18.8125V16.5156H15.5312C14.2627 16.5156 13.2344 17.544 13.2344 18.8125V37.1875C13.2344 38.456 14.2627 39.4844 15.5312 39.4844H40.4688C41.7373 39.4844 42.7656 38.456 42.7656 37.1875V18.8125C42.7656 17.544 41.7373 16.5156 40.4688 16.5156H37.1875V18.4844H40.4688C40.65 18.4844 40.7969 18.6313 40.7969 18.8125V37.1875C40.7969 37.3687 40.65 37.5156 40.4688 37.5156H15.5312C15.35 37.5156 15.2031 37.3687 15.2031 37.1875V18.8125Z" fill="white"/>
<path d="M33.25 16.5156H22.75V18.4844H33.25V16.5156Z" fill="white"/>
<path d="M21.4375 28.3281C21.4375 28.8718 20.9968 29.3125 20.4531 29.3125C19.9095 29.3125 19.4688 28.8718 19.4688 28.3281C19.4688 27.7845 19.9095 27.3438 20.4531 27.3438C20.9968 27.3438 21.4375 27.7845 21.4375 28.3281Z" fill="white"/>
<path d="M20.4531 24.7188C20.9968 24.7188 21.4375 24.278 21.4375 23.7344C21.4375 23.1907 20.9968 22.75 20.4531 22.75C19.9095 22.75 19.4688 23.1907 19.4688 23.7344C19.4688 24.278 19.9095 24.7188 20.4531 24.7188Z" fill="white"/>
<path d="M26.6875 28.3281C26.6875 28.8718 26.2468 29.3125 25.7031 29.3125C25.1595 29.3125 24.7188 28.8718 24.7188 28.3281C24.7188 27.7845 25.1595 27.3438 25.7031 27.3438C26.2468 27.3438 26.6875 27.7845 26.6875 28.3281Z" fill="white"/>
<path d="M25.7031 24.7188C26.2468 24.7188 26.6875 24.278 26.6875 23.7344C26.6875 23.1907 26.2468 22.75 25.7031 22.75C25.1595 22.75 24.7188 23.1907 24.7188 23.7344C24.7188 24.278 25.1595 24.7188 25.7031 24.7188Z" fill="white"/>
<path d="M31.9375 28.3281C31.9375 28.8718 31.4968 29.3125 30.9531 29.3125C30.4095 29.3125 29.9688 28.8718 29.9688 28.3281C29.9688 27.7845 30.4095 27.3438 30.9531 27.3438C31.4968 27.3438 31.9375 27.7845 31.9375 28.3281Z" fill="white"/>
<path d="M30.9531 24.7188C31.4968 24.7188 31.9375 24.278 31.9375 23.7344C31.9375 23.1907 31.4968 22.75 30.9531 22.75C30.4095 22.75 29.9688 23.1907 29.9688 23.7344C29.9688 24.278 30.4095 24.7188 30.9531 24.7188Z" fill="white"/>
<path d="M37.1875 28.3281C37.1875 28.8718 36.7468 29.3125 36.2031 29.3125C35.6595 29.3125 35.2188 28.8718 35.2188 28.3281C35.2188 27.7845 35.6595 27.3438 36.2031 27.3438C36.7468 27.3438 37.1875 27.7845 37.1875 28.3281Z" fill="white"/>
<path d="M36.2031 24.7188C36.7468 24.7188 37.1875 24.278 37.1875 23.7344C37.1875 23.1907 36.7468 22.75 36.2031 22.75C35.6595 22.75 35.2188 23.1907 35.2188 23.7344C35.2188 24.278 35.6595 24.7188 36.2031 24.7188Z" fill="white"/>
<path d="M37.1875 32.9219C37.1875 33.4655 36.7468 33.9062 36.2031 33.9062C35.6595 33.9062 35.2188 33.4655 35.2188 32.9219C35.2188 32.3782 35.6595 31.9375 36.2031 31.9375C36.7468 31.9375 37.1875 32.3782 37.1875 32.9219Z" fill="white"/>
<path d="M30.9531 33.9062C31.4968 33.9062 31.9375 33.4655 31.9375 32.9219C31.9375 32.3782 31.4968 31.9375 30.9531 31.9375C30.4095 31.9375 29.9688 32.3782 29.9688 32.9219C29.9688 33.4655 30.4095 33.9062 30.9531 33.9062Z" fill="white"/>
<path d="M26.6875 32.9219C26.6875 33.4655 26.2468 33.9062 25.7031 33.9062C25.1595 33.9062 24.7188 33.4655 24.7188 32.9219C24.7188 32.3782 25.1595 31.9375 25.7031 31.9375C26.2468 31.9375 26.6875 32.3782 26.6875 32.9219Z" fill="white"/>
<path d="M20.4531 33.9062C20.9968 33.9062 21.4375 33.4655 21.4375 32.9219C21.4375 32.3782 20.9968 31.9375 20.4531 31.9375C19.9095 31.9375 19.4688 32.3782 19.4688 32.9219C19.4688 33.4655 19.9095 33.9062 20.4531 33.9062Z" fill="white"/>
</svg>
