<svg width="56" height="56" viewBox="0 0 56 56" fill="none" xmlns="http://www.w3.org/2000/svg">
<rect width="56" height="56" rx="9" fill="#1F78E0" fill-opacity="0.5"/>
<path d="M17.2609 19.6184C16.9812 19.388 16.5676 19.428 16.3372 19.7078C16.1068 19.9876 16.1468 20.4012 16.4266 20.6316L27.5828 29.8191C27.8251 30.0186 28.1749 30.0186 28.4172 29.8191L39.5734 20.6316C39.8532 20.4012 39.8932 19.9876 39.6628 19.7078C39.4324 19.428 39.0188 19.388 38.7391 19.6184L28 28.4624L17.2609 19.6184Z" fill="white"/>
<path fill-rule="evenodd" clip-rule="evenodd" d="M15.5312 16.5156C14.2627 16.5156 13.2344 17.544 13.2344 18.8125V37.1875C13.2344 38.456 14.2627 39.4844 15.5312 39.4844H40.4688C41.7373 39.4844 42.7656 38.456 42.7656 37.1875V18.8125C42.7656 17.544 41.7373 16.5156 40.4688 16.5156H15.5312ZM15.2031 18.8125C15.2031 18.6313 15.35 18.4844 15.5312 18.4844H40.4688C40.65 18.4844 40.7969 18.6313 40.7969 18.8125V37.1875C40.7969 37.3687 40.65 37.5156 40.4688 37.5156H15.5312C15.35 37.5156 15.2031 37.3687 15.2031 37.1875V18.8125Z" fill="white"/>
</svg>
