<svg width="1024" height="1024" xmlns="http://www.w3.org/2000/svg"><g transform="translate(298 223)" fill="none" fill-rule="evenodd"><path fill="#D8D8D8" d="M234 0h76v86h-76z"/><path d="M94.9 539.2c.067-22.024.067-51.89 0-89.6 65.401 0 241.395 23.762 237.3-169.19C328.378 100.36 151.53 127.6 95 127.6 85.503 109.448 69.67 79.581 47.5 38c76.644-1.045 131.994-.125 166.05 2.759C347.25 52.079 427.4 166.69 427.4 280.41c0 135.212-77.988 235.411-213.5 256.319-25.46 1.647-65.127 2.471-119 2.471z" fill="#999"/><path fill="#D8D8D8" d="M0 85.2h95v454H0z"/><circle fill="red" cx="47.5" cy="85.7" r="47.5"/></g></svg>