<svg width="42" height="48" fill="none" xmlns="http://www.w3.org/2000/svg"><path d="M11.367 21.332a2.25 2.25 0 11-4.5 0 2.25 2.25 0 014.5 0z" fill="url(#paint0_linear_301_69)" stroke="#fff" stroke-width=".2"/><path d="M18.541 22.923a2.25 2.25 0 11-3.182-3.182 2.25 2.25 0 013.182 3.182z" fill="url(#paint1_linear_301_69)" stroke="#fff" stroke-width=".2"/><path d="M11.367 29.166a2.25 2.25 0 11-4.501 0 2.25 2.25 0 014.5 0z" fill="url(#paint2_linear_301_69)" stroke="#fff" stroke-width=".2"/><path d="M18.541 30.757a2.25 2.25 0 11-3.182-3.182 2.25 2.25 0 013.182 3.182z" fill="url(#paint3_linear_301_69)" stroke="#fff" stroke-width=".2"/><path d="M33.3 38.566a2.25 2.25 0 11-4.5 0 2.25 2.25 0 014.5 0z" fill="url(#paint4_linear_301_69)" stroke="#fff" stroke-width=".2"/><path d="M31.911 32.812a2.25 2.25 0 11-1.722-4.158 2.25 2.25 0 011.722 4.158z" fill="url(#paint5_linear_301_69)" stroke="#fff" stroke-width=".2"/><path d="M8.333 6.543h.1v-4.81A1.467 1.467 0 019.9.268h6.267a1.467 1.467 0 011.466 1.467v4.81h3.406a1.467 1.467 0 011.467 1.466v5.701l.047.03a6.166 6.166 0 012.914 5.242v.1h1.666a14 14 0 0114 14v12.533a1.466 1.466 0 01-1.466 1.467H24c-.042 0-.083-.003-.124-.006h0-21.81A1.467 1.467 0 01.6 45.61V18.983h0a6.167 6.167 0 013.253-5.44l.053-.028V8.01a1.467 1.467 0 011.466-1.467h2.961zM6.84 12.716v.1h12.733v-3.34H6.84v3.24zM19.2 44.043v.1h3.233v-.1h.1v-25.06a3.233 3.233 0 00-3.233-3.234H6.767a3.234 3.234 0 00-3.234 3.234v25.16h3.334v-6.348A3.033 3.033 0 019.9 34.762h6.267a3.033 3.033 0 013.033 3.033v6.248zm-9.4 0v.1h6.467v-6.448H9.8v6.348zm28.3.106h.1V33.083a11.067 11.067 0 00-11.067-11.067h-1.666v22.133H38.1zM14.6 6.543h.1V3.2h-3.333v3.343H14.6z" fill="url(#paint6_linear_301_69)" stroke="#fff" stroke-width=".2"/><defs><linearGradient id="paint0_linear_301_69" x1="6.767" y1="19.685" x2="11.467" y2="19.685" gradientUnits="userSpaceOnUse"><stop stop-color="#1F78E0"/><stop offset="1" stop-color="#00C2FF"/></linearGradient><linearGradient id="paint1_linear_301_69" x1="14.6" y1="19.685" x2="19.3" y2="19.685" gradientUnits="userSpaceOnUse"><stop stop-color="#1F78E0"/><stop offset="1" stop-color="#00C2FF"/></linearGradient><linearGradient id="paint2_linear_301_69" x1="6.767" y1="27.519" x2="11.467" y2="27.519" gradientUnits="userSpaceOnUse"><stop stop-color="#1F78E0"/><stop offset="1" stop-color="#00C2FF"/></linearGradient><linearGradient id="paint3_linear_301_69" x1="14.6" y1="27.519" x2="19.3" y2="27.519" gradientUnits="userSpaceOnUse"><stop stop-color="#1F78E0"/><stop offset="1" stop-color="#00C2FF"/></linearGradient><linearGradient id="paint4_linear_301_69" x1="28.7" y1="36.918" x2="33.4" y2="36.918" gradientUnits="userSpaceOnUse"><stop stop-color="#1F78E0"/><stop offset="1" stop-color="#00C2FF"/></linearGradient><linearGradient id="paint5_linear_301_69" x1="28.7" y1="29.085" x2="33.4" y2="29.085" gradientUnits="userSpaceOnUse"><stop stop-color="#1F78E0"/><stop offset="1" stop-color="#00C2FF"/></linearGradient><linearGradient id="paint6_linear_301_69" x1=".5" y1="7.194" x2="41.233" y2="7.194" gradientUnits="userSpaceOnUse"><stop stop-color="#1F78E0"/><stop offset="1" stop-color="#00C2FF"/></linearGradient></defs></svg>