<svg width="52" height="52" fill="none" xmlns="http://www.w3.org/2000/svg"><path fill-rule="evenodd" clip-rule="evenodd" d="M23.369 15.167c.598 0 1.083.485 1.083 1.083v10.68a4.256 4.256 0 004.256 4.256h5.34a4.255 4.255 0 004.256-4.256V16.25a1.083 1.083 0 112.166 0v10.68a6.423 6.423 0 01-6.422 6.423h-5.34a6.423 6.423 0 01-6.422-6.423V16.25c0-.598.485-1.083 1.083-1.083z" fill="url(#paint0_linear_89_360)"/><path fill-rule="evenodd" clip-rule="evenodd" d="M20.506 12.69c0-.598.485-1.083 1.083-1.083h19.578c.598 0 1.083.485 1.083 1.084v1.78a2.863 2.863 0 01-2.863 2.863h-1.78a1.083 1.083 0 110-2.167h1.78a.697.697 0 00.696-.697v-.696h-17.41v.697a.697.697 0 00.696.696h3.56a1.083 1.083 0 010 2.167h-3.56a2.863 2.863 0 01-2.863-2.864v-1.78z" fill="url(#paint1_linear_89_360)"/><path fill-rule="evenodd" clip-rule="evenodd" d="M30.143 16.25c0-.598.485-1.083 1.084-1.083h1.93a1.083 1.083 0 110 2.167h-1.93a1.083 1.083 0 01-1.084-1.084z" fill="url(#paint2_linear_89_360)"/><path fill-rule="evenodd" clip-rule="evenodd" d="M27.326 5.079a.696.696 0 011.189.492v6.036h-1.393V5.57c0-.185.073-.362.204-.492zm.492-2.371a2.863 2.863 0 00-2.863 2.863v7.12c0 .598.485 1.082 1.084 1.082h3.56c.598 0 1.082-.484 1.082-1.083V5.571a2.863 2.863 0 00-2.863-2.863zm6.627 2.37a.697.697 0 011.189.493v6.036H34.24V5.57c0-.185.073-.362.204-.492zm.492-2.37a2.863 2.863 0 00-2.863 2.863v7.12c0 .598.485 1.082 1.084 1.082h3.56c.598 0 1.083-.484 1.083-1.083V5.571a2.863 2.863 0 00-2.864-2.863z" fill="url(#paint3_linear_89_360)"/><path fill-rule="evenodd" clip-rule="evenodd" d="M27.625 32.268c0-.598.485-1.083 1.083-1.083h5.34c.598 0 1.083.485 1.083 1.083v.89a2.863 2.863 0 01-2.863 2.863h-1.78a2.863 2.863 0 01-2.863-2.863v-.89zm2.194 1.083a.696.696 0 00.67.503h1.779a.696.696 0 00.669-.503h-3.118z" fill="url(#paint4_linear_89_360)"/><path fill-rule="evenodd" clip-rule="evenodd" d="M26.039 17.836c.598 0 1.083.485 1.083 1.083v4.45a1.083 1.083 0 11-2.167 0v-4.45c0-.598.485-1.083 1.084-1.083z" fill="url(#paint5_linear_89_360)"/><path fill-rule="evenodd" clip-rule="evenodd" d="M36.717 20.506c.599 0 1.084.485 1.084 1.083v3.56a1.083 1.083 0 11-2.167 0v-3.56c0-.598.485-1.083 1.083-1.083z" fill="url(#paint6_linear_89_360)"/><path fill-rule="evenodd" clip-rule="evenodd" d="M31.378 33.855c.598 0 1.083.485 1.083 1.083v7.119a1.083 1.083 0 11-2.166 0v-7.12c0-.597.485-1.082 1.083-1.082z" fill="url(#paint7_linear_89_360)"/><path fill-rule="evenodd" clip-rule="evenodd" d="M20.7 40.974c.598 0 1.083.485 1.083 1.083a4.256 4.256 0 008.512 0 1.083 1.083 0 012.166 0 6.423 6.423 0 01-12.845 0c0-.598.485-1.083 1.083-1.083z" fill="url(#paint8_linear_89_360)"/><path fill-rule="evenodd" clip-rule="evenodd" d="M10.819 19.717a6.423 6.423 0 0110.964 4.542 1.083 1.083 0 11-2.167 0 4.256 4.256 0 10-8.512 0 1.083 1.083 0 01-2.166 0c0-1.704.676-3.337 1.88-4.542z" fill="url(#paint9_linear_89_360)"/><path fill-rule="evenodd" clip-rule="evenodd" d="M20.7 23.176c.598 0 1.083.485 1.083 1.083v17.798a1.083 1.083 0 11-2.167 0V24.259c0-.598.485-1.083 1.083-1.083z" fill="url(#paint10_linear_89_360)"/><path fill-rule="evenodd" clip-rule="evenodd" d="M10.02 23.176c.6 0 1.084.485 1.084 1.083v8.899a1.083 1.083 0 01-2.166 0v-8.899c0-.598.485-1.083 1.083-1.083z" fill="url(#paint11_linear_89_360)"/><defs><linearGradient id="paint0_linear_89_360" x1="22.286" y1="17.885" x2="40.47" y2="17.885" gradientUnits="userSpaceOnUse"><stop stop-color="#1F78E0"/><stop offset="1" stop-color="#00C2FF"/></linearGradient><linearGradient id="paint1_linear_89_360" x1="20.506" y1="12.463" x2="42.25" y2="12.463" gradientUnits="userSpaceOnUse"><stop stop-color="#1F78E0"/><stop offset="1" stop-color="#00C2FF"/></linearGradient><linearGradient id="paint2_linear_89_360" x1="30.143" y1="15.491" x2="34.241" y2="15.491" gradientUnits="userSpaceOnUse"><stop stop-color="#1F78E0"/><stop offset="1" stop-color="#00C2FF"/></linearGradient><linearGradient id="paint3_linear_89_360" x1="24.955" y1="4.362" x2="37.801" y2="4.362" gradientUnits="userSpaceOnUse"><stop stop-color="#1F78E0"/><stop offset="1" stop-color="#00C2FF"/></linearGradient><linearGradient id="paint4_linear_89_360" x1="27.625" y1="31.907" x2="35.131" y2="31.907" gradientUnits="userSpaceOnUse"><stop stop-color="#1F78E0"/><stop offset="1" stop-color="#00C2FF"/></linearGradient><linearGradient id="paint5_linear_89_360" x1="24.955" y1="18.825" x2="27.122" y2="18.825" gradientUnits="userSpaceOnUse"><stop stop-color="#1F78E0"/><stop offset="1" stop-color="#00C2FF"/></linearGradient><linearGradient id="paint6_linear_89_360" x1="35.634" y1="21.362" x2="37.801" y2="21.362" gradientUnits="userSpaceOnUse"><stop stop-color="#1F78E0"/><stop offset="1" stop-color="#00C2FF"/></linearGradient><linearGradient id="paint7_linear_89_360" x1="30.295" y1="35.242" x2="32.461" y2="35.242" gradientUnits="userSpaceOnUse"><stop stop-color="#1F78E0"/><stop offset="1" stop-color="#00C2FF"/></linearGradient><linearGradient id="paint8_linear_89_360" x1="19.616" y1="42.096" x2="32.461" y2="42.096" gradientUnits="userSpaceOnUse"><stop stop-color="#1F78E0"/><stop offset="1" stop-color="#00C2FF"/></linearGradient><linearGradient id="paint9_linear_89_360" x1="8.938" y1="18.958" x2="21.783" y2="18.958" gradientUnits="userSpaceOnUse"><stop stop-color="#1F78E0"/><stop offset="1" stop-color="#00C2FF"/></linearGradient><linearGradient id="paint10_linear_89_360" x1="19.616" y1="26.16" x2="21.783" y2="26.16" gradientUnits="userSpaceOnUse"><stop stop-color="#1F78E0"/><stop offset="1" stop-color="#00C2FF"/></linearGradient><linearGradient id="paint11_linear_89_360" x1="8.938" y1="24.83" x2="11.104" y2="24.83" gradientUnits="userSpaceOnUse"><stop stop-color="#1F78E0"/><stop offset="1" stop-color="#00C2FF"/></linearGradient></defs></svg>