<svg width="72" height="84" fill="none" xmlns="http://www.w3.org/2000/svg"><path fill-rule="evenodd" clip-rule="evenodd" d="M34.644.323a3.01 3.01 0 012.712 0l30.14 15.161a6.358 6.358 0 012.226 1.865 6.588 6.588 0 011.193 2.685v.001a57.867 57.867 0 01-2.829 32.077C64.13 62.294 57.371 71.066 48.641 77.355h-.002l-6.444 4.637A10.596 10.596 0 0136.003 84c-2.216 0-4.379-.7-6.194-2.008l-6.444-4.637h-.001c-8.732-6.288-15.49-15.06-19.448-25.242a57.867 57.867 0 01-2.83-32.078v-.003a6.587 6.587 0 011.197-2.686 6.356 6.356 0 012.227-1.863l.002-.001L34.644.322zM36 6.71L7.218 21.191l-.005.003a.144.144 0 00-.078.103l-3.025-.633 3.026.63a51.343 51.343 0 002.512 28.46c3.511 9.034 9.508 16.818 17.255 22.397l6.444 4.636c.778.56 1.705.86 2.655.86.95 0 1.876-.3 2.654-.86l6.444-4.636c7.746-5.58 13.743-13.363 17.253-22.397a51.342 51.342 0 002.51-28.46.15.15 0 00-.077-.102L36 6.711z" fill="#fff"/></svg>