<svg width="96" height="96" fill="none" xmlns="http://www.w3.org/2000/svg"><path d="M49.229 12.03a2.994 2.994 0 00-2.28 1.05l-.3.216c-9.03-2.652-19.272-.6-26.418 6.162-6.342 5.994-8.76 14.286-7.278 22.044l-.09.084-4.026 3.81a8.082 8.082 0 000 11.88c2.052 1.95 4.872 2.742 7.542 2.376a8.293 8.293 0 002.316 3.822c1.566 1.482 3.576 2.292 5.628 2.436.15 1.938 1.008 3.84 2.58 5.322 1.56 1.482 3.57 2.292 5.622 2.436.15 1.938 1.008 3.84 2.58 5.322a9.27 9.27 0 0011.676.738l1.98 1.872c3.48 3.3 9.138 3.3 12.624 0 1.56-1.476 2.424-3.366 2.586-5.298 2.04-.15 4.026-.96 5.586-2.436 1.56-1.476 2.424-3.366 2.58-5.298a9.161 9.161 0 005.52-2.43 8.306 8.306 0 002.364-4.014 9.18 9.18 0 007.41-2.388 8.082 8.082 0 000-11.88l-3.564-3.372.684-2.52a22.944 22.944 0 00-2.22-17.316c-4.41-7.812-12.948-12.6-22.14-12.6h-6.114a17.06 17.06 0 00-.828-.018h-4.026.006zM75.46 44.772l2.916 2.88c.186.18.39.33.606.456l4.092 3.864a2.472 2.472 0 010 3.636 2.832 2.832 0 01-3.846 0l-6.84-6.462a3.21 3.21 0 00-4.356 0l-.072.06a2.817 2.817 0 000 4.128l5.334 5.04a2.477 2.477 0 010 3.642 2.838 2.838 0 01-3.558.24 3.216 3.216 0 00-4.05.27 2.802 2.802 0 00-.252 3.834 2.472 2.472 0 01-.24 3.384 2.838 2.838 0 01-3.6.21 3.217 3.217 0 00-4.074.228 2.802 2.802 0 00-.258 3.852c.84 1.02.756 2.502-.24 3.444a2.88 2.88 0 01-3.9 0l-1.932-1.824.504-.474a8.082 8.082 0 000-11.88 9.084 9.084 0 00-5.628-2.436 8.177 8.177 0 00-2.58-5.322 9.084 9.084 0 00-5.622-2.442 8.177 8.177 0 00-2.58-5.322 9.193 9.193 0 00-7.542-2.376 8.262 8.262 0 00-2.316-3.816 9.143 9.143 0 00-6.612-2.46 18.39 18.39 0 015.772-15.546 20.734 20.734 0 0115.48-5.538l-6.57 4.74a9.024 9.024 0 00-1.764 13.068 9.84 9.84 0 0013.32 1.8l8.082-5.82h8.64L75.46 44.772zm-38.454-17.13l13.338-9.612h2.91c.25-.003.5.003.75.018h6.18c7.152 0 13.632 3.72 16.926 9.552 2.112 3.738 2.742 8.04 1.8 12.156L65.639 26.688a3 3 0 00-2.1-.858H52.157a3 3 0 00-1.752.564l-8.856 6.39a3.84 3.84 0 01-5.142-.696 3.026 3.026 0 01.6-4.44v-.006zm6.492 39.768a2.832 2.832 0 013.84.012 2.472 2.472 0 010 3.636l-4.032 3.81a2.832 2.832 0 01-3.84 0 2.473 2.473 0 010-3.636l4.032-3.816v-.006zm-4.356-4.122l-4.038 3.822a2.832 2.832 0 01-3.846 0 2.473 2.473 0 01-.06-3.576l.06-.06 4.026-3.81.06-.06a2.833 2.833 0 013.786.06 2.47 2.47 0 01.012 3.624zm-8.22-7.746l-4.02 3.804-.066.06a2.833 2.833 0 01-3.78-.06 2.473 2.473 0 010-3.636l4.02-3.804a2.832 2.832 0 013.852 0 2.47 2.47 0 01.06 3.576l-.06.06h-.006zm-9.852-6.198l-4.02 3.81a2.832 2.832 0 01-3.852 0 2.473 2.473 0 010-3.636l4.026-3.81a2.832 2.832 0 013.846 0 2.472 2.472 0 010 3.636z" fill="#fff"/></svg>