<svg width="32" height="17" viewBox="0 0 48 17" fill="none" xmlns="http://www.w3.org/2000/svg">
    <linearGradient id="gradient" x1="0%" y1="0%" x2="100%" y2="0%">
        <stop offset="0%" stop-color="#ea5c2f" />
        <stop offset="100%" stop-color="#f3b921" />
    </linearGradient>
<path d="M23.9937 0C15.1556 0 6.84825 1.75766 2.70477 5.67859C0.84726 7.45561 -0.112017 9.59953 0.0104288 12.1877C0.0920305 13.7522 0.602368 15.143 1.56165 16.0507C2.2965 16.7461 3.27624 17.1324 4.43965 16.9586L12.0122 15.7417C13.1554 15.5679 13.9513 15.2395 14.4617 14.7373C15.1352 14.1193 15.3394 13.1921 15.3394 11.9753L15.3597 10.0244C15.3597 9.7154 15.5026 9.48366 15.6863 9.29049C15.8904 9.05867 16.1966 8.96216 16.4212 8.90423C17.8091 8.59511 20.6463 8.30543 23.9937 8.30543C27.3616 8.30543 30.1783 8.53717 31.5663 8.92351C31.7704 8.98145 32.0562 9.09732 32.2807 9.29049C32.4848 9.48366 32.6073 9.69611 32.6073 10.0052L32.6277 11.9753C32.6481 13.1921 32.8522 14.1193 33.5054 14.7373C34.0361 15.2395 34.8321 15.5679 35.9752 15.7417L43.4455 16.9393C44.6499 17.1324 45.6707 16.7268 46.4666 15.9928C47.426 15.1043 47.9564 13.7329 47.9975 12.1684C48.0584 9.56088 47.0175 7.41696 45.1808 5.67859C41.0168 1.75766 32.8318 0 23.9937 0Z" fill="url(#gradient)"/>
</svg>
