<svg width="52" height="52" fill="none" xmlns="http://www.w3.org/2000/svg"><path d="M46.583 8.667H41.89v2.889h4.333v31.778H5.778V11.556h4.333V8.667H5.417a2.571 2.571 0 00-2.528 2.614v32.327a2.571 2.571 0 002.528 2.614h41.166a2.57 2.57 0 002.528-2.614V11.281a2.57 2.57 0 00-2.528-2.614z" fill="url(#paint0_linear_89_314)"/><path d="M11.556 21.667a1.444 1.444 0 112.888 0 1.444 1.444 0 01-2.889 0z" fill="url(#paint1_linear_89_314)"/><path d="M20.222 21.667a1.444 1.444 0 112.89 0 1.444 1.444 0 01-2.89 0z" fill="url(#paint2_linear_89_314)"/><path d="M28.889 21.667a1.444 1.444 0 112.889 0 1.444 1.444 0 01-2.89 0z" fill="url(#paint3_linear_89_314)"/><path d="M37.556 21.667a1.444 1.444 0 112.888 0 1.444 1.444 0 01-2.889 0z" fill="url(#paint4_linear_89_314)"/><path d="M11.556 28.889a1.444 1.444 0 112.888 0 1.444 1.444 0 01-2.889 0z" fill="url(#paint5_linear_89_314)"/><path d="M20.222 28.889a1.444 1.444 0 112.89 0 1.444 1.444 0 01-2.89 0z" fill="url(#paint6_linear_89_314)"/><path d="M28.889 28.889a1.444 1.444 0 112.889 0 1.444 1.444 0 01-2.89 0z" fill="url(#paint7_linear_89_314)"/><path d="M37.556 28.889a1.444 1.444 0 112.888 0 1.444 1.444 0 01-2.889 0z" fill="url(#paint8_linear_89_314)"/><path d="M11.556 36.111a1.444 1.444 0 112.888 0 1.444 1.444 0 01-2.889 0z" fill="url(#paint9_linear_89_314)"/><path d="M20.222 36.111a1.444 1.444 0 112.89 0 1.444 1.444 0 01-2.89 0z" fill="url(#paint10_linear_89_314)"/><path d="M28.889 36.111a1.444 1.444 0 112.889 0 1.444 1.444 0 01-2.89 0z" fill="url(#paint11_linear_89_314)"/><path d="M37.556 36.111a1.444 1.444 0 112.888 0 1.444 1.444 0 01-2.889 0z" fill="url(#paint12_linear_89_314)"/><path d="M14.444 14.444A1.445 1.445 0 0015.89 13V4.333a1.444 1.444 0 00-2.889 0V13a1.444 1.444 0 001.444 1.444z" fill="url(#paint13_linear_89_314)"/><path d="M37.556 14.444A1.445 1.445 0 0039 13V4.333a1.444 1.444 0 00-2.889 0V13a1.444 1.444 0 001.445 1.444z" fill="url(#paint14_linear_89_314)"/><path d="M18.778 8.667h14.444v2.889H18.778V8.667z" fill="url(#paint15_linear_89_314)"/><defs><linearGradient id="paint0_linear_89_314" x1="2.888" y1="14.28" x2="49.111" y2="14.28" gradientUnits="userSpaceOnUse"><stop stop-color="#1F78E0"/><stop offset="1" stop-color="#00C2FF"/></linearGradient><linearGradient id="paint1_linear_89_314" x1="11.556" y1="20.654" x2="14.444" y2="20.654" gradientUnits="userSpaceOnUse"><stop stop-color="#1F78E0"/><stop offset="1" stop-color="#00C2FF"/></linearGradient><linearGradient id="paint2_linear_89_314" x1="20.222" y1="20.654" x2="23.111" y2="20.654" gradientUnits="userSpaceOnUse"><stop stop-color="#1F78E0"/><stop offset="1" stop-color="#00C2FF"/></linearGradient><linearGradient id="paint3_linear_89_314" x1="28.889" y1="20.654" x2="31.778" y2="20.654" gradientUnits="userSpaceOnUse"><stop stop-color="#1F78E0"/><stop offset="1" stop-color="#00C2FF"/></linearGradient><linearGradient id="paint4_linear_89_314" x1="37.556" y1="20.654" x2="40.444" y2="20.654" gradientUnits="userSpaceOnUse"><stop stop-color="#1F78E0"/><stop offset="1" stop-color="#00C2FF"/></linearGradient><linearGradient id="paint5_linear_89_314" x1="11.556" y1="27.876" x2="14.444" y2="27.876" gradientUnits="userSpaceOnUse"><stop stop-color="#1F78E0"/><stop offset="1" stop-color="#00C2FF"/></linearGradient><linearGradient id="paint6_linear_89_314" x1="20.222" y1="27.876" x2="23.111" y2="27.876" gradientUnits="userSpaceOnUse"><stop stop-color="#1F78E0"/><stop offset="1" stop-color="#00C2FF"/></linearGradient><linearGradient id="paint7_linear_89_314" x1="28.889" y1="27.876" x2="31.778" y2="27.876" gradientUnits="userSpaceOnUse"><stop stop-color="#1F78E0"/><stop offset="1" stop-color="#00C2FF"/></linearGradient><linearGradient id="paint8_linear_89_314" x1="37.556" y1="27.876" x2="40.444" y2="27.876" gradientUnits="userSpaceOnUse"><stop stop-color="#1F78E0"/><stop offset="1" stop-color="#00C2FF"/></linearGradient><linearGradient id="paint9_linear_89_314" x1="11.556" y1="35.099" x2="14.444" y2="35.099" gradientUnits="userSpaceOnUse"><stop stop-color="#1F78E0"/><stop offset="1" stop-color="#00C2FF"/></linearGradient><linearGradient id="paint10_linear_89_314" x1="20.222" y1="35.099" x2="23.111" y2="35.099" gradientUnits="userSpaceOnUse"><stop stop-color="#1F78E0"/><stop offset="1" stop-color="#00C2FF"/></linearGradient><linearGradient id="paint11_linear_89_314" x1="28.889" y1="35.099" x2="31.778" y2="35.099" gradientUnits="userSpaceOnUse"><stop stop-color="#1F78E0"/><stop offset="1" stop-color="#00C2FF"/></linearGradient><linearGradient id="paint12_linear_89_314" x1="37.556" y1="35.099" x2="40.444" y2="35.099" gradientUnits="userSpaceOnUse"><stop stop-color="#1F78E0"/><stop offset="1" stop-color="#00C2FF"/></linearGradient><linearGradient id="paint13_linear_89_314" x1="13" y1="4.616" x2="15.889" y2="4.616" gradientUnits="userSpaceOnUse"><stop stop-color="#1F78E0"/><stop offset="1" stop-color="#00C2FF"/></linearGradient><linearGradient id="paint14_linear_89_314" x1="36.111" y1="4.616" x2="39" y2="4.616" gradientUnits="userSpaceOnUse"><stop stop-color="#1F78E0"/><stop offset="1" stop-color="#00C2FF"/></linearGradient><linearGradient id="paint15_linear_89_314" x1="18.778" y1="9.099" x2="33.222" y2="9.099" gradientUnits="userSpaceOnUse"><stop stop-color="#1F78E0"/><stop offset="1" stop-color="#00C2FF"/></linearGradient></defs></svg>