<svg width="52" height="52" fill="none" xmlns="http://www.w3.org/2000/svg"><path fill-rule="evenodd" clip-rule="evenodd" d="M25.265 4.508a1.63 1.63 0 011.47 0L43.06 12.72c.472.237.885.583 1.206 1.01.32.428.542.925.646 1.455a31.344 31.344 0 01-1.532 17.376c-2.143 5.514-5.804 10.266-10.533 13.672l-3.491 2.512A5.74 5.74 0 0126 49.833a5.74 5.74 0 01-3.355-1.088l-3.49-2.511h-.001c-4.73-3.406-8.39-8.158-10.534-13.673a31.344 31.344 0 01-1.534-17.375v-.002c.105-.53.327-1.028.649-1.455a3.443 3.443 0 011.206-1.01h.002l16.321-8.211zM26 7.968l-15.59 7.844h-.003a.08.08 0 00-.042.057l-1.639-.343 1.64.34a27.811 27.811 0 001.36 15.418c1.902 4.893 5.15 9.109 9.347 12.13l3.49 2.512a2.46 2.46 0 001.438.466 2.46 2.46 0 001.438-.466l3.49-2.511c4.196-3.023 7.444-7.239 9.346-12.132a27.81 27.81 0 001.36-15.416.08.08 0 00-.042-.055h-.001L26 7.968z" fill="url(#paint0_linear_89_384)"/><defs><linearGradient id="paint0_linear_89_384" x1="6.5" y1="11.133" x2="45.5" y2="11.133" gradientUnits="userSpaceOnUse"><stop stop-color="#1F78E0"/><stop offset="1" stop-color="#00C2FF"/></linearGradient></defs></svg>