<svg width="52" height="52" fill="none" xmlns="http://www.w3.org/2000/svg"><path fill-rule="evenodd" clip-rule="evenodd" d="M33.668 38.037v1.084h-16.1l-.256-.721a6.115 6.115 0 00-3.712-3.714l-.72-.256V17.57l.72-.256a6.115 6.115 0 003.712-3.713l.256-.721h16.861l.257.72a6.114 6.114 0 003.714 3.712l.72.256V34.43l-.72.256a6.117 6.117 0 00-3.712 3.714l-1.02-.363zm11.78-1.118a6.13 6.13 0 011.133 3.527 6.148 6.148 0 01-6.138 6.138 6.125 6.125 0 01-5.756-4.092l-.255-.723H17.565l-.255.724a6.121 6.121 0 01-5.755 4.09 6.148 6.148 0 01-6.138-6.136 6.132 6.132 0 014.092-5.76l.723-.255V17.57l-.72-.257c-2.386-.85-4.095-3.103-4.095-5.756a6.148 6.148 0 016.137-6.139 6.122 6.122 0 015.756 4.09l.255.725h16.87l.255-.724a6.122 6.122 0 015.756-4.091 6.148 6.148 0 016.137 6.138 6.13 6.13 0 01-4.093 5.758l-.724.255v16.864l.723.255a6.131 6.131 0 012.96 2.232zm-33.844.036l-.048-.002-.049.002a3.493 3.493 0 000 6.98l.049-1.083.048 1.082a3.493 3.493 0 000-6.979zm28.889 0l-.049-.002-.048.002a3.493 3.493 0 000 6.98l.048-1.083.049 1.082a3.493 3.493 0 000-6.979zm1.892-28.303a3.493 3.493 0 10-3.877 5.813 3.493 3.493 0 003.877-5.813zm-28.889 0a3.493 3.493 0 10-3.877 5.813 3.493 3.493 0 003.877-5.813z" fill="url(#paint0_linear_89_340)"/><defs><linearGradient id="paint0_linear_89_340" x1="5.417" y1="11.57" x2="46.583" y2="11.57" gradientUnits="userSpaceOnUse"><stop stop-color="#1F78E0"/><stop offset="1" stop-color="#00C2FF"/></linearGradient></defs></svg>