<svg width="96" height="96" viewBox="0 0 96 96" fill="none" xmlns="http://www.w3.org/2000/svg">
<path d="M49.2289 12.0298C48.7955 12.0294 48.3672 12.123 47.9736 12.3043C47.5799 12.4856 47.2303 12.7502 46.9489 13.0798L46.6489 13.2958C37.6189 10.6438 27.3769 12.6958 20.2309 19.4578C13.8889 25.4518 11.4709 33.7438 12.9529 41.5018L12.8629 41.5858L8.83692 45.3958C8.01664 46.1526 7.36201 47.0711 6.91426 48.0934C6.46651 49.1157 6.23535 50.2197 6.23535 51.3358C6.23535 52.4519 6.46651 53.5558 6.91426 54.5782C7.36201 55.6005 8.01664 56.519 8.83692 57.2758C10.8889 59.2258 13.7089 60.0178 16.3789 59.6518C16.7629 61.0498 17.5369 62.3758 18.6949 63.4738C20.2609 64.9558 22.2709 65.7658 24.3229 65.9098C24.4729 67.8478 25.3309 69.7498 26.9029 71.2318C28.4629 72.7138 30.4729 73.5238 32.5249 73.6678C32.6749 75.6058 33.5329 77.5078 35.1049 78.9898C36.6698 80.436 38.6852 81.299 40.8118 81.4334C42.9384 81.5678 45.0464 80.9655 46.7809 79.7278L48.7609 81.5998C52.2409 84.8998 57.8989 84.8998 61.3849 81.5998C62.9449 80.1238 63.8089 78.2338 63.9709 76.3018C66.0109 76.1518 67.9969 75.3418 69.5569 73.8658C71.1169 72.3898 71.9809 70.4998 72.1369 68.5678C74.1469 68.3998 76.1089 67.5898 77.6569 66.1378C78.8629 64.9918 79.6549 63.5938 80.0209 62.1238C81.3556 62.293 82.7111 62.1669 83.9916 61.7542C85.2721 61.3415 86.4462 60.6525 87.4309 59.7358C88.2512 58.979 88.9058 58.0605 89.3536 57.0382C89.8013 56.0158 90.0325 54.9119 90.0325 53.7958C90.0325 52.6797 89.8013 51.5757 89.3536 50.5534C88.9058 49.5311 88.2512 48.6126 87.4309 47.8558L83.8669 44.4838L84.5509 41.9638C86.1215 36.1247 85.3237 29.9018 82.3309 24.6478C77.9209 16.8358 69.3829 12.0478 60.1909 12.0478H54.0769C53.8011 12.0351 53.525 12.0291 53.2489 12.0298H49.2229H49.2289ZM75.4609 44.7718L78.3769 47.6518C78.5629 47.8318 78.7669 47.9818 78.9829 48.1078L83.0749 51.9718C83.3262 52.2033 83.5267 52.4844 83.6639 52.7973C83.8011 53.1102 83.8719 53.4481 83.8719 53.7898C83.8719 54.1314 83.8011 54.4694 83.6639 54.7823C83.5267 55.0952 83.3262 55.3763 83.0749 55.6078C82.5516 56.0919 81.8649 56.3608 81.1519 56.3608C80.439 56.3608 79.7523 56.0919 79.2289 55.6078L72.3889 49.1458C71.7959 48.598 71.0182 48.2938 70.2109 48.2938C69.4036 48.2938 68.626 48.598 68.0329 49.1458L67.9609 49.2058C66.7609 50.3458 66.7609 52.1938 67.9609 53.3338L73.2949 58.3738C73.5463 58.6058 73.747 58.8874 73.8842 59.2008C74.0215 59.5142 74.0923 59.8527 74.0923 60.1948C74.0923 60.5369 74.0215 60.8753 73.8842 61.1888C73.747 61.5022 73.5463 61.7837 73.2949 62.0158C72.8187 62.4565 72.2058 62.7207 71.5583 62.7644C70.9109 62.8081 70.2681 62.6286 69.7369 62.2558C69.1337 61.8284 68.4016 61.622 67.6639 61.6711C66.9263 61.7203 66.2281 62.0221 65.6869 62.5258C65.1643 63.0124 64.8471 63.6802 64.8003 64.3928C64.7534 65.1054 64.9804 65.809 65.4349 66.3598C65.8341 66.848 66.0317 67.4704 65.987 68.0995C65.9424 68.7285 65.659 69.3168 65.1949 69.7438C64.7122 70.1906 64.0892 70.4558 63.4326 70.4941C62.7759 70.5324 62.1264 70.3414 61.5949 69.9538C60.9943 69.5147 60.26 69.2974 59.5171 69.3389C58.7743 69.3805 58.0688 69.6784 57.5209 70.1818C56.9923 70.6683 56.6707 71.3394 56.6227 72.0563C56.5747 72.7731 56.8039 73.4811 57.2629 74.0338C58.1029 75.0538 58.0189 76.5358 57.0229 77.4778C56.4913 77.9669 55.7953 78.2384 55.0729 78.2384C54.3505 78.2384 53.6545 77.9669 53.1229 77.4778L51.1909 75.6538L51.6949 75.1798C52.5152 74.423 53.1698 73.5045 53.6176 72.4822C54.0653 71.4598 54.2965 70.3559 54.2965 69.2398C54.2965 68.1237 54.0653 67.0197 53.6176 65.9974C53.1698 64.9751 52.5152 64.0566 51.6949 63.2998C50.158 61.86 48.1686 60.9989 46.0669 60.8638C45.901 58.83 44.9808 56.9318 43.4869 55.5418C41.9524 54.101 39.9652 53.2379 37.8649 53.0998C37.699 51.066 36.7788 49.1678 35.2849 47.7778C34.2838 46.8455 33.0872 46.1484 31.7825 45.7373C30.4777 45.3263 29.0976 45.2117 27.7429 45.4018C27.3357 43.9414 26.5344 42.6212 25.4269 41.5858C24.5426 40.7583 23.5028 40.1147 22.3677 39.6924C21.2327 39.2702 20.025 39.0775 18.8149 39.1258C18.4923 36.2635 18.8466 33.3655 19.8492 30.6653C20.8517 27.965 22.4746 25.538 24.5869 23.5798C26.6533 21.6501 29.0925 20.1634 31.7546 19.2111C34.4167 18.2587 37.2454 17.8608 40.0669 18.0418L33.4969 22.7818C32.4887 23.4976 31.6383 24.4129 30.9986 25.471C30.3588 26.5292 29.9433 27.7075 29.7779 28.9328C29.6125 30.1582 29.7007 31.4045 30.037 32.5944C30.3733 33.7842 30.9506 34.8923 31.7329 35.8498C33.311 37.7829 35.5647 39.0442 38.0377 39.3784C40.5107 39.7126 43.0183 39.0947 45.0529 37.6498L53.1349 31.8298H61.7749L75.4609 44.7718ZM37.0069 27.6418L50.3449 18.0298H53.2549C53.5051 18.0273 53.7552 18.0333 54.0049 18.0478H60.1849C67.3369 18.0478 73.8169 21.7678 77.1109 27.5998C79.2229 31.3378 79.8529 35.6398 78.9109 39.7558L65.6389 26.6878C65.0782 26.1379 64.3242 25.8299 63.5389 25.8298H52.1569C51.5282 25.8296 50.9154 26.0269 50.4049 26.3938L41.5489 32.7838C40.7601 33.3319 39.7945 33.5645 38.8426 33.4357C37.8907 33.3068 37.0216 32.8259 36.4069 32.0878C36.1351 31.765 35.9338 31.3889 35.816 30.9837C35.6983 30.5784 35.6666 30.153 35.7232 29.7348C35.7797 29.3166 35.9231 28.9149 36.1442 28.5555C36.3653 28.196 36.6592 27.8868 37.0069 27.6478V27.6418ZM43.4989 67.4098C44.0235 66.929 44.7097 66.6633 45.4213 66.6656C46.1328 66.6678 46.8174 66.9378 47.3389 67.4218C47.5902 67.6533 47.7907 67.9344 47.9279 68.2473C48.0651 68.5602 48.1359 68.8981 48.1359 69.2398C48.1359 69.5814 48.0651 69.9194 47.9279 70.2323C47.7907 70.5452 47.5902 70.8263 47.3389 71.0578L43.3069 74.8678C42.7839 75.3502 42.0984 75.618 41.3869 75.618C40.6754 75.618 39.99 75.3502 39.4669 74.8678C39.2157 74.6363 39.0151 74.3552 38.8779 74.0423C38.7408 73.7294 38.6699 73.3914 38.6699 73.0498C38.6699 72.7081 38.7408 72.3702 38.8779 72.0573C39.0151 71.7444 39.2157 71.4633 39.4669 71.2318L43.4989 67.4158V67.4098ZM39.1429 63.2878L35.1049 67.1098C34.5815 67.5939 33.8948 67.8628 33.1819 67.8628C32.469 67.8628 31.7823 67.5939 31.2589 67.1098C31.0132 66.883 30.8161 66.6088 30.6794 66.3037C30.5427 65.9986 30.4694 65.6689 30.4638 65.3346C30.4582 65.0003 30.5204 64.6684 30.6468 64.3589C30.7731 64.0493 30.961 63.7686 31.1989 63.5338L31.2589 63.4738L35.2849 59.6638L35.3449 59.6038C35.8721 59.1448 36.5505 58.897 37.2494 58.908C37.9484 58.9191 38.6185 59.1883 39.1309 59.6638C39.381 59.8943 39.5809 60.174 39.7179 60.4854C39.855 60.7967 39.9263 61.133 39.9274 61.4732C39.9286 61.8133 39.8595 62.1501 39.7245 62.4623C39.5895 62.7746 39.3915 63.0556 39.1429 63.2878ZM30.9229 55.5418L26.9029 59.3458L26.8369 59.4058C26.3101 59.8631 25.633 60.1099 24.9354 60.0989C24.2379 60.0878 23.569 59.8196 23.0569 59.3458C22.8057 59.1143 22.6051 58.8332 22.4679 58.5203C22.3308 58.2074 22.2599 57.8694 22.2599 57.5278C22.2599 57.1861 22.3308 56.8482 22.4679 56.5353C22.6051 56.2224 22.8057 55.9413 23.0569 55.7098L27.0769 51.9058C27.6006 51.42 28.2886 51.15 29.0029 51.15C29.7173 51.15 30.4052 51.42 30.9289 51.9058C31.1746 52.1325 31.3718 52.4068 31.5084 52.7119C31.6451 53.017 31.7185 53.3467 31.7241 53.6809C31.7297 54.0152 31.6674 54.3472 31.5411 54.6567C31.4147 54.9662 31.2269 55.2469 30.9889 55.4818L30.9289 55.5418H30.9229ZM21.0709 49.3438L17.0509 53.1538C16.5272 53.6396 15.8393 53.9095 15.1249 53.9095C14.4106 53.9095 13.7226 53.6396 13.1989 53.1538C12.9477 52.9223 12.7471 52.6412 12.6099 52.3283C12.4728 52.0154 12.4019 51.6774 12.4019 51.3358C12.4019 50.9941 12.4728 50.6562 12.6099 50.3433C12.7471 50.0304 12.9477 49.7493 13.1989 49.5178L17.2249 45.7078C17.7483 45.2237 18.435 44.9548 19.1479 44.9548C19.8608 44.9548 20.5475 45.2237 21.0709 45.7078C21.3222 45.9393 21.5227 46.2204 21.6599 46.5333C21.7971 46.8462 21.8679 47.1841 21.8679 47.5258C21.8679 47.8674 21.7971 48.2054 21.6599 48.5183C21.5227 48.8312 21.3222 49.1123 21.0709 49.3438Z" fill="white"/>
</svg>
