<svg width="96" height="96" viewBox="0 0 96 96" fill="none" xmlns="http://www.w3.org/2000/svg">
<path fill-rule="evenodd" clip-rule="evenodd" d="M48 14.6667C44.4638 14.6667 41.0724 16.0714 38.5719 18.5719C36.0714 21.0724 34.6667 24.4638 34.6667 28C34.6667 31.5362 36.0714 34.9276 38.5719 37.4281C41.0724 39.9286 44.4638 41.3333 48 41.3333C51.5362 41.3333 54.9276 39.9286 57.4281 37.4281C59.9286 34.9276 61.3333 31.5362 61.3333 28C61.3333 24.4638 59.9286 21.0724 57.4281 18.5719C54.9276 16.0714 51.5362 14.6667 48 14.6667ZM33.8579 13.8579C37.6086 10.1071 42.6957 8 48 8C53.3043 8 58.3914 10.1071 62.1421 13.8579C65.8929 17.6086 68 22.6957 68 28C68 33.3043 65.8929 38.3914 62.1421 42.1421C58.3914 45.8929 53.3043 48 48 48C42.6957 48 37.6086 45.8929 33.8579 42.1421C30.1071 38.3914 28 33.3043 28 28C28 22.6957 30.1071 17.6086 33.8579 13.8579Z" fill="white"/>
<path fill-rule="evenodd" clip-rule="evenodd" d="M39.8182 58.6977C34.1763 58.6977 28.7655 60.991 24.7761 65.0732C20.7867 69.1554 18.5455 74.692 18.5455 80.4651V84.6512C18.5455 86.5007 17.0802 88 15.2727 88C13.4653 88 12 86.5007 12 84.6512V80.4651C12 72.9157 14.9308 65.6755 20.1478 60.3372C25.3647 54.999 32.4403 52 39.8182 52H56.1818C63.5597 52 70.6353 54.999 75.8523 60.3372C81.0692 65.6755 84 72.9157 84 80.4651V84.6512C84 86.5007 82.5348 88 80.7273 88C78.9198 88 77.4546 86.5007 77.4546 84.6512V80.4651C77.4546 74.692 75.2133 69.1554 71.2239 65.0732C67.2345 60.991 61.8237 58.6977 56.1818 58.6977H39.8182Z" fill="white"/>
</svg>
