<svg width="32" height="32" viewBox="0 0 32 32" fill="none" xmlns="http://www.w3.org/2000/svg">
<path d="M8.61928 12.7672L8.61879 13.7752H7.61927C5.83217 13.7752 4.54527 14.502 3.68409 15.5725C2.80271 16.6682 2.33348 18.1722 2.3335 19.7209C2.33351 21.2696 2.80277 22.7736 3.68418 23.8693C4.5454 24.9399 5.83232 25.6666 7.61943 25.6666H16.6668V27.6666H7.61943C5.21597 27.6666 3.35994 26.657 2.12584 25.1229C0.911931 23.6139 0.333516 21.6451 0.333496 19.7209C0.333477 17.7967 0.911852 15.8279 2.12573 14.3189C3.19146 12.9941 4.72101 12.0604 6.66642 11.8303C6.9042 9.49171 8.02351 7.66794 9.61876 6.40883C11.3967 5.00551 13.7217 4.33332 16.0002 4.33331C18.2787 4.33331 20.6037 5.0055 22.3816 6.40881C24.0312 7.71082 25.1719 9.61663 25.3552 12.0711C25.1331 12.0245 24.9028 12 24.6668 12C24.2045 12 23.7642 12.0941 23.3639 12.2642C23.2336 10.3602 22.3736 8.9504 21.1425 7.97872C19.7776 6.90142 17.9121 6.33331 16.0002 6.33331C14.0883 6.33332 12.2228 6.90143 10.8579 7.97873C9.52076 9.0341 8.62148 10.6063 8.61928 12.7672Z" fill="white"/>
<path fill-rule="evenodd" clip-rule="evenodd" d="M21.0002 17.6666V19.6666H20.6668C19.5623 19.6666 18.6668 20.5621 18.6668 21.6666V27C18.6668 28.1045 19.5623 29 20.6668 29H29.3335C30.4381 29 31.3335 28.1045 31.3335 27V21.6666C31.3335 20.5621 30.4381 19.6666 29.3335 19.6666H29.0002V17.6666C29.0002 16.4598 28.488 15.5198 27.7083 14.8961C26.9455 14.2859 25.9578 14 25.0002 14C24.0425 14 23.0548 14.2859 22.292 14.8961C21.5123 15.5198 21.0002 16.4598 21.0002 17.6666ZM23.125 15.9372C22.6547 16.3135 22.3335 16.8735 22.3335 17.6666V19.6666H27.6668V17.6666C27.6668 16.8735 27.3457 16.3135 26.8754 15.9372C26.3881 15.5474 25.7092 15.3333 25.0002 15.3333C24.2911 15.3333 23.6122 15.5474 23.125 15.9372Z" fill="white"/>
</svg>
