<svg width="32" height="32" viewBox="0 0 32 32" fill="none" xmlns="http://www.w3.org/2000/svg">
<path fill-rule="evenodd" clip-rule="evenodd" d="M15.3333 0.666687C22.6971 0.666687 28.6667 3.50222 28.6667 7.00002V15.9073C27.7821 15.2903 26.7857 14.8226 25.7139 14.5407C26.4531 13.9008 26.6667 13.3382 26.6667 13V10.338C26.0353 10.8206 25.2712 11.2599 24.3985 11.6444C23.7436 11.2341 22.8602 11.1971 22.1409 11.7308L20.701 12.7992C19.0587 13.1427 17.2429 13.3334 15.3333 13.3334C10.5485 13.3334 6.35228 12.1361 4 10.338V13C4 13.5291 4.52277 14.6075 6.76336 15.6718C8.85318 16.6645 11.8808 17.3334 15.3333 17.3334C15.6961 17.3334 16.0542 17.326 16.407 17.3116C15.859 17.918 15.3895 18.5966 15.0145 19.3316C10.3624 19.2797 6.29988 18.0961 4 16.338V19C4 19.5291 4.52277 20.6075 6.76336 21.6718C8.5803 22.5349 11.1061 23.1532 14.0038 23.2999C14.0013 23.3889 14 23.4781 14 23.5677C14 24.1629 14.0557 24.745 14.1622 25.3093C9.86887 25.1318 6.15828 23.9878 4 22.338V25C4 25.5291 4.52277 26.6075 6.76336 27.6718C8.85318 28.6645 11.8808 29.3334 15.3333 29.3334C15.553 29.3334 15.7709 29.3306 15.987 29.3253C16.5527 30.0461 17.2223 30.6816 17.9731 31.2092C17.1198 31.2906 16.2371 31.3334 15.3333 31.3334C7.96954 31.3334 2 28.4978 2 25V7.00002C2 3.50222 7.96954 0.666687 15.3333 0.666687ZM23.9033 9.67181C26.1439 8.60753 26.6667 7.52908 26.6667 7.00002C26.6667 6.47096 26.1439 5.39251 23.9033 4.32823C21.8135 3.33557 18.7858 2.66669 15.3333 2.66669C11.8808 2.66669 8.85318 3.33557 6.76336 4.32823C4.52277 5.39251 4 6.47096 4 7.00002C4 7.52908 4.52277 8.60753 6.76336 9.67181C8.85318 10.6645 11.8808 11.3334 15.3333 11.3334C18.7858 11.3334 21.8135 10.6645 23.9033 9.67181Z" fill="white"/>
<path d="M23.3333 13.3334L18.6667 16.6667L23.3333 20V17.3333C26.647 17.3333 29.3333 20.0196 29.3333 23.3333C29.3333 26.6471 26.647 29.3333 23.3333 29.3333C20.0196 29.3333 17.3333 26.6471 17.3333 23.3333C17.3333 22.4353 17.5306 21.5833 17.8843 20.8184L16.6734 20.2595C16.2411 21.1944 16 22.2357 16 23.3333C16 27.3834 19.2832 30.6667 23.3333 30.6667C27.3834 30.6667 30.6667 27.3834 30.6667 23.3333C30.6667 19.2833 27.3834 16 23.3333 16V13.3334Z" fill="white"/>
</svg>
