<svg width="32" height="32" viewBox="0 0 32 32" fill="none" xmlns="http://www.w3.org/2000/svg">
<path d="M23.3738 11.0404C23.7643 10.6499 23.7643 10.0168 23.3738 9.62623C22.9832 9.2357 22.3501 9.2357 21.9596 9.62623L14.3333 17.2525L11.3738 14.2929C10.9832 13.9024 10.3501 13.9024 9.95956 14.2929C9.56904 14.6834 9.56904 15.3166 9.95956 15.7071L13.6262 19.3738C14.0168 19.7643 14.6499 19.7643 15.0404 19.3738L23.3738 11.0404Z" fill="white"/>
<path fill-rule="evenodd" clip-rule="evenodd" d="M4 1C3.73478 1 3.48043 1.10536 3.29289 1.2929C3.10535 1.48044 3 1.73479 3 2.00001L4 2C3 2.00001 3 1.99991 3 2.00001V17.3333C2.99986 20.2148 4.07439 24.1819 7.33564 27.0807C8.94515 28.5114 11.0499 29.6436 12.7059 30.408C13.5424 30.794 14.2819 31.0941 14.8135 31.2982C15.0796 31.4003 15.2943 31.4786 15.4438 31.5319C15.5185 31.5585 15.5771 31.5789 15.6176 31.5928L15.6648 31.609L15.6779 31.6134L15.6817 31.6147L15.683 31.6151C15.6832 31.6151 15.6838 31.6153 16 30.6667L15.6838 31.6153L16.0113 31.7245L16.3363 31.6084L16 30.6667C16.3363 31.6084 16.3362 31.6085 16.3363 31.6084L16.342 31.6064L16.3544 31.6019L16.3987 31.5857C16.4369 31.5716 16.4918 31.5512 16.562 31.5245C16.7024 31.4711 16.904 31.3926 17.1543 31.2903C17.6545 31.0859 18.3518 30.7855 19.1458 30.3992C20.7204 29.6332 22.7312 28.5028 24.331 27.0807C27.5232 24.2433 29.0001 20.9796 29 17.3333V2.00056C29 2.00047 29 2.00001 28 2L29 2.00056C29 1.73534 28.8946 1.48044 28.7071 1.2929C28.5196 1.10536 28.2652 1 28 1H4ZM5.00001 3H27L27 17.3334C27.0001 20.3537 25.8101 23.0901 23.0023 25.5859C21.6021 26.8305 19.7796 27.8668 18.2709 28.6008C17.5232 28.9645 16.8663 29.2474 16.3978 29.4389C16.2377 29.5043 16.0999 29.5589 15.9883 29.6023C15.8654 29.5576 15.7109 29.5004 15.5302 29.431C15.0306 29.2392 14.3326 28.956 13.5441 28.592C11.9501 27.8564 10.0548 26.8219 8.66436 25.5859C5.92561 23.1515 4.99988 19.7852 5 17.3334L5.00001 3Z" fill="white"/>
</svg>
