<svg width="32" height="32" viewBox="0 0 32 32" fill="none" xmlns="http://www.w3.org/2000/svg">
<path fill-rule="evenodd" clip-rule="evenodd" d="M21.0002 8.66669C21.0002 11.9804 18.3139 14.6667 15.0002 14.6667C11.6865 14.6667 9.00016 11.9804 9.00016 8.66669C9.00016 5.35298 11.6865 2.66669 15.0002 2.66669C18.3139 2.66669 21.0002 5.35298 21.0002 8.66669ZM19.0002 8.66669C19.0002 10.8758 17.2093 12.6667 15.0002 12.6667C12.791 12.6667 11.0002 10.8758 11.0002 8.66669C11.0002 6.45755 12.791 4.66669 15.0002 4.66669C17.2093 4.66669 19.0002 6.45755 19.0002 8.66669Z" fill="white"/>
<path d="M3.3335 27H15.6668V28.3334C15.6668 28.5616 15.6898 28.7846 15.7335 29H1.3335V26C1.33348 22.5868 3.15741 20.0469 5.75781 18.4045C8.33038 16.7797 11.6947 16 15.0001 16C16.1677 16 17.3425 16.0973 18.4872 16.2947C18.2268 16.8993 18.0628 17.5553 18.0149 18.2432C17.0354 18.0819 16.0211 18 15.0001 18C11.9722 18 9.00321 18.7203 6.82579 20.0955C4.6762 21.4531 3.33348 23.4132 3.3335 26V27Z" fill="white"/>
<path fill-rule="evenodd" clip-rule="evenodd" d="M17.6668 22.3334C17.6668 21.2288 18.5623 20.3334 19.6668 20.3334H20.0002V18.3333C20.0002 17.1265 20.5123 16.1865 21.292 15.5628C22.0548 14.9526 23.0425 14.6667 24.0002 14.6667C24.9578 14.6667 25.9455 14.9526 26.7083 15.5628C27.488 16.1865 28.0002 17.1265 28.0002 18.3333V20.3334H28.3335C29.4381 20.3334 30.3335 21.2288 30.3335 22.3334V27.6667C30.3335 28.7713 29.4381 29.6667 28.3335 29.6667H19.6668C18.5623 29.6667 17.6668 28.7713 17.6668 27.6667V22.3334ZM21.3335 18.3333C21.3335 17.5402 21.6547 16.9802 22.125 16.6039C22.6122 16.2141 23.2911 16 24.0002 16C24.7092 16 25.3881 16.2141 25.8754 16.6039C26.3457 16.9802 26.6668 17.5402 26.6668 18.3333V20.3334H21.3335V18.3333Z" fill="white"/>
</svg>
