<svg xmlns="http://www.w3.org/2000/svg" width="56" height="56" viewBox="0 0 56 56" fill="none">
    <path d="M16.6263 12.25C16.6263 11.7667 17.0181 11.375 17.5013 11.375H37.3346C37.8179 11.375 38.2096 11.7667 38.2096 12.25C38.2096 12.7332 37.8179 13.125 37.3346 13.125H17.5013C17.0181 13.125 16.6263 12.7332 16.6263 12.25Z" fill="#454545"/>
    <path d="M17.5013 17.2083C17.0181 17.2083 16.6263 17.6 16.6263 18.0833C16.6263 18.5665 17.0181 18.9583 17.5013 18.9583H37.3349C37.8182 18.9583 38.2099 18.5665 38.2099 18.0833C38.2099 17.6 37.8182 17.2083 37.3349 17.2083H17.5013Z" fill="#454545"/>
    <path d="M16.6263 23.9166C16.6263 23.4334 17.0181 23.0416 17.5013 23.0416H37.3346C37.8179 23.0416 38.2096 23.4334 38.2096 23.9166C38.2096 24.3999 37.8179 24.7916 37.3346 24.7916H17.5013C17.0181 24.7916 16.6263 24.3999 16.6263 23.9166Z" fill="#454545"/>
    <path d="M17.5013 28.875C17.0181 28.875 16.6263 29.2667 16.6263 29.75C16.6263 30.2332 17.0181 30.625 17.5013 30.625H37.3364C37.8197 30.625 38.2114 30.2332 38.2114 29.75C38.2114 29.2667 37.8197 28.875 37.3364 28.875H17.5013Z" fill="#454545"/>
    <path d="M27.7096 35.5833C27.7096 35.1 28.1014 34.7083 28.5846 34.7083H37.3346C37.8179 34.7083 38.2096 35.1 38.2096 35.5833C38.2096 36.0665 37.8179 36.4583 37.3346 36.4583H28.5846C28.1014 36.4583 27.7096 36.0665 27.7096 35.5833Z" fill="#454545"/>
    <path fill-rule="evenodd" clip-rule="evenodd" d="M9.91797 1.16663C8.95147 1.16663 8.16797 1.95013 8.16797 2.91663V47.25C8.16797 48.2165 8.95147 49 9.91797 49H15.4596V53.6666C15.4596 54.047 15.7054 54.3838 16.0676 54.4999C16.4298 54.616 16.8256 54.4847 17.0467 54.1752L19.2513 51.0887L21.456 54.1752C21.677 54.4847 22.0728 54.616 22.435 54.4999C22.7972 54.3838 23.043 54.047 23.043 53.6666V49H44.918C45.8845 49 46.668 48.2165 46.668 47.25V2.91663C46.668 1.95013 45.8845 1.16663 44.918 1.16663H9.91797ZM23.043 45.5H43.168V4.66663H11.668V45.5H15.4596V43.5164C14.2099 42.4465 13.418 40.8574 13.418 39.0833C13.418 35.8616 16.0296 33.25 19.2513 33.25C22.473 33.25 25.0846 35.8616 25.0846 39.0833C25.0846 40.8574 24.2927 42.4465 23.043 43.5164V45.5ZM21.293 44.5494C20.6575 44.7868 19.9696 44.9166 19.2513 44.9166C18.533 44.9166 17.8451 44.7868 17.2096 44.5494V50.9362L18.5393 49.0747C18.7035 48.8448 18.9687 48.7083 19.2513 48.7083C19.5339 48.7083 19.7991 48.8448 19.9633 49.0747L21.293 50.9362V44.5494ZM23.3346 39.0833C23.3346 41.3385 21.5065 43.1666 19.2513 43.1666C16.9961 43.1666 15.168 41.3385 15.168 39.0833C15.168 36.8281 16.9961 35 19.2513 35C21.5065 35 23.3346 36.8281 23.3346 39.0833Z" fill="#454545"/>
</svg>
