<svg width="26" height="26" viewBox="0 0 21 21" fill="none" xmlns="http://www.w3.org/2000/svg">
    <linearGradient id="gradient" x1="0%" y1="0%" x2="100%" y2="0%">
        <stop offset="0%" stop-color="#ea5c2f" />
        <stop offset="100%" stop-color="#f3b921" />
    </linearGradient>
<path d="M10.5317 0.767578C5.13971 0.767578 0.768311 5.13818 0.768311 10.5302C0.768311 15.9223 5.13971 20.2936 10.5317 20.2936C15.9234 20.2936 20.2948 15.9223 20.2948 10.5302C20.2948 5.13818 15.9234 0.767578 10.5317 0.767578ZM10.0747 5.92509C10.1542 5.85233 10.21 5.84222 10.4857 5.85067C10.6294 5.85574 10.8408 5.87263 10.9558 5.88615C11.5376 5.95887 12.0078 6.09926 12.5236 6.35123C13.031 6.59986 13.3557 6.83494 13.7853 7.26282C14.1878 7.66704 14.4111 7.97317 14.6478 8.44839C14.9776 9.11135 15.1654 9.89948 15.1975 10.7671C15.2094 11.063 15.2009 11.129 15.1333 11.2136C15.0047 11.3776 14.7223 11.3506 14.6259 11.1662C14.5954 11.1053 14.587 11.053 14.5768 10.8162C14.5599 10.4525 14.5346 10.2175 14.4838 9.93671C14.2843 8.83572 13.7566 7.95624 12.9143 7.32543C12.2124 6.79775 11.4869 6.54071 10.5365 6.48488C10.2151 6.46629 10.1593 6.45443 10.0866 6.39861C9.95121 6.29207 9.94443 6.04177 10.0747 5.92509ZM12.0906 8.10341C11.7507 7.90049 11.2484 7.74994 10.79 7.71275C10.6243 7.69919 10.533 7.66541 10.4704 7.59266C10.374 7.48271 10.3639 7.33391 10.445 7.21045C10.533 7.07346 10.6682 7.05146 11.0725 7.11236C12.0991 7.26286 12.894 7.73983 13.4149 8.51441C13.7075 8.95074 13.8902 9.46323 13.9527 10.0128C13.9747 10.2141 13.9747 10.5811 13.951 10.642C13.929 10.6995 13.858 10.7773 13.7971 10.8094C13.7312 10.8432 13.5908 10.8399 13.513 10.7993C13.3827 10.7333 13.3438 10.6285 13.3438 10.3443C13.3438 9.9063 13.2305 9.4446 13.0343 9.08602C12.8111 8.67677 12.4864 8.33853 12.0906 8.10341ZM12.6623 10.3579C12.5625 10.4492 12.3782 10.4526 12.2665 10.3663C12.1853 10.3054 12.16 10.2412 12.1413 10.067C12.1194 9.83529 12.0788 9.67293 12.0095 9.52239C11.8606 9.20274 11.5985 9.03701 11.1554 8.98289C10.9473 8.95752 10.8847 8.93385 10.8171 8.85435C10.6937 8.70718 10.741 8.46873 10.9118 8.38079C10.9761 8.34864 11.0032 8.34527 11.1452 8.35375C11.2332 8.35883 11.3634 8.37401 11.4327 8.38928C11.7659 8.46029 12.0213 8.58712 12.2395 8.79179C12.5202 9.05731 12.6741 9.37866 12.7418 9.84037C12.7874 10.1414 12.7688 10.2598 12.6623 10.3579ZM15.189 14.8008C15.0638 15.1238 14.5768 15.7293 14.2368 15.9881C13.929 16.2214 13.7109 16.3111 13.4233 16.3246C13.1866 16.3364 13.0885 16.3161 12.7857 16.191C10.4112 15.2118 8.5153 13.7506 7.01009 11.743C6.22366 10.6944 5.62493 9.607 5.21564 8.47892C4.97719 7.82103 4.96534 7.53521 5.16152 7.19863C5.24613 7.05657 5.60633 6.70477 5.86849 6.50859C6.30486 6.18387 6.50611 6.06378 6.66677 6.02996C6.77667 6.00629 6.96778 6.02488 7.08958 6.06885C7.14877 6.08911 7.24009 6.13645 7.29254 6.17031C7.61385 6.38342 8.50856 7.52839 8.80112 8.10004C8.96852 8.42643 9.02434 8.66828 8.97193 8.84757C8.91777 9.04038 8.82816 9.14184 8.42732 9.4649C8.26666 9.5951 8.11612 9.72872 8.09249 9.76424C8.03159 9.85218 7.98254 10.0247 7.98254 10.1465C7.98425 10.4289 8.16691 10.9414 8.40706 11.3354C8.59309 11.6416 8.92625 12.0339 9.25605 12.335C9.64334 12.6902 9.98499 12.932 10.3706 13.1231C10.8661 13.37 11.1688 13.4326 11.3904 13.3294C11.4462 13.3041 11.5054 13.2702 11.5241 13.255C11.5409 13.2398 11.6712 13.0808 11.8133 12.905C12.0872 12.5599 12.1498 12.5041 12.3375 12.4399C12.576 12.3587 12.8196 12.3806 13.0648 12.5058C13.2508 12.6022 13.6567 12.8542 13.9189 13.0369C14.2638 13.2788 15.0012 13.8809 15.1011 14.0009C15.277 14.2174 15.3074 14.4947 15.189 14.8008Z" fill="url(#gradient)"/>
</svg>
