<svg width="96" height="96" fill="none" xmlns="http://www.w3.org/2000/svg"><path d="M28.2 33.674c1.527-1.681 4.026-3.274 7.7-3.274 5.069 0 8.334 3.485 9.482 7.308 1.113 3.727.44 8.338-2.728 11.52a35.586 35.586 0 01-3.49 2.948l-.175.136c-1.232.95-2.332 1.813-3.3 2.772-1.122 1.126-2.042 2.354-2.574 3.916H42.5a3.3 3.3 0 110 6.6H29.3a3.3 3.3 0 01-3.3-3.3c0-5.487 2.306-9.165 5.034-11.884 1.302-1.303 2.719-2.398 3.916-3.327l.013-.009c1.258-.972 2.235-1.729 3.014-2.508 1.197-1.205 1.615-3.19 1.082-4.972-.506-1.676-1.628-2.6-3.159-2.6-1.553 0-2.354.603-2.816 1.113-.27.298-.49.639-.651 1.008v.013a3.302 3.302 0 01-6.283-2.033l.154-.422a10.31 10.31 0 011.892-3.005h.004zM53.5 30.4a3.3 3.3 0 013.3 3.3v12.1h6.6V33.7a3.3 3.3 0 016.6 0v28.468a3.3 3.3 0 01-6.6 0V52.4h-9.9a3.3 3.3 0 01-3.3-3.3V33.7a3.3 3.3 0 013.3-3.3z" fill="#fff"/><path d="M92 48C92 23.699 72.301 4 48 4S4 23.699 4 48s19.699 44 44 44 44-19.699 44-44zm-81.4 0a37.4 37.4 0 1174.8 0 37.4 37.4 0 01-74.8 0z" fill="#fff"/></svg>