<svg width="26" height="26" viewBox="0 0 21 21" fill="none" xmlns="http://www.w3.org/2000/svg"><linearGradient id="a" x1="0%" y1="0%" x2="100%" y2="0%"><stop offset="0%" stop-color="#ea5c2f"/><stop offset="100%" stop-color="#f3b921"/></linearGradient><path d="M10.532.768C5.14.768.768 5.138.768 10.53s4.372 9.764 9.764 9.764c5.391 0 9.763-4.372 9.763-9.764 0-5.392-4.372-9.762-9.763-9.762zm-.457 5.157c.08-.073.135-.083.41-.074.144.005.356.022.47.035a4.712 4.712 0 011.569.465c.507.249.832.484 1.261.912.403.404.626.71.863 1.185.33.663.517 1.451.55 2.32.011.295.003.361-.065.446-.128.164-.41.137-.507-.048-.03-.06-.039-.113-.05-.35a6.125 6.125 0 00-.092-.88c-.2-1.1-.727-1.98-1.57-2.61-.702-.528-1.427-.785-2.377-.841-.322-.019-.378-.03-.45-.086-.136-.107-.143-.357-.012-.474zm2.016 2.178c-.34-.203-.843-.353-1.301-.39-.166-.014-.257-.048-.32-.12a.308.308 0 01-.025-.383c.088-.137.223-.159.627-.098 1.027.15 1.822.628 2.343 1.402.293.437.475.95.538 1.499.022.201.022.568-.002.629a.384.384 0 01-.154.167.378.378 0 01-.284-.01c-.13-.066-.17-.17-.17-.455 0-.438-.113-.9-.309-1.258a2.57 2.57 0 00-.943-.983zm.571 2.255c-.1.091-.284.095-.396.008-.08-.06-.106-.125-.125-.299a1.605 1.605 0 00-.132-.545c-.148-.32-.41-.485-.854-.54-.208-.024-.27-.048-.338-.128a.315.315 0 01.095-.473c.064-.032.091-.036.233-.027.088.005.218.02.288.035.333.071.588.198.806.403.281.265.435.587.503 1.048.045.301.027.42-.08.518zM15.19 14.8c-.125.323-.612.928-.952 1.187-.308.233-.526.323-.814.337-.236.011-.335-.009-.637-.134-2.375-.98-4.27-2.44-5.776-4.448-.786-1.049-1.385-2.136-1.794-3.264-.239-.658-.25-.944-.054-1.28.084-.142.444-.494.706-.69.437-.325.638-.445.799-.479a.918.918 0 01.423.039c.059.02.15.067.203.101.32.213 1.216 1.358 1.508 1.93.168.326.223.568.17.748-.053.192-.143.294-.544.617-.16.13-.31.264-.335.3a.789.789 0 00-.11.381c.002.283.185.795.425 1.19.186.306.52.698.85.999.386.355.728.597 1.114.788.495.247.798.31 1.02.206a.82.82 0 00.133-.074c.017-.015.147-.174.29-.35.273-.345.336-.4.524-.465a.905.905 0 01.727.066c.186.096.592.348.854.53.345.243 1.082.845 1.182.965.176.216.206.494.088.8z" fill="url(#a)"/></svg>