<svg width="78" height="78" viewBox="0 0 78 78" fill="none" xmlns="http://www.w3.org/2000/svg">
<path d="M63.517 70.7523H63.107C15.7214 68.0273 8.99335 28.0449 8.05288 15.8428C7.9771 14.8941 8.08926 13.9397 8.38295 13.0344C8.67663 12.1291 9.14607 11.2907 9.76435 10.5671C10.3826 9.84351 11.1376 9.24905 11.986 8.81776C12.8344 8.38647 13.7596 8.12683 14.7086 8.05371H27.9958C28.9618 8.05278 29.9057 8.34191 30.7055 8.88365C31.5052 9.4254 32.1238 10.1948 32.4812 11.0922L36.1467 20.1111C36.4996 20.9878 36.5872 21.9489 36.3985 22.8749C36.2099 23.8009 35.7533 24.6512 35.0856 25.3199L29.9491 30.5046C30.7515 35.0641 32.935 39.2672 36.2043 42.5451C39.4736 45.823 43.6708 48.0175 48.2282 48.8319L53.4611 43.6472C54.1399 42.9868 54.9981 42.5409 55.9287 42.3651C56.8593 42.1893 57.8211 42.2913 58.694 42.6585L67.7853 46.2998C68.6692 46.6685 69.4233 47.292 69.9515 48.0908C70.4797 48.8896 70.7582 49.8276 70.7514 50.7852V63.5178C70.7514 65.4365 69.9892 67.2766 68.6325 68.6334C67.2758 69.9901 65.4357 70.7523 63.517 70.7523ZM15.2873 12.8767C14.6478 12.8767 14.0344 13.1307 13.5821 13.583C13.1299 14.0352 12.8758 14.6486 12.8758 15.2882V15.4811C13.9851 29.7571 21.099 63.5178 63.3723 65.9293C63.6891 65.9489 64.0067 65.9057 64.3068 65.8023C64.6068 65.6989 64.8836 65.5373 65.121 65.3267C65.3585 65.1161 65.5521 64.8607 65.6907 64.5751C65.8292 64.2895 65.91 63.9794 65.9285 63.6625V50.7852L56.8372 47.1439L49.9162 54.0166L48.7587 53.8719C27.7788 51.2434 24.9333 30.2635 24.9333 30.0464L24.7886 28.8889L31.6372 21.968L28.02 12.8767H15.2873Z" fill="white"/>
</svg>
