<svg width="188" height="32" viewBox="0 0 188 32" fill="none" xmlns="http://www.w3.org/2000/svg">
<g id="Vector">
<path d="M8.19437 32C3.42826 32 0 28.2625 0 22.8871C0 15.664 4.64069 10.4147 10.8283 10.4147C14.1311 10.4147 16.765 12.0525 17.7266 14.6982L19.9006 0.587926H23.6633L18.8136 31.4961H15.3854L15.6362 27.8425C13.8803 30.5722 11.4136 32 8.19437 32ZM9.19776 28.6404C13.4204 28.6404 16.765 24.6929 16.765 19.6115C16.765 15.958 14.7582 13.7743 11.2882 13.7743C7.06555 13.7743 3.80453 17.6378 3.80453 22.6772C3.80453 26.2887 5.89493 28.6404 9.19776 28.6404Z" fill="#1A1A1A"/>
<path d="M29.5527 32C25.9154 32 23.4906 29.8163 23.4906 26.4987C23.4906 22.3412 26.5843 19.7375 31.9776 19.2756L38.3742 18.7717L38.4578 18.2257C39.0013 15.1601 37.4544 13.4803 34.2352 13.4803C31.1414 13.4803 29.3437 14.8241 28.9256 17.4698H25.4555C26.1663 12.9764 29.4691 10.4147 34.5697 10.4147C40.0047 10.4147 42.9313 13.5643 42.1369 18.5617L40.0883 31.4961H36.8273L36.9945 28.1365C35.6149 30.5302 32.7301 32 29.5527 32ZM30.8906 29.0184C34.5697 29.0184 37.2454 26.5407 37.8307 22.5932L37.9979 21.5013L32.7719 21.9213C29.0928 22.2152 27.2951 23.727 27.2951 26.1627C27.2951 27.9265 28.6329 29.0184 30.8906 29.0184Z" fill="#1A1A1A"/>
<path d="M49.8966 31.4961H46.1756L48.8932 14.1522H44.9632L45.4649 10.9606H49.3949L50.3983 4.53543H54.161L53.1576 10.9606H57.0875L56.5858 14.1522H52.6559L49.8966 31.4961Z" fill="#1A1A1A"/>
<path d="M62.176 32C58.5387 32 56.1139 29.8163 56.1139 26.4987C56.1139 22.3412 59.2077 19.7375 64.6009 19.2756L70.9975 18.7717L71.0811 18.2257C71.6246 15.1601 70.0777 13.4803 66.8585 13.4803C63.7647 13.4803 61.967 14.8241 61.5489 17.4698H58.0788C58.7896 12.9764 62.0924 10.4147 67.193 10.4147C72.628 10.4147 75.5546 13.5643 74.7602 18.5617L72.7117 31.4961H69.4506L69.6179 28.1365C68.2382 30.5302 65.3534 32 62.176 32ZM63.5139 29.0184C67.193 29.0184 69.8687 26.5407 70.454 22.5932L70.6212 21.5013L65.3952 21.9213C61.7161 22.2152 59.9184 23.727 59.9184 26.1627C59.9184 27.9265 61.2563 29.0184 63.5139 29.0184Z" fill="#1A1A1A"/>
<path fill-rule="evenodd" clip-rule="evenodd" d="M82.3188 31.4961H108.284V23.8996L113.592 18.5237L95.3014 2.50308e-06L77.0104 18.5237L82.3188 23.8996V31.4961ZM91.4354 22.3803V17.1212L95.3014 13.2061L99.1673 17.1212V22.3803H91.4354Z" fill="#1914FE"/>
<path d="M121.452 17.4278L119.027 31.4961H115.056L120.491 0.335959H117.857L117.94 0H124.504L121.62 16.4199L122.163 15.5801C124.588 11.6325 126.971 10.7087 129.438 10.7087C132.072 10.7087 133.702 11.7585 133.702 15.1601C133.702 15.958 133.618 16.8819 133.409 17.9738L131.528 28.5564C131.361 29.6483 131.319 30.0682 131.319 30.3622C131.319 30.8661 131.528 31.1601 132.239 31.1601H133.786L133.744 31.4961H129.647C127.974 31.4961 127.431 30.9081 127.431 30.0682C127.431 29.8163 127.514 29.4383 127.598 28.9344L129.479 17.9738C129.772 16.336 129.939 14.9501 129.939 13.9843C129.939 12.2625 129.27 11.5486 127.891 11.5486C126.218 11.5486 124.462 12.5984 122.414 15.874L121.452 17.4278Z" fill="#1A1A1A"/>
<path d="M148.791 27.8425C147.746 30.2782 145.823 31.916 142.98 31.916C139.008 31.916 136.96 29.0604 136.96 24.6929C136.96 17.8898 140.555 10.7087 147.245 10.7087C149.419 10.7087 150.882 11.7165 151.509 13.1024L151.885 11.1286H155.815L152.805 28.5564C152.638 29.5643 152.554 30.0682 152.554 30.3622C152.554 30.8661 152.763 31.1601 153.432 31.1601H154.979L154.937 31.4961H150.882C149.126 31.4961 148.75 30.9081 148.75 30.0682C148.75 29.5643 148.833 28.8504 149.168 26.9606L148.791 27.8425ZM141.015 25.1549C141.015 28.1365 141.35 31.0341 144.443 31.0341C146.116 31.0341 147.704 29.5223 148.499 27.6325L149.377 25.4488L151.384 13.8163C150.924 12.4724 149.795 11.3386 147.997 11.3386C142.729 11.3386 141.015 20.0315 141.015 25.1549Z" fill="#1A1A1A"/>
<path d="M159.141 11.4646L159.225 11.1286H159.685C162.402 11.1286 164.367 9.07087 165.872 6.04725H166.249L165.371 11.1286H169.51L169.426 11.4646H165.287L162.779 25.9108C162.653 26.7507 162.569 27.5066 162.569 28.1365C162.569 30.0682 163.28 30.9921 164.66 30.9921C165.58 30.9921 166.207 30.6562 166.834 29.8583L167.043 29.9843C166.081 31.3701 164.618 31.916 162.862 31.916C160.27 31.916 158.723 30.4042 158.723 27.5486C158.723 27.0026 158.765 26.4147 158.849 25.8268L161.357 11.4646H159.141Z" fill="#1A1A1A"/>
<path d="M180.802 27.8425C179.757 30.2782 177.834 31.916 174.991 31.916C171.019 31.916 168.971 29.0604 168.971 24.6929C168.971 17.8898 172.566 10.7087 179.255 10.7087C181.429 10.7087 182.893 11.7165 183.52 13.1024L183.896 11.1286H187.826L184.816 28.5564C184.649 29.5643 184.565 30.0682 184.565 30.3622C184.565 30.8661 184.774 31.1601 185.443 31.1601H186.99L186.948 31.4961H182.893C181.137 31.4961 180.761 30.9081 180.761 30.0682C180.761 29.5643 180.844 28.8504 181.179 26.9606L180.802 27.8425ZM173.026 25.1549C173.026 28.1365 173.361 31.0341 176.454 31.0341C178.127 31.0341 179.715 29.5223 180.51 27.6325L181.388 25.4488L183.394 13.8163C182.935 12.4724 181.806 11.3386 180.008 11.3386C174.74 11.3386 173.026 20.0315 173.026 25.1549Z" fill="#1A1A1A"/>
</g>
</svg>
