<svg width="42" height="48" viewBox="0 0 42 48" fill="none" xmlns="http://www.w3.org/2000/svg">
<path d="M11.3667 21.3324C11.3667 21.9292 11.1296 22.5014 10.7077 22.9234C10.2857 23.3454 9.7134 23.5824 9.11666 23.5824C8.51992 23.5824 7.94763 23.3454 7.52567 22.9234C7.10372 22.5014 6.86666 21.9292 6.86666 21.3324C6.86666 20.7357 7.10372 20.1634 7.52567 19.7414C7.94763 19.3195 8.51992 19.0824 9.11666 19.0824C9.7134 19.0824 10.2857 19.3195 10.7077 19.7414C11.1296 20.1634 11.3667 20.7357 11.3667 21.3324Z" fill="url(#paint0_linear_301_69)" stroke="white" stroke-width="0.2"/>
<path d="M18.541 22.9234C18.119 23.3454 17.5467 23.5824 16.95 23.5824C16.3532 23.5824 15.7809 23.3454 15.359 22.9234C14.937 22.5014 14.7 21.9292 14.7 21.3324C14.7 20.7357 14.937 20.1634 15.359 19.7414C15.7809 19.3195 16.3532 19.0824 16.95 19.0824C17.5467 19.0824 18.119 19.3195 18.541 19.7414C18.9629 20.1634 19.2 20.7357 19.2 21.3324C19.2 21.9292 18.9629 22.5014 18.541 22.9234Z" fill="url(#paint1_linear_301_69)" stroke="white" stroke-width="0.2"/>
<path d="M11.3667 29.1664C11.3667 29.7631 11.1296 30.3354 10.7077 30.7574C10.2857 31.1794 9.7134 31.4164 9.11666 31.4164C8.51992 31.4164 7.94763 31.1794 7.52567 30.7574C7.10372 30.3354 6.86666 29.7631 6.86666 29.1664C6.86666 28.5697 7.10372 27.9974 7.52567 27.5754C7.94763 27.1535 8.51992 26.9164 9.11666 26.9164C9.7134 26.9164 10.2857 27.1535 10.7077 27.5754C11.1296 27.9974 11.3667 28.5697 11.3667 29.1664Z" fill="url(#paint2_linear_301_69)" stroke="white" stroke-width="0.2"/>
<path d="M18.541 30.7574C18.119 31.1794 17.5467 31.4164 16.95 31.4164C16.3532 31.4164 15.7809 31.1794 15.359 30.7574C14.937 30.3354 14.7 29.7631 14.7 29.1664C14.7 28.5697 14.937 27.9974 15.359 27.5754C15.7809 27.1535 16.3532 26.9164 16.95 26.9164C17.5467 26.9164 18.119 27.1535 18.541 27.5754C18.9629 27.9974 19.2 28.5697 19.2 29.1664C19.2 29.7631 18.9629 30.3354 18.541 30.7574Z" fill="url(#paint3_linear_301_69)" stroke="white" stroke-width="0.2"/>
<path d="M33.3 38.5658C33.3 39.1626 33.063 39.7348 32.641 40.1568C32.219 40.5788 31.6467 40.8158 31.05 40.8158C30.4533 40.8158 29.881 40.5788 29.459 40.1568C29.0371 39.7348 28.8 39.1626 28.8 38.5658C28.8 37.9691 29.0371 37.3968 29.459 36.9748C29.881 36.5529 30.4533 36.3158 31.05 36.3158C31.6467 36.3158 32.219 36.5529 32.641 36.9748C33.063 37.3968 33.3 37.9691 33.3 38.5658Z" fill="url(#paint4_linear_301_69)" stroke="white" stroke-width="0.2"/>
<path d="M31.9111 32.8115C31.6381 32.9246 31.3455 32.9828 31.05 32.9828C30.4533 32.9828 29.881 32.7458 29.459 32.3238C29.0371 31.9018 28.8 31.3295 28.8 30.7328C28.8 30.1361 29.0371 29.5638 29.459 29.1418C29.881 28.7199 30.4533 28.4828 31.05 28.4828C31.3455 28.4828 31.6381 28.541 31.9111 28.6541C32.184 28.7672 32.4321 28.9329 32.641 29.1418C32.8499 29.3508 33.0157 29.5988 33.1287 29.8718C33.2418 30.1448 33.3 30.4373 33.3 30.7328C33.3 31.0283 33.2418 31.3209 33.1287 31.5939C33.0157 31.8668 32.8499 32.1149 32.641 32.3238C32.4321 32.5327 32.184 32.6985 31.9111 32.8115Z" fill="url(#paint5_linear_301_69)" stroke="white" stroke-width="0.2"/>
<path d="M8.33333 6.54305H8.43333V6.44305V1.73366C8.43333 1.34467 8.58785 0.971622 8.86291 0.696568C9.13796 0.421515 9.51101 0.266992 9.9 0.266992H16.1667C16.5556 0.266992 16.9287 0.421515 17.2038 0.696568C17.4788 0.971622 17.6333 1.34467 17.6333 1.73366V6.44305V6.54305H17.7333H21.039C21.428 6.54305 21.801 6.69758 22.0761 6.97263C22.3511 7.24768 22.5057 7.62074 22.5057 8.00972V13.656V13.7115L22.5528 13.7409C24.3013 14.8295 25.4667 16.7689 25.4667 18.9826V19.0826H25.5667H27.1333C30.8463 19.0826 34.4073 20.5576 37.0328 23.1831C39.6583 25.8087 41.1333 29.3696 41.1333 33.0826V45.616C41.1333 46.0049 40.9788 46.378 40.7037 46.653C40.4287 46.9281 40.0556 47.0826 39.6666 47.0826H24.0007C23.9595 47.0823 23.9183 47.0804 23.8772 47.0767L23.8772 47.0764H23.8684H2.06667C1.67768 47.0764 1.30463 46.9218 1.02958 46.6468C0.754525 46.3717 0.600001 45.9987 0.600001 45.6097L0.600001 18.9826L0.600001 18.9826C0.599254 17.8665 0.901427 16.7711 1.4743 15.8132C2.04717 14.8554 2.86926 14.0709 3.85292 13.5436L3.90567 13.5153V13.4555V8.00972C3.90567 7.62074 4.06019 7.24768 4.33524 6.97263C4.6103 6.69758 4.98335 6.54305 5.37233 6.54305H8.33333ZM6.839 12.716V12.816H6.939H19.3H19.4723H19.5723V12.716V9.57639V9.47639H19.4723H6.939H6.839V9.57639V12.716ZM19.2 44.043V44.143H19.3H22.4333V44.043H22.5333V18.9826C22.5333 18.1251 22.1927 17.3027 21.5863 16.6963C20.9799 16.09 20.1575 15.7493 19.3 15.7493H6.76666C5.90913 15.7493 5.08672 16.09 4.48035 16.6963C3.87399 17.3027 3.53333 18.1251 3.53333 18.9826V44.043V44.143H3.63333H6.76666H6.86666V44.043V37.7952C6.86666 36.9907 7.18625 36.2191 7.75511 35.6503C8.32397 35.0814 9.09551 34.7618 9.9 34.7618H16.1667C16.9711 34.7618 17.7427 35.0814 18.3116 35.6503C18.8804 36.2191 19.2 36.9907 19.2 37.7952V44.043ZM9.8 44.043V44.143H9.9H16.1667H16.2667V44.043V37.7952V37.6952H16.1667H9.9H9.8V37.7952V44.043ZM38.1 44.1493H38.2V44.0493V33.0826C38.2 30.1476 37.034 27.3327 34.9586 25.2573C32.8832 23.1819 30.0684 22.016 27.1333 22.016H25.5667H25.4667V22.116V44.0493V44.1493H25.5667H38.1ZM14.6 6.54305H14.7V6.44305V3.30032V3.20032H14.6H11.4667H11.3667V3.30032V6.44305V6.54305H11.4667H14.6Z" fill="url(#paint6_linear_301_69)" stroke="white" stroke-width="0.2"/>
<defs>
<linearGradient id="paint0_linear_301_69" x1="6.76666" y1="19.6849" x2="11.4667" y2="19.6849" gradientUnits="userSpaceOnUse">
<stop stop-color="#1F78E0"/>
<stop offset="1" stop-color="#00C2FF"/>
</linearGradient>
<linearGradient id="paint1_linear_301_69" x1="14.6" y1="19.6849" x2="19.3" y2="19.6849" gradientUnits="userSpaceOnUse">
<stop stop-color="#1F78E0"/>
<stop offset="1" stop-color="#00C2FF"/>
</linearGradient>
<linearGradient id="paint2_linear_301_69" x1="6.76666" y1="27.5189" x2="11.4667" y2="27.5189" gradientUnits="userSpaceOnUse">
<stop stop-color="#1F78E0"/>
<stop offset="1" stop-color="#00C2FF"/>
</linearGradient>
<linearGradient id="paint3_linear_301_69" x1="14.6" y1="27.5189" x2="19.3" y2="27.5189" gradientUnits="userSpaceOnUse">
<stop stop-color="#1F78E0"/>
<stop offset="1" stop-color="#00C2FF"/>
</linearGradient>
<linearGradient id="paint4_linear_301_69" x1="28.7" y1="36.9183" x2="33.4" y2="36.9183" gradientUnits="userSpaceOnUse">
<stop stop-color="#1F78E0"/>
<stop offset="1" stop-color="#00C2FF"/>
</linearGradient>
<linearGradient id="paint5_linear_301_69" x1="28.7" y1="29.0853" x2="33.4" y2="29.0853" gradientUnits="userSpaceOnUse">
<stop stop-color="#1F78E0"/>
<stop offset="1" stop-color="#00C2FF"/>
</linearGradient>
<linearGradient id="paint6_linear_301_69" x1="0.5" y1="7.19397" x2="41.2333" y2="7.19397" gradientUnits="userSpaceOnUse">
<stop stop-color="#1F78E0"/>
<stop offset="1" stop-color="#00C2FF"/>
</linearGradient>
</defs>
</svg>
