<svg width="52" height="52" viewBox="0 0 52 52" fill="none" xmlns="http://www.w3.org/2000/svg">
<path fill-rule="evenodd" clip-rule="evenodd" d="M25.2653 4.50789C25.7288 4.27473 26.2709 4.27471 26.7343 4.50785L43.0604 12.7202C43.5322 12.9573 43.9447 13.3029 44.2658 13.7303C44.5869 14.1577 44.8081 14.6554 44.9123 15.1848L44.9124 15.1855C46.0557 21.0072 45.5231 27.0456 43.38 32.5606C41.2368 38.0755 37.5763 42.8273 32.847 46.2334L32.8464 46.2338L29.3559 48.7454C28.3724 49.4533 27.2012 49.833 26.0009 49.833C24.8006 49.833 23.6294 49.4533 22.6459 48.7454L19.1555 46.2338L19.155 46.2335C14.4253 42.8276 10.7643 38.076 8.62073 32.561C6.47719 27.0461 5.94426 21.0075 7.08728 15.1856L7.08765 15.1837C7.19226 14.6538 7.4141 14.1559 7.73596 13.7285C8.05748 13.3015 8.47018 12.9564 8.94211 12.7198C8.94261 12.7196 8.94311 12.7193 8.94361 12.7191L25.2653 4.50789ZM25.9999 7.96839L10.4099 15.8115L10.407 15.8129C10.3963 15.8183 10.387 15.8261 10.3797 15.8357C10.3724 15.8454 10.3674 15.8567 10.3651 15.8686L8.72635 15.5262L10.3654 15.8668C9.35126 21.0324 9.8241 26.3903 11.726 31.2835C13.6279 36.1767 16.8762 40.3927 21.0727 43.4146L24.5629 45.926L24.5631 45.9262C24.9845 46.2296 25.4865 46.3923 26.0009 46.3923C26.5153 46.3923 27.0173 46.2296 27.4388 45.9262L27.439 45.926L30.929 43.4147C35.1252 40.3925 38.3731 36.1764 40.2746 31.2832C42.1762 26.39 42.6487 21.0323 41.6343 15.8669C41.6319 15.8551 41.627 15.8441 41.6199 15.8346C41.6126 15.825 41.6033 15.8172 41.5926 15.8118L41.592 15.8115L25.9999 7.96839Z" fill="url(#paint0_linear_89_384)"/>
<defs>
<linearGradient id="paint0_linear_89_384" x1="6.5" y1="11.1335" x2="45.5" y2="11.1335" gradientUnits="userSpaceOnUse">
<stop stop-color="#1F78E0"/>
<stop offset="1" stop-color="#00C2FF"/>
</linearGradient>
</defs>
</svg>
