<svg width="52" height="52" viewBox="0 0 52 52" fill="none" xmlns="http://www.w3.org/2000/svg">
<path fill-rule="evenodd" clip-rule="evenodd" d="M23.369 15.167C23.9673 15.167 24.4524 15.652 24.4524 16.2503V26.9289C24.4524 28.0576 24.9008 29.1402 25.6989 29.9383C26.4971 30.7365 27.5796 31.1848 28.7083 31.1848H34.0476C35.1764 31.1848 36.2589 30.7365 37.057 29.9383C37.8552 29.1402 38.3036 28.0576 38.3036 26.9289V16.2503C38.3036 15.652 38.7886 15.167 39.3869 15.167C39.9852 15.167 40.4702 15.652 40.4702 16.2503V26.9289C40.4702 28.6323 39.7936 30.2659 38.5891 31.4704C37.3846 32.6748 35.751 33.3515 34.0476 33.3515H28.7083C27.0049 33.3515 25.3713 32.6748 24.1668 31.4704C22.9624 30.2659 22.2857 28.6323 22.2857 26.9289V16.2503C22.2857 15.652 22.7707 15.167 23.369 15.167Z" fill="url(#paint0_linear_89_360)"/>
<path fill-rule="evenodd" clip-rule="evenodd" d="M20.506 12.6908C20.506 12.0924 20.991 11.6074 21.5893 11.6074H41.1667C41.765 11.6074 42.25 12.0924 42.25 12.6908V14.4705C42.25 15.2299 41.9484 15.9581 41.4114 16.495C40.8745 17.032 40.1462 17.3336 39.3869 17.3336H37.6071C37.0088 17.3336 36.5238 16.8486 36.5238 16.2503C36.5238 15.652 37.0088 15.1669 37.6071 15.1669H39.3869C39.5716 15.1669 39.7487 15.0936 39.8794 14.963C40.01 14.8324 40.0833 14.6552 40.0833 14.4705V13.7741H22.6726V14.4705C22.6726 14.6552 22.746 14.8324 22.8766 14.963C23.0072 15.0936 23.1843 15.1669 23.369 15.1669H26.9286C27.5269 15.1669 28.0119 15.652 28.0119 16.2503C28.0119 16.8486 27.5269 17.3336 26.9286 17.3336H23.369C22.6097 17.3336 21.8815 17.032 21.3445 16.495C20.8076 15.9581 20.506 15.2299 20.506 14.4705V12.6908Z" fill="url(#paint1_linear_89_360)"/>
<path fill-rule="evenodd" clip-rule="evenodd" d="M30.1434 16.2503C30.1434 15.652 30.6284 15.167 31.2267 15.167H33.1577C33.7561 15.167 34.2411 15.652 34.2411 16.2503C34.2411 16.8486 33.7561 17.3337 33.1577 17.3337H31.2267C30.6284 17.3337 30.1434 16.8486 30.1434 16.2503Z" fill="url(#paint2_linear_89_360)"/>
<path fill-rule="evenodd" clip-rule="evenodd" d="M27.326 5.07865C27.4566 4.94805 27.6337 4.87467 27.8184 4.87467C28.0032 4.87467 28.1803 4.94805 28.3109 5.07865C28.4415 5.20926 28.5149 5.3864 28.5149 5.5711V11.6068H27.122V5.5711C27.122 5.3864 27.1954 5.20926 27.326 5.07865ZM27.8184 2.70801C27.0591 2.70801 26.3309 3.00965 25.7939 3.54659C25.257 4.08352 24.9554 4.81177 24.9554 5.5711V12.6902C24.9554 13.2885 25.4404 13.7735 26.0387 13.7735H29.5982C30.1965 13.7735 30.6815 13.2885 30.6815 12.6902V5.5711C30.6815 4.81177 30.3799 4.08352 29.843 3.54659C29.306 3.00965 28.5778 2.70801 27.8184 2.70801ZM34.445 5.07865C34.5757 4.94805 34.7528 4.87467 34.9375 4.87467C35.1222 4.87467 35.2993 4.94805 35.4299 5.07865C35.5606 5.20926 35.6339 5.3864 35.6339 5.5711V11.6068H34.2411V5.5711C34.2411 5.3864 34.3144 5.20926 34.445 5.07865ZM34.9375 2.70801C34.1782 2.70801 33.4499 3.00965 32.913 3.54659C32.376 4.08352 32.0744 4.81177 32.0744 5.5711V12.6902C32.0744 13.2885 32.5594 13.7735 33.1577 13.7735H36.7173C37.3156 13.7735 37.8006 13.2885 37.8006 12.6902V5.5711C37.8006 4.81177 37.499 4.08352 36.962 3.54659C36.4251 3.00965 35.6968 2.70801 34.9375 2.70801Z" fill="url(#paint3_linear_89_360)"/>
<path fill-rule="evenodd" clip-rule="evenodd" d="M27.625 32.2679C27.625 31.6696 28.11 31.1846 28.7083 31.1846H34.0476C34.6459 31.1846 35.131 31.6696 35.131 32.2679V33.1578C35.131 33.9171 34.8293 34.6454 34.2924 35.1823C33.7554 35.7192 33.0272 36.0209 32.2679 36.0209H30.4881C29.7288 36.0209 29.0005 35.7192 28.4636 35.1823C27.9266 34.6454 27.625 33.9171 27.625 33.1578V32.2679ZM29.8191 33.3512C29.8515 33.4632 29.9117 33.5663 29.9956 33.6502C30.1262 33.7808 30.3034 33.8542 30.4881 33.8542H32.2679C32.4526 33.8542 32.6297 33.7808 32.7603 33.6502C32.8442 33.5663 32.9045 33.4632 32.9369 33.3512H29.8191Z" fill="url(#paint4_linear_89_360)"/>
<path fill-rule="evenodd" clip-rule="evenodd" d="M26.0387 17.8359C26.637 17.8359 27.122 18.321 27.122 18.9193V23.3687C27.122 23.967 26.637 24.452 26.0387 24.452C25.4404 24.452 24.9554 23.967 24.9554 23.3687V18.9193C24.9554 18.321 25.4404 17.8359 26.0387 17.8359Z" fill="url(#paint5_linear_89_360)"/>
<path fill-rule="evenodd" clip-rule="evenodd" d="M36.7173 20.5059C37.3156 20.5059 37.8006 20.9909 37.8006 21.5892V25.1487C37.8006 25.747 37.3156 26.2321 36.7173 26.2321C36.119 26.2321 35.6339 25.747 35.6339 25.1487V21.5892C35.6339 20.9909 36.119 20.5059 36.7173 20.5059Z" fill="url(#paint6_linear_89_360)"/>
<path fill-rule="evenodd" clip-rule="evenodd" d="M31.378 33.8545C31.9763 33.8545 32.4613 34.3395 32.4613 34.9378V42.0569C32.4613 42.6552 31.9763 43.1402 31.378 43.1402C30.7797 43.1402 30.2946 42.6552 30.2946 42.0569V34.9378C30.2946 34.3395 30.7797 33.8545 31.378 33.8545Z" fill="url(#paint7_linear_89_360)"/>
<path fill-rule="evenodd" clip-rule="evenodd" d="M20.6994 40.9736C21.2977 40.9736 21.7827 41.4587 21.7827 42.057C21.7827 43.1857 22.2311 44.2682 23.0293 45.0664C23.8274 45.8645 24.9099 46.3129 26.0387 46.3129C27.1674 46.3129 28.25 45.8645 29.0481 45.0664C29.8463 44.2682 30.2946 43.1857 30.2946 42.057C30.2946 41.4587 30.7797 40.9736 31.378 40.9736C31.9763 40.9736 32.4613 41.4587 32.4613 42.057C32.4613 43.7603 31.7846 45.394 30.5802 46.5984C29.3757 47.8029 27.7421 48.4796 26.0387 48.4796C24.3353 48.4796 22.7017 47.8029 21.4972 46.5984C20.2927 45.394 19.6161 43.7603 19.6161 42.057C19.6161 41.4587 20.1011 40.9736 20.6994 40.9736Z" fill="url(#paint8_linear_89_360)"/>
<path fill-rule="evenodd" clip-rule="evenodd" d="M10.8186 19.7171C12.0231 18.5126 13.6567 17.8359 15.3601 17.8359C17.0635 17.8359 18.6971 18.5126 19.9016 19.7171C21.1061 20.9216 21.7827 22.5552 21.7827 24.2586C21.7827 24.8569 21.2977 25.3419 20.6994 25.3419C20.1011 25.3419 19.6161 24.8569 19.6161 24.2586C19.6161 23.1298 19.1677 22.0473 18.3695 21.2491C17.5714 20.451 16.4889 20.0026 15.3601 20.0026C14.2314 20.0026 13.1489 20.451 12.3507 21.2491C11.5526 22.0473 11.1042 23.1298 11.1042 24.2586C11.1042 24.8569 10.6191 25.3419 10.0208 25.3419C9.42252 25.3419 8.9375 24.8569 8.9375 24.2586C8.9375 22.5552 9.61417 20.9216 10.8186 19.7171Z" fill="url(#paint9_linear_89_360)"/>
<path fill-rule="evenodd" clip-rule="evenodd" d="M20.6994 23.1758C21.2977 23.1758 21.7827 23.6608 21.7827 24.2591V42.0567C21.7827 42.655 21.2977 43.1401 20.6994 43.1401C20.1011 43.1401 19.6161 42.655 19.6161 42.0567V24.2591C19.6161 23.6608 20.1011 23.1758 20.6994 23.1758Z" fill="url(#paint10_linear_89_360)"/>
<path fill-rule="evenodd" clip-rule="evenodd" d="M10.0208 23.1758C10.6191 23.1758 11.1042 23.6608 11.1042 24.2591V33.1579C11.1042 33.7562 10.6191 34.2413 10.0208 34.2413C9.42252 34.2413 8.9375 33.7562 8.9375 33.1579V24.2591C8.9375 23.6608 9.42252 23.1758 10.0208 23.1758Z" fill="url(#paint11_linear_89_360)"/>
<defs>
<linearGradient id="paint0_linear_89_360" x1="22.2857" y1="17.8849" x2="40.4702" y2="17.8849" gradientUnits="userSpaceOnUse">
<stop stop-color="#1F78E0"/>
<stop offset="1" stop-color="#00C2FF"/>
</linearGradient>
<linearGradient id="paint1_linear_89_360" x1="20.506" y1="12.4633" x2="42.25" y2="12.4633" gradientUnits="userSpaceOnUse">
<stop stop-color="#1F78E0"/>
<stop offset="1" stop-color="#00C2FF"/>
</linearGradient>
<linearGradient id="paint2_linear_89_360" x1="30.1434" y1="15.4908" x2="34.2411" y2="15.4908" gradientUnits="userSpaceOnUse">
<stop stop-color="#1F78E0"/>
<stop offset="1" stop-color="#00C2FF"/>
</linearGradient>
<linearGradient id="paint3_linear_89_360" x1="24.9554" y1="4.36186" x2="37.8006" y2="4.36186" gradientUnits="userSpaceOnUse">
<stop stop-color="#1F78E0"/>
<stop offset="1" stop-color="#00C2FF"/>
</linearGradient>
<linearGradient id="paint4_linear_89_360" x1="27.625" y1="31.9074" x2="35.131" y2="31.9074" gradientUnits="userSpaceOnUse">
<stop stop-color="#1F78E0"/>
<stop offset="1" stop-color="#00C2FF"/>
</linearGradient>
<linearGradient id="paint5_linear_89_360" x1="24.9554" y1="18.8248" x2="27.122" y2="18.8248" gradientUnits="userSpaceOnUse">
<stop stop-color="#1F78E0"/>
<stop offset="1" stop-color="#00C2FF"/>
</linearGradient>
<linearGradient id="paint6_linear_89_360" x1="35.6339" y1="21.3617" x2="37.8006" y2="21.3617" gradientUnits="userSpaceOnUse">
<stop stop-color="#1F78E0"/>
<stop offset="1" stop-color="#00C2FF"/>
</linearGradient>
<linearGradient id="paint7_linear_89_360" x1="30.2946" y1="35.2423" x2="32.4613" y2="35.2423" gradientUnits="userSpaceOnUse">
<stop stop-color="#1F78E0"/>
<stop offset="1" stop-color="#00C2FF"/>
</linearGradient>
<linearGradient id="paint8_linear_89_360" x1="19.6161" y1="42.0955" x2="32.4613" y2="42.0955" gradientUnits="userSpaceOnUse">
<stop stop-color="#1F78E0"/>
<stop offset="1" stop-color="#00C2FF"/>
</linearGradient>
<linearGradient id="paint9_linear_89_360" x1="8.9375" y1="18.9578" x2="21.7827" y2="18.9578" gradientUnits="userSpaceOnUse">
<stop stop-color="#1F78E0"/>
<stop offset="1" stop-color="#00C2FF"/>
</linearGradient>
<linearGradient id="paint10_linear_89_360" x1="19.6161" y1="26.1597" x2="21.7827" y2="26.1597" gradientUnits="userSpaceOnUse">
<stop stop-color="#1F78E0"/>
<stop offset="1" stop-color="#00C2FF"/>
</linearGradient>
<linearGradient id="paint11_linear_89_360" x1="8.9375" y1="24.8296" x2="11.1042" y2="24.8296" gradientUnits="userSpaceOnUse">
<stop stop-color="#1F78E0"/>
<stop offset="1" stop-color="#00C2FF"/>
</linearGradient>
</defs>
</svg>
