<svg width="24" height="30" viewBox="0 0 24 30" fill="none" xmlns="http://www.w3.org/2000/svg">
<path d="M23.3617 8.8418L14.6691 0.624023C14.5283 0.492187 14.375 0.380859 14.2091 0.287109C14.1653 0.263672 14.1215 0.240234 14.0746 0.219727C14.0464 0.205078 14.0151 0.193359 13.987 0.181641C13.7053 0.0644531 13.3956 0 13.0795 0H2.28422C1.03885 0 0 0.943359 0 2.10938V27.8906C0 29.0566 1.03885 30 2.28422 30H21.7784C23.0237 30 24 29.0566 24 27.8906V10.3271C24 9.77051 23.781 9.2373 23.3617 8.8418ZM14.2373 3.23438L20.5205 9.14062H14.2373V3.23438ZM21.7471 27.8906H2.25293V2.10938H11.9844V9.14062C11.9844 10.3066 13.0232 11.25 14.2686 11.25H21.7471V27.8906Z" fill="white"/>
</svg>
