<svg width="18" height="18" viewBox="0 0 18 18" fill="none" xmlns="http://www.w3.org/2000/svg">
<path d="M15.46 3.99982H13.275C13.1424 3.99982 13.0152 4.0525 12.9214 4.14627C12.8277 4.24004 12.775 4.36722 12.775 4.49982C12.775 4.63243 12.8277 4.75961 12.9214 4.85338C13.0152 4.94715 13.1424 4.99982 13.275 4.99982H15.5V14.9998H2.5V4.99982H4.69C4.82261 4.99982 4.94979 4.94715 5.04355 4.85338C5.13732 4.75961 5.19 4.63243 5.19 4.49982C5.19 4.36722 5.13732 4.24004 5.04355 4.14627C4.94979 4.0525 4.82261 3.99982 4.69 3.99982H2.54C2.40535 3.99443 2.271 4.01631 2.14502 4.06415C2.01904 4.11198 1.90403 4.18479 1.80689 4.27819C1.70975 4.37159 1.6325 4.48366 1.57976 4.60767C1.52702 4.73168 1.49989 4.86507 1.5 4.99982V14.9998C1.49989 15.1346 1.52702 15.268 1.57976 15.392C1.6325 15.516 1.70975 15.6281 1.80689 15.7215C1.90403 15.8149 2.01904 15.8877 2.14502 15.9355C2.271 15.9833 2.40535 16.0052 2.54 15.9998H15.46C15.5946 16.0052 15.729 15.9833 15.855 15.9355C15.981 15.8877 16.096 15.8149 16.1931 15.7215C16.2902 15.6281 16.3675 15.516 16.4202 15.392C16.473 15.268 16.5001 15.1346 16.5 14.9998V4.99982C16.5001 4.86507 16.473 4.73168 16.4202 4.60767C16.3675 4.48366 16.2902 4.37159 16.1931 4.27819C16.096 4.18479 15.981 4.11198 15.855 4.06415C15.729 4.01631 15.5946 3.99443 15.46 3.99982Z" fill="url(#paint0_linear_151_9540)"/>
<path d="M5.15031 9.435L8.65031 12.88C8.74377 12.9716 8.86943 13.0229 9.00031 13.0229C9.13118 13.0229 9.25684 12.9716 9.35031 12.88L12.8503 9.435C12.9451 9.34217 12.9992 9.21549 13.0006 9.0828C13.002 8.95012 12.9506 8.82231 12.8578 8.7275C12.765 8.63269 12.6383 8.57863 12.5056 8.57722C12.3729 8.57582 12.2451 8.62717 12.1503 8.72L9.50031 11.325V2C9.50031 1.86739 9.44763 1.74021 9.35386 1.64645C9.26009 1.55268 9.13291 1.5 9.00031 1.5C8.8677 1.5 8.74052 1.55268 8.64675 1.64645C8.55298 1.74021 8.50031 1.86739 8.50031 2V11.325L5.85031 8.72C5.75549 8.62717 5.62768 8.57582 5.495 8.57722C5.36232 8.57863 5.23563 8.63269 5.14281 8.7275C5.04998 8.82231 4.99862 8.95012 5.00003 9.0828C5.00143 9.21549 5.05549 9.34217 5.15031 9.435Z" fill="url(#paint1_linear_151_9540)"/>
<defs>
<linearGradient id="paint0_linear_151_9540" x1="1.5" y1="9.99982" x2="16.5" y2="9.99982" gradientUnits="userSpaceOnUse">
<stop stop-color="#EA5C2F"/>
<stop offset="1" stop-color="#F3B921"/>
</linearGradient>
<linearGradient id="paint1_linear_151_9540" x1="5" y1="7.26146" x2="13.0006" y2="7.26146" gradientUnits="userSpaceOnUse">
<stop stop-color="#EA5C2F"/>
<stop offset="1" stop-color="#F3B921"/>
</linearGradient>
</defs>
</svg>
